<?xml version="1.0" encoding="UTF-8" standalone="no"?>
<svg
   x="0"
   y="0"
   width="78mm"
   height="25mm"
   viewBox="0 0 78 25"
   preserveAspectRatio="xMinYMin"
   version="1.1"
   id="svg12"
   sodipodi:docname="metacpan-light-logo-sticker.svg"
   inkscape:version="1.4.2 (2aeb623e1d, 2025-05-12)"
   inkscape:export-filename="../20d8aca4/metacpan-light-logo-sticker.png"
   inkscape:export-xdpi="1200"
   inkscape:export-ydpi="1200"
   xmlns:inkscape="http://www.inkscape.org/namespaces/inkscape"
   xmlns:sodipodi="http://sodipodi.sourceforge.net/DTD/sodipodi-0.dtd"
   xmlns="http://www.w3.org/2000/svg"
   xmlns:svg="http://www.w3.org/2000/svg">
  <defs
     id="defs12" />
  <sodipodi:namedview
     id="namedview12"
     pagecolor="#b6b6b6"
     bordercolor="#000000"
     borderopacity="0.25"
     inkscape:showpageshadow="2"
     inkscape:pageopacity="0.0"
     inkscape:pagecheckerboard="0"
     inkscape:deskcolor="#d1d1d1"
     showguides="true"
     inkscape:zoom="0.9574445"
     inkscape:cx="172.85597"
     inkscape:cy="55.355689"
     inkscape:window-width="1107"
     inkscape:window-height="1196"
     inkscape:window-x="26"
     inkscape:window-y="23"
     inkscape:window-maximized="0"
     inkscape:current-layer="svg12"
     inkscape:document-units="mm">
    <sodipodi:guide
       position="1602.2746,-248.04941"
       orientation="0,-1"
       id="guide12"
       inkscape:locked="false" />
    <sodipodi:guide
       position="60.976413,8.59893"
       orientation="0,1"
       id="guide13"
       inkscape:locked="false"
       inkscape:label=""
       inkscape:color="rgb(0,134,229)" />
    <sodipodi:guide
       position="135.47727,15.720199"
       orientation="0,1"
       id="guide14"
       inkscape:locked="false"
       inkscape:label=""
       inkscape:color="rgb(0,134,229)" />
    <sodipodi:guide
       position="7.3,27.003617"
       orientation="-1,0"
       id="guide15"
       inkscape:locked="false"
       inkscape:label=""
       inkscape:color="rgb(0,134,229)" />
  </sodipodi:namedview>
  <rect
     style="opacity:0.977462;fill:#ffffff;fill-opacity:1;stroke-width:0.459936;stroke-linecap:round;stroke-linejoin:round;stroke-dasharray:0.459936, 1.37981;paint-order:markers stroke fill"
     id="rect10"
     width="78"
     height="25"
     x="0"
     y="-1.332232e-07"
     rx="5"
     ry="5" />
  <use
     href="#logo"
     id="use12"
     transform="matrix(0.81281841,0,0,0.81281841,7.2960649,-226.51721)" />
  <symbol
     id="dots"
     fill="#da2037"
     viewBox="0 0 14 14"
     transform="translate(0.005,282)">
    <circle
       cx="3"
       cy="3"
       id="circle1"
       r="3" />
    <circle
       cx="3"
       cy="11"
       id="circle2"
       r="3" />
    <circle
       cx="11"
       cy="3"
       id="circle3"
       r="3" />
    <circle
       cx="11"
       cy="11"
       id="circle4"
       r="3" />
  </symbol>
  <symbol
     id="logo"
     viewBox="0 0 1368 248"
     transform="translate(0.005,282)">
    <g
       class="text"
       fill="#43424a"
       id="g7">
      <path
         d="m 141.577,46.475 c -17.847,0 -31.74,5.768 -41.507,14.591 -9.768,-8.82 -23.659,-14.59 -41.506,-14.59 -12.073,0 -22.34,2.64 -30.742,7.08 A 17.057,17.095 0 0 0 0,66.81 v 114.384 a 17.06,17.098 0 1 0 34.115,0 V 99.648 c 0,-4.454 1.764,-18.98 24.45,-18.98 22.686,0 24.448,14.53 24.448,18.98 v 81.546 a 17.06,17.098 0 0 0 34.118,0 V 99.648 c 0,-4.454 1.76,-18.98 24.448,-18.98 22.686,0 24.45,14.53 24.45,18.98 v 81.546 a 17.06,17.098 0 1 0 34.114,0 V 99.648 C 200.138,73.226 180.024,46.475 141.577,46.475 Z"
         id="path4" />
      <path
         d="m 286.723,201.531 c -39.797,0 -61.271,-27.335 -61.271,-53.056 V 99.648 c 0,-13.675 5.076,-26.51 14.29,-36.142 7.433,-7.771 21.123,-17.03 44.128,-17.03 23.005,0 36.695,9.261 44.127,17.03 9.214,9.633 14.288,22.467 14.288,36.142 v 24.742 a 17.057,17.095 0 0 1 -17.058,17.095 H 259.57 v 6.988 c 0,7.586 7.232,18.868 27.157,18.868 7.83,0 19.27,-2.212 23.518,-4.05 a 17.058324,17.096325 0 1 1 13.488,31.407 c -9.034,3.898 -24.942,6.833 -37.01,6.833 z m -27.156,-94.237 h 48.6 v -7.646 c 0,-4.454 -1.753,-18.985 -24.3,-18.985 -22.547,0 -24.3,14.531 -24.3,18.985 z"
         id="path5" />
      <path
         d="m 478.863,165.97 a 17.057,17.095 0 0 0 -23.965,-2.747 c -2.826,2.25 -5.793,4.118 -13.49,4.118 -9.977,0 -20.663,-7.785 -20.663,-19.37 V 83.77 h 26.724 a 17.057499,17.0955 0 0 0 0,-34.191 h -26.724 v -32.48 a 17.06,17.098 0 0 0 -34.114,0 v 32.48 h -14.215 a 17.057,17.095 0 0 0 0,34.19 h 14.215 v 64.202 c 0,29.531 24.57,53.558 54.774,53.558 13.993,0 24.7,-3.56 34.718,-11.54 a 17.055,17.093 0 0 0 2.74,-24.02 z"
         id="path6" />
      <path
         d="m 549.421,46.513 c -15.167,0 -29.244,5.324 -41.834,15.819 a 17.057299,17.0953 0 0 0 21.818,26.284 c 6.474,-5.397 12.833,-7.912 20.013,-7.912 19.924,0 27.156,11.281 27.156,18.857 v 1.868 c -29.317,-1.911 -51.448,3.157 -65.92,15.138 -10.555,8.739 -16.46,20.64 -17.073,34.41 -0.68,15.19 5.682,29.36 17.452,38.872 9.523,7.698 21.574,11.69 34.531,11.69 5.672,0 11.519,-0.764 17.399,-2.32 6.615,-1.75 12.213,-4.497 16.924,-7.88 a 17.025,17.063 0 0 0 13.699,6.953 h 0.008 a 17.057,17.095 0 0 0 17.057,-17.087 l 0.04,-81.636 c 0,-25.72 -21.473,-53.056 -61.27,-53.056 z m 4.825,119.649 c -8.573,2.274 -16.725,1.179 -21.801,-2.925 -2.318,-1.876 -5.03,-5.256 -4.785,-10.728 0.179,-4.017 1.68,-7.061 4.723,-9.58 3.256,-2.694 12.073,-7.716 32.557,-7.716 3.515,0 7.386,0.154 11.618,0.485 l -0.005,16.586 c -0.268,4.99 -8.757,10.289 -22.307,13.878 z"
         id="path7" />
    </g>
    <use
       href="#dots"
       x="639.54999"
       y="40.405998"
       width="167.44"
       height="167.44"
       id="use7"
       transform="translate(-0.005,-282)" />
    <g
       class="text"
       fill="#43424a"
       id="g11">
      <path
         d="m 892.535,201.531 c -38.447,0 -58.563,-26.747 -58.563,-53.172 V 99.648 c 0,-26.422 20.116,-53.173 58.563,-53.173 22.118,0 39.946,8.745 50.212,24.623 a 17.057,17.095 0 0 1 -5.046,23.641 17.05,17.087 0 0 1 -23.586,-5.052 c -4.82,-7.454 -14.4,-9.021 -21.58,-9.021 -22.688,0 -24.449,14.528 -24.449,18.98 v 48.71 c 0,4.456 1.761,18.985 24.45,18.985 7.18,0 16.754,-1.57 21.579,-9.024 a 17.052,17.09 0 0 1 23.586,-5.055 17.063,17.1 0 0 1 5.046,23.644 c -10.266,15.881 -28.094,24.625 -50.212,24.625 z"
         id="path8" />
      <path
         d="m 1026.282,46.475 c -12.076,0 -22.34,2.643 -30.742,7.08 A 16.984,17.022 0 0 0 984.776,49.715 17.057,17.095 0 0 0 967.72,66.81 v 164.095 a 17.059,17.097 0 0 0 34.118,0 v -33.621 c 7.083,2.7 15.231,4.247 24.446,4.247 38.45,0 58.56,-26.745 58.56,-53.172 V 99.648 c 0,-26.422 -20.116,-53.173 -58.563,-53.173 z m 24.446,101.881 c 0,4.456 -1.758,18.985 -24.446,18.985 -22.686,0 -24.446,-14.529 -24.446,-18.985 v -48.71 c 0,-4.454 1.76,-18.98 24.446,-18.98 22.688,0 24.446,14.528 24.446,18.98 z"
         id="path9" />
      <path
         d="m 1161.373,46.513 c -15.17,0 -29.244,5.324 -41.836,15.819 a 17.055,17.093 0 0 0 -2.202,24.075 17.057,17.095 0 0 0 24.024,2.209 c 6.475,-5.397 12.83,-7.912 20.014,-7.912 19.921,0 27.156,11.281 27.156,18.857 v 1.868 c -29.323,-1.911 -51.451,3.157 -65.923,15.138 -10.556,8.739 -16.46,20.64 -17.079,34.41 -0.676,15.19 5.685,29.36 17.455,38.872 9.52,7.698 21.577,11.69 34.531,11.69 5.677,0 11.519,-0.764 17.399,-2.32 6.618,-1.75 12.213,-4.497 16.927,-7.88 a 17.011,17.05 0 0 0 13.696,6.953 h 0.013 a 17.066,17.103 0 0 0 17.058,-17.087 l 0.043,-81.636 c 0,-25.72 -21.48,-53.056 -61.276,-53.056 z m 4.822,119.649 c -8.576,2.274 -16.725,1.179 -21.804,-2.925 -2.315,-1.876 -5.03,-5.256 -4.784,-10.728 0.181,-4.017 1.682,-7.061 4.722,-9.58 3.25,-2.694 12.076,-7.716 32.56,-7.716 3.513,0 7.38,0.154 11.618,0.485 l -0.01,16.586 c -0.27,4.99 -8.754,10.289 -22.304,13.878 z"
         id="path10" />
      <path
         d="m 1309.434,46.473 c -12.078,0 -22.342,2.64 -30.742,7.077 a 17.06,17.098 0 0 0 -27.821,13.257 v 114.384 a 17.06,17.098 0 1 0 34.12,0 V 99.645 c 0,-4.453 1.758,-18.982 24.446,-18.982 22.683,0 24.446,14.529 24.446,18.982 v 81.55 a 17.059,17.097 0 1 0 34.118,0 V 99.647 c -0.01,-26.428 -20.116,-53.175 -58.567,-53.175 z"
         id="path11" />
    </g>
  </symbol>
  <symbol
     id="logo-white"
     transform="translate(0.005,282)">
    <use
       href="#logo"
       id="use11"
       transform="translate(-0.005,-282)" />
  </symbol>
</svg>
