<?xml version="1.0" encoding="UTF-8" standalone="no"?>
<!DOCTYPE svg PUBLIC "-//W3C//DTD SVG 1.1//EN" "http://www.w3.org/Graphics/SVG/1.1/DTD/svg11.dtd">
<svg width="100%" height="100%" viewBox="0 0 286 262" version="1.1" xmlns="http://www.w3.org/2000/svg" xmlns:xlink="http://www.w3.org/1999/xlink" xml:space="preserve" xmlns:serif="http://www.serif.com/" style="fill-rule:evenodd;clip-rule:evenodd;stroke-linejoin:round;stroke-miterlimit:1.41421;">
    <g id="mojo_sticker">
        <g id="cloud">
            <path id="Combined-Shape" d="M128.5,0C156.286,0 181.011,16.224 192.425,40.732C208.046,44.695 221.192,55.192 228.589,69.336C230.541,69.113 232.514,69 234.5,69C262.943,69 286,92.057 286,120.5C286,148.943 262.943,172 234.5,172L71,172C31.788,172 0,140.212 0,101C0,61.859 31.672,30.116 70.785,30C83.82,11.436 105.168,0 128.5,0Z" style="fill:white;fill-rule:nonzero;"/>
            <path id="Combined-Shape1" serif:id="Combined-Shape" d="M76.116,40.212C86.582,22.149 106.122,10 128.5,10C154.525,10 176.711,26.432 185.251,49.486C202.77,52.034 217.122,64.35 222.605,80.73C226.373,79.604 230.366,79 234.5,79C257.42,79 276,97.58 276,120.5C276,143.42 257.42,162 234.5,162C135.506,162 81.006,162 71,162C37.311,162 10,134.689 10,101C10,67.311 37.311,40 71,40C72.723,40 74.429,40.071 76.116,40.212Z" style="fill:white;"/>
            <clipPath id="_clip1">
                <path id="Combined-Shape2" serif:id="Combined-Shape" d="M76.116,40.212C86.582,22.149 106.122,10 128.5,10C154.525,10 176.711,26.432 185.251,49.486C202.77,52.034 217.122,64.35 222.605,80.73C226.373,79.604 230.366,79 234.5,79C257.42,79 276,97.58 276,120.5C276,143.42 257.42,162 234.5,162C135.506,162 81.006,162 71,162C37.311,162 10,134.689 10,101C10,67.311 37.311,40 71,40C72.723,40 74.429,40.071 76.116,40.212Z"/>
            </clipPath>
            <g clip-path="url(#_clip1)">
                <g id="Triangle-3" transform="matrix(1,0,0,1,9,2)">
                    <path d="M39.521,97.136L43.353,133.798L30.033,158.898L1.381,127.372L12.925,103.146L39.521,97.136Z" style="fill:rgb(220,84,77);"/>
                    <path d="M31.5,110L1.38,127.37L0.228,71.957L28.296,77.732L31.5,110Z" style="fill:rgb(176,58,94);"/>
                    <path d="M31.5,110L60.219,85.973L65.057,54.738L35.54,45.787L11.194,54.738L0.228,71.957L31.5,110Z" style="fill:rgb(190,47,106);"/>
                    <path d="M47.762,34.632L66.582,38.336L49.637,61.968L11.194,54.738L47.762,34.632Z" style="fill:rgb(175,0,114);"/>
                    <path d="M47.762,34.632L49.637,61.968L96.257,38.639L113.227,0.717L47.762,34.632Z" style="fill:rgb(193,0,119);"/>
                    <path d="M153.163,42.976L98.87,67.196L49.637,61.968L113.227,0.717L141.592,8.967L153.163,42.976Z" style="fill:rgb(220,24,125);"/>
                    <path d="M129.604,32.813L159.182,42.527L164.268,16.46L113.227,0.717L129.604,32.813Z" style="fill:rgb(208,69,102);"/>
                    <path d="M129.604,32.813L164.268,16.46L183.813,27.882L204.806,63.372L187.738,103.756L140.205,76.442L129.604,32.813Z" style="fill:rgb(237,92,100);"/>
                    <path d="M212.922,46.413L183.813,27.882L181.355,80.422L216.383,86.335L212.922,46.413Z" style="fill:rgb(239,111,96);"/>
                    <path d="M212.922,46.413L242.386,72.325L268.277,89.19L255.366,131.967L206.375,121.491L181.355,80.422L212.922,46.413Z" style="fill:rgb(253,145,85);"/>
                    <path d="M242.386,72.325L244.003,109.001L257.463,134.229L274.508,134.229L274.508,90.723L242.386,72.325Z" style="fill:rgb(254,160,89);"/>
                    <path d="M272.538,115.571L243.998,109.001L220.168,133.208L224.931,166.935L266.702,161.326L272.538,115.571Z" style="fill:rgb(255,217,45);"/>
                    <path d="M170.754,97.846L200.896,94.19L244.004,109.002L231.611,165.371L180.355,165.371L162.227,137.187L170.754,97.846Z" style="fill:rgb(255,190,45);"/>
                    <path d="M194.272,118.499L163.365,93.129L125.805,99.104L132.094,145.812L169.715,165.371L180.355,165.371L194.272,118.499Z" style="fill:rgb(255,164,52);"/>
                    <path d="M78.09,165.371L101.318,118.148L143.072,113.75L169.715,165.371L78.09,165.371Z" style="fill:rgb(254,153,76);"/>
                    <path d="M78.09,165.371L143.072,113.75L130.538,84L81.618,75.554L67.531,122.283L78.09,165.371Z" style="fill:rgb(251,122,88);"/>
                    <path d="M78.09,165.371L40.155,145.604L31.504,110L57.356,89.411L99.861,100.154L78.09,165.371Z" style="fill:rgb(238,103,95);"/>
                    <path d="M49.64,61.97L31.504,110L99.861,100.154L92.041,61.97L49.64,61.97Z" style="fill:rgb(223,72,107);"/>
                    <path d="M49.64,61.97L129.6,32.81L129.6,91.224L99.861,100.154L49.64,61.97Z" style="fill:rgb(242,49,125);"/>
                    <path d="M143.07,113.75L159.951,73.28L129.6,32.81L99.861,100.154L143.07,113.75Z" style="fill:rgb(248,96,103);"/>
                    <path d="M143.07,113.75L129.6,32.81L181.36,80.425L181.36,110.018L143.07,113.75Z" style="fill:rgb(250,107,95);"/>
                    <path d="M143.07,113.75L194.27,118.5L208.823,99.462L181.36,80.425L143.07,113.75Z" style="fill:rgb(254,143,63);"/>
                    <path d="M244.006,109.006L194.27,118.5L181.36,80.425L244.006,109.006Z" style="fill:rgb(255,160,61);"/>
                    <path d="M78.09,165.371L31.504,110L30.03,158.9L78.09,165.371Z" style="fill:rgb(225,92,85);"/>
                </g>
            </g>
        </g>
        <path id="mojolicious" d="M1.269,238.547L1.269,215.543C1.269,213.873 1.232,212.474 1.131,209.802C1.049,207.631 1.026,206.961 1.002,205.872C0.882,200.351 5.261,195.777 10.783,195.657C10.855,195.655 10.928,195.655 11,195.655L22.556,195.655C24.005,195.302 25.517,195.117 27.076,195.117C29.83,195.117 32.396,195.641 34.679,196.633C37.078,195.63 39.695,195.117 42.345,195.117C48.558,195.117 53.893,197.908 57.183,203.012C59.753,206.999 60.821,211.91 60.821,217.695L60.821,238.547C60.821,244.07 56.343,248.547 50.821,248.547L11.269,248.547C5.746,248.547 1.269,244.07 1.269,238.547ZM68.578,195.117C82.592,195.117 91.022,206.622 91.022,222C91.022,239.046 81.115,249.085 68.444,249.085C54.285,249.085 45.865,237.848 45.865,222.202C45.865,206.208 55.253,195.117 68.578,195.117ZM80.955,262C75.803,262 71.494,258.086 71.001,252.957L69.403,236.339L76.064,235.47C76.066,235.172 76.067,234.853 76.067,234.511L76.067,205.655C76.067,200.132 80.544,195.655 86.067,195.655L94.946,195.655C100.469,195.655 104.946,200.132 104.946,205.655L104.946,236.193C104.946,245.857 102.584,252.432 96.797,257.003C92.565,260.387 86.588,262 80.955,262ZM90.507,182.135C98.652,182.135 105.013,188.562 105.013,196.91C105.013,205.192 98.584,211.686 90.372,211.686C82.267,211.686 75.927,205.093 75.999,196.908C75.928,188.53 82.396,182.135 90.507,182.135ZM112.637,195.117C126.65,195.117 135.081,206.622 135.081,222C135.081,239.046 125.173,249.085 112.502,249.085C98.344,249.085 89.924,237.848 89.924,222.202C89.924,206.208 99.311,195.117 112.637,195.117ZM130.058,182L138.87,182C144.393,182 148.87,186.477 148.87,192L148.87,238.547C148.87,244.07 144.393,248.547 138.87,248.547L130.058,248.547C124.535,248.547 120.058,244.07 120.058,238.547L120.058,192C120.058,186.477 124.535,182 130.058,182ZM135.193,238.547L135.193,205.655C135.193,200.132 139.67,195.655 145.193,195.655L154.004,195.655C159.527,195.655 164.004,200.132 164.004,205.655L164.004,238.547C164.004,244.07 159.527,248.547 154.004,248.547L145.193,248.547C139.67,248.547 135.193,244.07 135.193,238.547ZM149.498,182.135C157.671,182.135 163.945,188.501 164.004,196.793C164.14,205.163 157.643,211.686 149.363,211.686C141.258,211.686 134.917,205.092 134.99,196.907C134.92,188.528 141.452,182.135 149.498,182.135ZM189.127,244.082L182.612,247.089C180.109,248.244 176.382,248.951 172.839,248.951C158.384,248.951 149.049,238.115 149.049,222.404C149.049,206.937 159.239,195.184 174.117,195.184C177.355,195.184 180.719,195.857 183.15,196.979L190.067,200.171L186.649,220.878L189.127,244.082ZM173.841,238.547L173.841,205.655C173.841,200.132 178.318,195.655 183.841,195.655L192.653,195.655C198.176,195.655 202.653,200.132 202.653,205.655L202.653,238.547C202.653,244.07 198.176,248.547 192.653,248.547L183.841,248.547C178.318,248.547 173.841,244.07 173.841,238.547ZM188.146,182.135C196.319,182.135 202.594,188.501 202.652,196.793C202.788,205.163 196.291,211.686 188.012,211.686C179.906,211.686 173.565,205.092 173.638,196.907C173.568,188.528 180.1,182.135 188.146,182.135ZM210.411,195.117C224.424,195.117 232.855,206.622 232.855,222C232.855,239.046 222.947,249.085 210.276,249.085C196.118,249.085 187.698,237.848 187.698,222.202C187.698,206.208 197.085,195.117 210.411,195.117ZM261.913,205.655L261.913,228.525C261.913,231.316 261.993,233.98 262.172,238.113C262.412,243.63 258.134,248.298 252.616,248.538C252.472,248.544 252.327,248.547 252.182,248.547L240.89,248.547C239.441,248.899 237.93,249.085 236.375,249.085C229.945,249.085 224.478,246.282 221.147,240.96C218.574,236.85 217.563,231.806 217.563,225.565L217.563,205.655C217.563,200.132 222.04,195.655 227.563,195.655L251.913,195.655C257.436,195.655 261.913,200.132 261.913,205.655ZM285.523,228.592C285.523,240.998 276.155,248.951 263.886,248.951C259.082,248.951 253.896,247.687 250.408,245.109L245.028,241.132L249.189,224.488C247.703,221.729 246.958,218.697 246.958,215.475C246.958,203.854 255.854,195.117 267.787,195.117C271.779,195.117 275.3,195.977 278.637,197.517C282.966,199.515 285.282,204.29 284.171,208.926L282.141,217.402C284.36,220.683 285.523,224.461 285.523,228.592Z" style="fill:white;fill-rule:nonzero;"/>
        <path id="mojolicious1" serif:id="mojolicious" d="M11.269,238.547L11.269,215.543C11.269,211.91 11.067,208.749 11,205.655L18.668,205.655L19.072,209.489L19.206,209.489C20.888,207 23.646,205.117 27.076,205.117C30.776,205.117 33.13,206.798 34.274,209.556L34.408,209.556C35.215,208.278 36.426,207.067 37.704,206.26C39.049,205.52 40.664,205.117 42.345,205.117C48.197,205.117 50.821,209.758 50.821,217.695L50.821,238.547L42.076,238.547L42.076,219.175C42.076,215.408 41.673,212.381 38.982,212.381C37.435,212.381 36.291,213.457 35.686,215.408C35.552,215.879 35.417,216.821 35.417,217.695L35.417,238.547L26.673,238.547L26.673,217.897C26.673,215.543 26.404,212.381 23.646,212.381C22.3,212.381 20.955,213.39 20.35,215.341C20.148,215.946 20.013,216.888 20.013,217.83L20.013,238.547L11.269,238.547ZM68.578,205.117C76.314,205.117 81.022,211.641 81.022,222C81.022,235.722 73.422,239.085 68.444,239.085C60.574,239.085 55.865,232.897 55.865,222.202C55.865,210.363 62.054,205.117 68.578,205.117ZM68.511,211.776C65.283,211.776 64.61,217.493 64.61,222C64.61,227.65 65.484,232.359 68.646,232.359C71.471,232.359 72.211,226.843 72.211,222C72.211,217.493 71.471,211.776 68.511,211.776ZM80.955,252L80.283,245.004C81.83,244.803 83.511,244.466 84.587,243.256C85.865,241.91 86.067,239.556 86.067,234.511L86.067,205.655L94.946,205.655L94.946,236.193C94.946,243.525 93.399,246.955 90.574,249.175C88.152,251.126 84.117,252 80.955,252ZM90.507,192.135C92.996,192.135 95.013,193.951 95.013,196.91C95.013,199.735 92.996,201.686 90.372,201.686C87.951,201.686 85.933,199.735 86,196.91C85.933,193.951 88.018,192.135 90.507,192.135ZM112.637,205.117C120.372,205.117 125.081,211.641 125.081,222C125.081,235.722 117.48,239.085 112.502,239.085C104.632,239.085 99.924,232.897 99.924,222.202C99.924,210.363 106.112,205.117 112.637,205.117ZM112.57,211.776C109.341,211.776 108.668,217.493 108.668,222C108.668,227.65 109.543,232.359 112.704,232.359C115.529,232.359 116.269,226.843 116.269,222C116.269,217.493 115.529,211.776 112.57,211.776ZM130.058,238.547L130.058,192L138.87,192L138.87,238.547L130.058,238.547ZM154.004,238.547L145.193,238.547L145.193,205.655L154.004,205.655L154.004,238.547ZM149.498,192.135C152.054,192.135 154.004,193.951 154.004,196.91C154.072,199.735 152.054,201.686 149.363,201.686C146.942,201.686 144.924,199.735 144.991,196.91C144.924,193.951 147.076,192.135 149.498,192.135ZM177.682,231.081L178.422,238.009C177.547,238.413 175.327,238.951 172.839,238.951C164.498,238.951 159.049,233.166 159.049,222.404C159.049,212.247 165.036,205.184 174.117,205.184C176.202,205.184 178.085,205.655 178.96,206.058L177.816,212.987C177.076,212.717 176,212.381 174.52,212.381C170.283,212.381 167.794,216.417 167.794,222.135C167.794,228.121 170.283,231.753 174.386,231.753C175.664,231.753 176.74,231.552 177.682,231.081ZM192.653,238.547L183.841,238.547L183.841,205.655L192.653,205.655L192.653,238.547ZM188.146,192.135C190.702,192.135 192.653,193.951 192.653,196.91C192.72,199.735 190.702,201.686 188.012,201.686C185.59,201.686 183.572,199.735 183.639,196.91C183.572,193.951 185.725,192.135 188.146,192.135ZM210.411,205.117C218.146,205.117 222.855,211.641 222.855,222C222.855,235.722 215.254,239.085 210.276,239.085C202.406,239.085 197.698,232.897 197.698,222.202C197.698,210.363 203.886,205.117 210.411,205.117ZM210.343,211.776C207.115,211.776 206.442,217.493 206.442,222C206.442,227.65 207.316,232.359 210.478,232.359C213.303,232.359 214.043,226.843 214.043,222C214.043,217.493 213.303,211.776 210.343,211.776ZM251.913,205.655L251.913,228.525C251.913,232.022 252.047,235.453 252.182,238.547L244.581,238.547L244.11,235.049L243.976,235.049C242.429,237.269 239.738,239.085 236.375,239.085C230.119,239.085 227.563,234.444 227.563,225.565L227.563,205.655L236.442,205.655L236.442,224.623C236.442,228.928 237.249,231.686 239.738,231.686C241.218,231.686 242.16,230.543 242.563,229.466C242.899,228.794 243.101,227.785 243.101,226.641L243.101,205.655L251.913,205.655ZM256.352,237.067L257.967,230.61C259.245,231.417 261.666,232.359 263.886,232.359C266.173,232.359 267.451,231.35 267.451,229.399C267.451,227.717 266.509,226.641 263.617,224.96C258.236,221.933 256.958,218.502 256.958,215.475C256.958,209.556 261.195,205.117 267.787,205.117C270.545,205.117 272.698,205.789 274.447,206.596L272.899,213.054C271.621,212.314 270.074,211.709 268.325,211.709C266.106,211.709 265.029,213.054 265.029,214.534C265.029,216.013 265.769,216.821 268.864,218.637C273.707,221.395 275.523,224.825 275.523,228.592C275.523,235.318 270.68,238.951 263.886,238.951C261.128,238.951 257.899,238.211 256.352,237.067Z" style="fill:rgb(68,68,68);"/>
    </g>
</svg>
