<?xml version="1.0" encoding="UTF-8" standalone="no"?>
<svg
   width="48mm"
   height="43.972031mm"
   viewBox="0 0 181.41732 166.1935"
   version="1.1"
   xml:space="preserve"
   style="clip-rule:evenodd;fill-rule:evenodd;stroke-linejoin:round;stroke-miterlimit:1.41421"
   id="svg24"
   sodipodi:docname="mojo_sticker.svg"
   inkscape:version="1.4.2 (2aeb623e1d, 2025-05-12)"
   xmlns:inkscape="http://www.inkscape.org/namespaces/inkscape"
   xmlns:sodipodi="http://sodipodi.sourceforge.net/DTD/sodipodi-0.dtd"
   xmlns="http://www.w3.org/2000/svg"
   xmlns:svg="http://www.w3.org/2000/svg"
   xmlns:serif="http://www.serif.com/"><defs
   id="defs24" /><sodipodi:namedview
   id="namedview24"
   pagecolor="#aeaeae"
   bordercolor="#000000"
   borderopacity="0.25"
   inkscape:showpageshadow="2"
   inkscape:pageopacity="0.0"
   inkscape:pagecheckerboard="0"
   inkscape:deskcolor="#d1d1d1"
   showgrid="false"
   inkscape:zoom="1.435845"
   inkscape:cx="75.217032"
   inkscape:cy="112.82555"
   inkscape:window-width="1920"
   inkscape:window-height="1060"
   inkscape:window-x="0"
   inkscape:window-y="0"
   inkscape:window-maximized="1"
   inkscape:current-layer="svg24"
   inkscape:document-units="mm" />
    <g
   id="g25"
   transform="scale(0.6343263)"><g
     id="mojo_sticker">
        <g
   id="cloud">
            <path
   id="Combined-Shape"
   d="m 128.5,0 c 27.786,0 52.511,16.224 63.925,40.732 15.621,3.963 28.767,14.46 36.164,28.604 C 230.541,69.113 232.514,69 234.5,69 262.943,69 286,92.057 286,120.5 286,148.943 262.943,172 234.5,172 H 71 C 31.788,172 0,140.212 0,101 0,61.859 31.672,30.116 70.785,30 83.82,11.436 105.168,0 128.5,0 Z"
   style="fill:#ffffff;fill-rule:nonzero" />
            <path
   id="Combined-Shape1"
   serif:id="Combined-Shape"
   d="M 76.116,40.212 C 86.582,22.149 106.122,10 128.5,10 c 26.025,0 48.211,16.432 56.751,39.486 17.519,2.548 31.871,14.864 37.354,31.244 3.768,-1.126 7.761,-1.73 11.895,-1.73 22.92,0 41.5,18.58 41.5,41.5 0,22.92 -18.58,41.5 -41.5,41.5 -98.994,0 -153.494,0 -163.5,0 -33.689,0 -61,-27.311 -61,-61 0,-33.689 27.311,-61 61,-61 1.723,0 3.429,0.071 5.116,0.212 z"
   style="fill:#ffffff" />
            <clipPath
   id="_clip1">
                <path
   id="Combined-Shape2"
   serif:id="Combined-Shape"
   d="M 76.116,40.212 C 86.582,22.149 106.122,10 128.5,10 c 26.025,0 48.211,16.432 56.751,39.486 17.519,2.548 31.871,14.864 37.354,31.244 3.768,-1.126 7.761,-1.73 11.895,-1.73 22.92,0 41.5,18.58 41.5,41.5 0,22.92 -18.58,41.5 -41.5,41.5 -98.994,0 -153.494,0 -163.5,0 -33.689,0 -61,-27.311 -61,-61 0,-33.689 27.311,-61 61,-61 1.723,0 3.429,0.071 5.116,0.212 z" />
            </clipPath>
            <g
   clip-path="url(#_clip1)"
   id="g24">
                <g
   id="Triangle-3"
   transform="translate(9,2)">
                    <path
   d="m 39.521,97.136 3.832,36.662 -13.32,25.1 -28.652,-31.526 11.544,-24.226 z"
   style="fill:#dc544d"
   id="path1" />
                    <path
   d="M 31.5,110 1.38,127.37 0.228,71.957 28.296,77.732 Z"
   style="fill:#b03a5e"
   id="path2" />
                    <path
   d="M 31.5,110 60.219,85.973 65.057,54.738 35.54,45.787 11.194,54.738 0.228,71.957 Z"
   style="fill:#be2f6a"
   id="path3" />
                    <path
   d="m 47.762,34.632 18.82,3.704 -16.945,23.632 -38.443,-7.23 z"
   style="fill:#af0072"
   id="path4" />
                    <path
   d="m 47.762,34.632 1.875,27.336 46.62,-23.329 16.97,-37.922 z"
   style="fill:#c10077"
   id="path5" />
                    <path
   d="M 153.163,42.976 98.87,67.196 49.637,61.968 113.227,0.717 141.592,8.967 Z"
   style="fill:#dc187d"
   id="path6" />
                    <path
   d="M 129.604,32.813 159.182,42.527 164.268,16.46 113.227,0.717 Z"
   style="fill:#d04566"
   id="path7" />
                    <path
   d="m 129.604,32.813 34.664,-16.353 19.545,11.422 20.993,35.49 -17.068,40.384 -47.533,-27.314 z"
   style="fill:#ed5c64"
   id="path8" />
                    <path
   d="m 212.922,46.413 -29.109,-18.531 -2.458,52.54 35.028,5.913 z"
   style="fill:#ef6f60"
   id="path9" />
                    <path
   d="m 212.922,46.413 29.464,25.912 25.891,16.865 -12.911,42.777 -48.991,-10.476 -25.02,-41.069 z"
   style="fill:#fd9155"
   id="path10" />
                    <path
   d="m 242.386,72.325 1.617,36.676 13.46,25.228 h 17.045 V 90.723 Z"
   style="fill:#fea059"
   id="path11" />
                    <path
   d="m 272.538,115.571 -28.54,-6.57 -23.83,24.207 4.763,33.727 41.771,-5.609 z"
   style="fill:#ffd92d"
   id="path12" />
                    <path
   d="m 170.754,97.846 30.142,-3.656 43.108,14.812 -12.393,56.369 h -51.256 l -18.128,-28.184 z"
   style="fill:#ffbe2d"
   id="path13" />
                    <path
   d="m 194.272,118.499 -30.907,-25.37 -37.56,5.975 6.289,46.708 37.621,19.559 h 10.64 z"
   style="fill:#ffa434"
   id="path14" />
                    <path
   d="m 78.09,165.371 23.228,-47.223 41.754,-4.398 26.643,51.621 z"
   style="fill:#fe994c"
   id="path15" />
                    <path
   d="M 78.09,165.371 143.072,113.75 130.538,84 81.618,75.554 67.531,122.283 Z"
   style="fill:#fb7a58"
   id="path16" />
                    <path
   d="M 78.09,165.371 40.155,145.604 31.504,110 57.356,89.411 99.861,100.154 Z"
   style="fill:#ee675f"
   id="path17" />
                    <path
   d="M 49.64,61.97 31.504,110 99.861,100.154 92.041,61.97 Z"
   style="fill:#df486b"
   id="path18" />
                    <path
   d="M 49.64,61.97 129.6,32.81 v 58.414 l -29.739,8.93 z"
   style="fill:#f2317d"
   id="path19" />
                    <path
   d="M 143.07,113.75 159.951,73.28 129.6,32.81 99.861,100.154 Z"
   style="fill:#f86067"
   id="path20" />
                    <path
   d="M 143.07,113.75 129.6,32.81 181.36,80.425 v 29.593 z"
   style="fill:#fa6b5f"
   id="path21" />
                    <path
   d="m 143.07,113.75 51.2,4.75 14.553,-19.038 -27.463,-19.037 z"
   style="fill:#fe8f3f"
   id="path22" />
                    <path
   d="M 244.006,109.006 194.27,118.5 181.36,80.425 Z"
   style="fill:#ffa03d"
   id="path23" />
                    <path
   d="M 78.09,165.371 31.504,110 30.03,158.9 Z"
   style="fill:#e15c55"
   id="path24" />
                </g>
            </g>
        </g>
        <path
   id="mojolicious"
   d="m 1.269,238.547 v -23.004 c 0,-1.67 -0.037,-3.069 -0.138,-5.741 -0.082,-2.171 -0.105,-2.841 -0.129,-3.93 -0.12,-5.521 4.259,-10.095 9.781,-10.215 0.072,-0.002 0.145,-0.002 0.217,-0.002 h 11.556 c 1.449,-0.353 2.961,-0.538 4.52,-0.538 2.754,0 5.32,0.524 7.603,1.516 2.399,-1.003 5.016,-1.516 7.666,-1.516 6.213,0 11.548,2.791 14.838,7.895 2.57,3.987 3.638,8.898 3.638,14.683 v 20.852 c 0,5.523 -4.478,10 -10,10 H 11.269 c -5.523,0 -10,-4.477 -10,-10 z m 67.309,-43.43 c 14.014,0 22.444,11.505 22.444,26.883 0,17.046 -9.907,27.085 -22.578,27.085 -14.159,0 -22.579,-11.237 -22.579,-26.883 0,-15.994 9.388,-27.085 22.713,-27.085 z M 80.955,262 c -5.152,0 -9.461,-3.914 -9.954,-9.043 l -1.598,-16.618 6.661,-0.869 c 0.002,-0.298 0.003,-0.617 0.003,-0.959 v -28.856 c 0,-5.523 4.477,-10 10,-10 h 8.879 c 5.523,0 10,4.477 10,10 v 30.538 c 0,9.664 -2.362,16.239 -8.149,20.81 C 92.565,260.387 86.588,262 80.955,262 Z m 9.552,-79.865 c 8.145,0 14.506,6.427 14.506,14.775 0,8.282 -6.429,14.776 -14.641,14.776 -8.105,0 -14.445,-6.593 -14.373,-14.778 -0.071,-8.378 6.397,-14.773 14.508,-14.773 z m 22.13,12.982 c 14.013,0 22.444,11.505 22.444,26.883 0,17.046 -9.908,27.085 -22.579,27.085 -14.158,0 -22.578,-11.237 -22.578,-26.883 0,-15.994 9.387,-27.085 22.713,-27.085 z M 130.058,182 h 8.812 c 5.523,0 10,4.477 10,10 v 46.547 c 0,5.523 -4.477,10 -10,10 h -8.812 c -5.523,0 -10,-4.477 -10,-10 V 192 c 0,-5.523 4.477,-10 10,-10 z m 5.135,56.547 v -32.892 c 0,-5.523 4.477,-10 10,-10 h 8.811 c 5.523,0 10,4.477 10,10 v 32.892 c 0,5.523 -4.477,10 -10,10 h -8.811 c -5.523,0 -10,-4.477 -10,-10 z m 14.305,-56.412 c 8.173,0 14.447,6.366 14.506,14.658 0.136,8.37 -6.361,14.893 -14.641,14.893 -8.105,0 -14.446,-6.594 -14.373,-14.779 -0.07,-8.379 6.462,-14.772 14.508,-14.772 z m 39.629,61.947 -6.515,3.007 c -2.503,1.155 -6.23,1.862 -9.773,1.862 -14.455,0 -23.79,-10.836 -23.79,-26.547 0,-15.467 10.19,-27.22 25.068,-27.22 3.238,0 6.602,0.673 9.033,1.795 l 6.917,3.192 -3.418,20.707 z m -15.286,-5.535 v -32.892 c 0,-5.523 4.477,-10 10,-10 h 8.812 c 5.523,0 10,4.477 10,10 v 32.892 c 0,5.523 -4.477,10 -10,10 h -8.812 c -5.523,0 -10,-4.477 -10,-10 z m 14.305,-56.412 c 8.173,0 14.448,6.366 14.506,14.658 0.136,8.37 -6.361,14.893 -14.64,14.893 -8.106,0 -14.447,-6.594 -14.374,-14.779 -0.07,-8.379 6.462,-14.772 14.508,-14.772 z m 22.265,12.982 c 14.013,0 22.444,11.505 22.444,26.883 0,17.046 -9.908,27.085 -22.579,27.085 -14.158,0 -22.578,-11.237 -22.578,-26.883 0,-15.994 9.387,-27.085 22.713,-27.085 z m 51.502,10.538 v 22.87 c 0,2.791 0.08,5.455 0.259,9.588 0.24,5.517 -4.038,10.185 -9.556,10.425 -0.144,0.006 -0.289,0.009 -0.434,0.009 H 240.89 c -1.449,0.352 -2.96,0.538 -4.515,0.538 -6.43,0 -11.897,-2.803 -15.228,-8.125 -2.573,-4.11 -3.584,-9.154 -3.584,-15.395 v -19.91 c 0,-5.523 4.477,-10 10,-10 h 24.35 c 5.523,0 10,4.477 10,10 z m 23.61,22.937 c 0,12.406 -9.368,20.359 -21.637,20.359 -4.804,0 -9.99,-1.264 -13.478,-3.842 l -5.38,-3.977 4.161,-16.644 c -1.486,-2.759 -2.231,-5.791 -2.231,-9.013 0,-11.621 8.896,-20.358 20.829,-20.358 3.992,0 7.513,0.86 10.85,2.4 4.329,1.998 6.645,6.773 5.534,11.409 l -2.03,8.476 c 2.219,3.281 3.382,7.059 3.382,11.19 z"
   style="fill:#ffffff;fill-rule:nonzero" />
        <path
   id="mojolicious1"
   serif:id="mojolicious"
   d="m 11.269,238.547 v -23.004 c 0,-3.633 -0.202,-6.794 -0.269,-9.888 h 7.668 l 0.404,3.834 h 0.134 c 1.682,-2.489 4.44,-4.372 7.87,-4.372 3.7,0 6.054,1.681 7.198,4.439 h 0.134 c 0.807,-1.278 2.018,-2.489 3.296,-3.296 1.345,-0.74 2.96,-1.143 4.641,-1.143 5.852,0 8.476,4.641 8.476,12.578 v 20.852 h -8.745 v -19.372 c 0,-3.767 -0.403,-6.794 -3.094,-6.794 -1.547,0 -2.691,1.076 -3.296,3.027 -0.134,0.471 -0.269,1.413 -0.269,2.287 v 20.852 h -8.744 v -20.65 c 0,-2.354 -0.269,-5.516 -3.027,-5.516 -1.346,0 -2.691,1.009 -3.296,2.96 -0.202,0.605 -0.337,1.547 -0.337,2.489 v 20.717 z m 57.309,-33.43 c 7.736,0 12.444,6.524 12.444,16.883 0,13.722 -7.6,17.085 -12.578,17.085 -7.87,0 -12.579,-6.188 -12.579,-16.883 0,-11.839 6.189,-17.085 12.713,-17.085 z m -0.067,6.659 c -3.228,0 -3.901,5.717 -3.901,10.224 0,5.65 0.874,10.359 4.036,10.359 2.825,0 3.565,-5.516 3.565,-10.359 0,-4.507 -0.74,-10.224 -3.7,-10.224 z M 80.955,252 80.283,245.004 c 1.547,-0.201 3.228,-0.538 4.304,-1.748 1.278,-1.346 1.48,-3.7 1.48,-8.745 v -28.856 h 8.879 v 30.538 c 0,7.332 -1.547,10.762 -4.372,12.982 -2.422,1.951 -6.457,2.825 -9.619,2.825 z m 9.552,-59.865 c 2.489,0 4.506,1.816 4.506,4.775 0,2.825 -2.017,4.776 -4.641,4.776 -2.421,0 -4.439,-1.951 -4.372,-4.776 -0.067,-2.959 2.018,-4.775 4.507,-4.775 z m 22.13,12.982 c 7.735,0 12.444,6.524 12.444,16.883 0,13.722 -7.601,17.085 -12.579,17.085 -7.87,0 -12.578,-6.188 -12.578,-16.883 0,-11.839 6.188,-17.085 12.713,-17.085 z m -0.067,6.659 c -3.229,0 -3.902,5.717 -3.902,10.224 0,5.65 0.875,10.359 4.036,10.359 2.825,0 3.565,-5.516 3.565,-10.359 0,-4.507 -0.74,-10.224 -3.699,-10.224 z m 17.488,26.771 V 192 h 8.812 v 46.547 z m 23.946,0 h -8.811 v -32.892 h 8.811 z m -4.506,-46.412 c 2.556,0 4.506,1.816 4.506,4.775 0.068,2.825 -1.95,4.776 -4.641,4.776 -2.421,0 -4.439,-1.951 -4.372,-4.776 -0.067,-2.959 2.085,-4.775 4.507,-4.775 z m 28.184,38.946 0.74,6.928 c -0.875,0.404 -3.095,0.942 -5.583,0.942 -8.341,0 -13.79,-5.785 -13.79,-16.547 0,-10.157 5.987,-17.22 15.068,-17.22 2.085,0 3.968,0.471 4.843,0.874 l -1.144,6.929 c -0.74,-0.27 -1.816,-0.606 -3.296,-0.606 -4.237,0 -6.726,4.036 -6.726,9.754 0,5.986 2.489,9.618 6.592,9.618 1.278,0 2.354,-0.201 3.296,-0.672 z m 14.971,7.466 h -8.812 v -32.892 h 8.812 z m -4.507,-46.412 c 2.556,0 4.507,1.816 4.507,4.775 0.067,2.825 -1.951,4.776 -4.641,4.776 -2.422,0 -4.44,-1.951 -4.373,-4.776 -0.067,-2.959 2.086,-4.775 4.507,-4.775 z m 22.265,12.982 c 7.735,0 12.444,6.524 12.444,16.883 0,13.722 -7.601,17.085 -12.579,17.085 -7.87,0 -12.578,-6.188 -12.578,-16.883 0,-11.839 6.188,-17.085 12.713,-17.085 z m -0.068,6.659 c -3.228,0 -3.901,5.717 -3.901,10.224 0,5.65 0.874,10.359 4.036,10.359 2.825,0 3.565,-5.516 3.565,-10.359 0,-4.507 -0.74,-10.224 -3.7,-10.224 z m 41.57,-6.121 v 22.87 c 0,3.497 0.134,6.928 0.269,10.022 h -7.601 l -0.471,-3.498 h -0.134 c -1.547,2.22 -4.238,4.036 -7.601,4.036 -6.256,0 -8.812,-4.641 -8.812,-13.52 v -19.91 h 8.879 v 18.968 c 0,4.305 0.807,7.063 3.296,7.063 1.48,0 2.422,-1.143 2.825,-2.22 0.336,-0.672 0.538,-1.681 0.538,-2.825 v -20.986 z m 4.439,31.412 1.615,-6.457 c 1.278,0.807 3.699,1.749 5.919,1.749 2.287,0 3.565,-1.009 3.565,-2.96 0,-1.682 -0.942,-2.758 -3.834,-4.439 -5.381,-3.027 -6.659,-6.458 -6.659,-9.485 0,-5.919 4.237,-10.358 10.829,-10.358 2.758,0 4.911,0.672 6.66,1.479 l -1.548,6.458 c -1.278,-0.74 -2.825,-1.345 -4.574,-1.345 -2.219,0 -3.296,1.345 -3.296,2.825 0,1.479 0.74,2.287 3.835,4.103 4.843,2.758 6.659,6.188 6.659,9.955 0,6.726 -4.843,10.359 -11.637,10.359 -2.758,0 -5.987,-0.74 -7.534,-1.884 z"
   style="fill:#444444" />
    </g></g>
</svg>
