<?xml version="1.0" encoding="UTF-8" standalone="no"?>
<!-- Created with Inkscape (http://www.inkscape.org/) -->

<svg
   width="82.073555mm"
   height="157.00386mm"
   viewBox="0 0 82.073555 157.00386"
   version="1.1"
   id="svg1"
   xml:space="preserve"
   inkscape:version="1.4.2 (2aeb623e1d, 2025-05-12)"
   sodipodi:docname="if-they-want-you-to-not-think-sign.svg"
   inkscape:export-filename="../7e95b8fb/if-they-want-you-to-not-think-sign.png"
   inkscape:export-xdpi="198.06624"
   inkscape:export-ydpi="198.06624"
   xmlns:inkscape="http://www.inkscape.org/namespaces/inkscape"
   xmlns:sodipodi="http://sodipodi.sourceforge.net/DTD/sodipodi-0.dtd"
   xmlns="http://www.w3.org/2000/svg"
   xmlns:svg="http://www.w3.org/2000/svg"><sodipodi:namedview
     id="namedview1"
     pagecolor="#ffffff"
     bordercolor="#111111"
     borderopacity="1"
     inkscape:showpageshadow="0"
     inkscape:pageopacity="0"
     inkscape:pagecheckerboard="1"
     inkscape:deskcolor="#d1d1d1"
     inkscape:document-units="mm"
     inkscape:zoom="1"
     inkscape:cx="-130.5"
     inkscape:cy="219.49999"
     inkscape:window-width="2494"
     inkscape:window-height="1369"
     inkscape:window-x="66"
     inkscape:window-y="32"
     inkscape:window-maximized="1"
     inkscape:current-layer="layer1"
     showguides="true"><sodipodi:guide
       position="72.628126,22.330948"
       orientation="1,0"
       id="guide2"
       inkscape:locked="false" /><sodipodi:guide
       position="9.4588543,38.867407"
       orientation="1,0"
       id="guide3"
       inkscape:locked="false" /></sodipodi:namedview><defs
     id="defs1"><rect
   x="672.50793"
   y="247.87302"
   width="390.60202"
   height="344.57007"
   id="rect16" />
	
	
	
	
	

	
	
	

	
		<radialGradient
   id="face_1_"
   cx="63.599998"
   cy="1104.9"
   r="56.959702"
   gradientTransform="translate(0,-1042)"
   gradientUnits="userSpaceOnUse">
		<stop
   offset="0.5"
   style="stop-color:#FDE030"
   id="stop1" />
		<stop
   offset="0.92"
   style="stop-color:#F7C02B"
   id="stop2" />
		<stop
   offset="1"
   style="stop-color:#F4A223"
   id="stop3" />
	</radialGradient>
	
	
		<linearGradient
   id="face-2_1_"
   gradientUnits="userSpaceOnUse"
   x1="63.599998"
   y1="1160.8"
   x2="63.599998"
   y2="1049"
   gradientTransform="translate(0,-1042)">
		<stop
   offset="0"
   style="stop-color:#F4A223"
   id="stop4" />
		<stop
   offset="0.08"
   style="stop-color:#F7C02B"
   id="stop5" />
		<stop
   offset="0.54"
   style="stop-color:#FDE030;stop-opacity:0"
   id="stop6" />
	</linearGradient>
	
	

		
	
		
		
	
		
	
		
			<radialGradient
   id="prop_1_"
   cx="41.450001"
   cy="25.006201"
   r="59.4319"
   gradientTransform="matrix(1,0,0,-0.94,0,107.02)"
   gradientUnits="userSpaceOnUse">
			<stop
   offset="0.27"
   style="stop-color:#FFF176"
   id="stop7" />
			<stop
   offset="1"
   style="stop-color:#FFC400"
   id="stop8" />
		</radialGradient>
		
		
	
			
		
			
		
			
			
		</defs><g
     inkscape:label="Layer 1"
     inkscape:groupmode="layer"
     id="layer1"
     transform="translate(-82.669889,-55.849821)"><text
       xml:space="preserve"
       id="text16"
       style="font-style:normal;font-variant:normal;font-weight:bold;font-stretch:normal;font-size:42.6667px;line-height:1.25;font-family:Arial;-inkscape-font-specification:'Arial, Bold';font-variant-ligatures:none;font-variant-caps:normal;font-variant-numeric:normal;font-variant-east-asian:normal;text-align:center;white-space:pre;shape-inside:url(#rect16);display:inline"
       transform="matrix(0.2043595,0,0,0.2043595,-54.37046,89.409642)" /><polygon
       class="st0"
       points="329.2,555.2 329.2,82.8 343.8,73.3 622.2,73.3 631.6,87 631.6,557.8 622.2,565.6 337.9,565.6 "
       id="polygon1"
       transform="matrix(0.26458333,0,0,0.31335633,-3.4273489,33.867147)"
       style="fill:#ffffff;fill-opacity:1" /><g
       id="g3"
       transform="translate(-0.68415599,-0.38885019)"><path
         style="baseline-shift:baseline;display:inline;overflow:visible;vector-effect:none;fill:#e5e5e5;fill-opacity:1;stroke-width:0.356586;enable-background:accumulate;stop-color:#000000"
         d="m 126.91249,114.84206 c -9.94875,0 -20.68199,-6.24025 -20.68199,-19.933159 0,-13.692905 10.73324,-19.933162 20.68199,-19.933162 5.52709,0 10.62627,1.818589 14.40608,5.13484 4.10074,3.637178 6.27592,8.772017 6.27592,14.798322 0,6.026309 -2.17518,11.125489 -6.27592,14.762659 -3.77981,3.31625 -8.91465,5.1705 -14.40608,5.1705 z"
         id="path5"
         sodipodi:nodetypes="ssscscs" /><path
         style="baseline-shift:baseline;display:inline;overflow:visible;vector-effect:none;stroke-width:0.356586;enable-background:accumulate;stop-color:#000000"
         d="m 126.91235,74.797446 c -5.01165,0 -10.22081,1.57001 -14.18543,4.873111 -3.96463,3.303102 -6.67485,8.345445 -6.67485,15.238483 0,6.89304 2.71022,11.93538 6.67485,15.23848 3.96462,3.3031 9.17378,4.87311 14.18543,4.87311 5.53157,0 10.7087,-1.86775 14.52392,-5.21507 l 7.2e-4,-7.1e-4 c 4.13921,-3.6713 6.33567,-8.82662 6.33567,-14.895828 0,-6.069207 -2.19603,-11.260356 -6.33567,-14.932041 h -7.2e-4 v -7.13e-4 c -3.81528,-3.347332 -8.95772,-5.178822 -14.52392,-5.178822 z m 0,0.356587 c 5.48798,0 10.54417,1.80527 14.28852,5.090405 4.06135,3.602631 6.21518,8.681565 6.21518,14.664602 0,5.9834 -2.15361,11.02603 -6.21588,14.62908 -3.74433,3.28478 -8.83688,5.12593 -14.28782,5.12593 -4.93709,0 -10.06851,-1.55068 -13.95769,-4.79093 -3.88919,-3.24025 -6.546,-8.16421 -6.546,-14.96408 0,-6.799867 2.65681,-11.724522 6.546,-14.964775 3.88918,-3.240253 9.0206,-4.790232 13.95769,-4.790232 z"
         id="path6" /><path
         style="fill:#808080;fill-opacity:1;stroke-width:0.356586"
         d="m 143.81401,82.993402 c 1.90061,3.06664 2.89192,6.718081 2.89192,10.779597 0,6.026304 -2.17518,11.125481 -6.27592,14.762681 -3.77982,3.31625 -8.91466,5.1705 -14.40609,5.1705 -6.43994,0 -13.19368,-2.62091 -17.18031,-8.1801 3.83686,6.29732 11.05417,9.24986 17.89349,9.24986 5.49142,0 10.62626,-1.85425 14.40608,-5.1705 4.10074,-3.6372 6.27592,-8.73638 6.27592,-14.762683 0,-4.542907 -1.23735,-8.579461 -3.60509,-11.849355 z"
         id="path6-9"
         sodipodi:nodetypes="cscscscsc" /><path
         style="baseline-shift:baseline;display:inline;overflow:visible;vector-effect:none;stroke-width:0.356586;enable-background:accumulate;stop-color:#000000"
         d="m 126.91235,74.475683 c -5.07891,0 -10.35891,1.58783 -14.39159,4.947632 -4.03267,3.359802 -6.79045,8.50863 -6.79045,15.485725 0,6.9771 2.75778,12.12592 6.79045,15.48573 4.03268,3.3598 9.31268,4.94763 14.39159,4.94763 5.60398,0 10.85654,-1.8918 14.73565,-5.29517 l 0.001,-7.1e-4 7.2e-4,-7.1e-4 c 4.20863,-3.73287 6.44431,-8.99018 6.44431,-15.136802 0,-6.14662 -2.23447,-11.43837 -6.44431,-15.17232 l -7.2e-4,-0.0014 -0.001,-7.13e-4 c -3.87928,-3.403464 -9.09889,-5.258902 -14.73565,-5.258902 z m 0,1.000113 c 5.41741,0 10.39644,1.781322 14.0768,5.010313 3.99043,3.540303 6.10514,8.51786 6.10514,14.422931 0,5.90599 -2.11439,10.84732 -6.10723,14.3888 -3.68032,3.22793 -8.69691,5.04445 -14.07471,5.04445 -4.86983,0 -9.93041,-1.53286 -13.75154,-4.71641 -3.82113,-3.18356 -6.43039,-8.00103 -6.43039,-14.71684 0,-6.71581 2.60926,-11.533981 6.43039,-14.717533 3.82113,-3.183552 8.88171,-4.715711 13.75154,-4.715711 z"
         id="face-2-8" /><path
         style="fill:#bfbfbf;fill-opacity:1;stroke-width:0.356586"
         d="m 110.88038,101.76605 c 0,0 1.72232,2.80277 5.51639,0.77023 0,0 -2.32851,2.44261 -4.13996,1.97548 -1.81146,-0.46712 -1.37643,-2.74571 -1.37643,-2.74571 z"
         id="path9"
         sodipodi:nodetypes="ccsc" /><path
         style="fill:#bebebe;fill-opacity:1;stroke-width:0.356586"
         d="m 121.70634,106.54787 c 0,0 0.8772,-1.88277 2.4747,-2.44261 0,0 -2.59594,0.22108 -3.58369,1.28727 z"
         id="path10" /><path
         id="prop"
         style="fill:#e5e5e5;fill-opacity:1;stroke:none;stroke-width:0.356586;stroke-opacity:1"
         d="m 106.50151,99.259251 c -0.64899,0.788059 0.731,2.881219 0.97704,3.947409 0.59194,2.57455 0,3.20927 -0.0464,5.49856 -0.0392,2.51749 0.71317,4.63561 2.6316,5.98708 1.80433,1.28014 3.9795,1.93626 6.76087,1.11611 2.78138,-0.82015 4.47159,-1.72588 4.61423,-3.09517 0.0784,-0.56697 -0.22109,-1.12324 -0.7417,-1.36572 0.27814,-0.13194 0.49922,-0.35659 0.62402,-0.63829 0.66325,-1.58324 -0.65968,-1.91843 -0.65968,-1.91843 0.18186,-0.21752 0.33519,-0.45643 0.45643,-0.71318 0.39581,-0.78805 0.33163,-1.85781 -0.80945,-2.20726 -0.52418,-0.16047 -0.66682,-0.0749 -0.66682,-0.0749 0.54201,-0.55627 1.191,-1.002 1.90774,-1.30154 1.91843,-0.82371 4.19345,-1.32293 4.76042,-1.80432 0.82372,-0.71317 0.87364,-2.08603 -0.58123,-2.4961 -2.0896,-0.613332 -5.93359,0.81301 -8.2728,2.29998 -2.3392,1.48696 -4.48585,2.28928 -5.19902,2.01827 -0.71318,-0.271 -1.15534,-0.71317 -1.42635,-1.78293 -0.50278,-1.98975 -0.89146,-2.759973 -1.7437,-3.505238 -0.70604,-0.606196 -2.08603,-0.570537 -2.58525,0.03566 z"
         sodipodi:nodetypes="ccccsccccccccccsccccc" /><path
         style="fill:#000000;stroke:none;stroke-width:0.356586"
         d="m 127.12288,101.14203 c -0.23891,-3.266333 -6.67173,-1.248056 -9.95588,0.90216 -4.08291,2.67439 -4.68198,2.20013 -5.08135,1.95052 -0.4814,-0.29953 -0.78449,-0.54914 -1.01984,-1.47626 -0.53131,-2.09673 -0.67751,-2.866954 -1.63317,-3.701366 -0.79875,-0.738133 -3.2057,-0.720304 -3.36617,0.449299 -0.17472,1.258747 0.53845,1.494097 1.01984,3.915317 0.5955,2.45331 0.35658,5.16336 0.35658,5.16336 0,0 1.11255,-2.58525 0.0428,-6.61467 -0.21751,-1.08759 -1.25161,-2.752842 0.49566,-2.563852 1.69022,0.181859 1.80076,1.654562 2.32851,3.690662 0.2924,1.15178 0.59193,1.82929 1.7544,2.15022 1.15534,0.31736 3.82617,-1.16604 5.7446,-2.38556 2.3499,-1.4941 5.83375,-2.799203 7.66304,-2.26432 0.79162,0.17116 1.31936,1.19456 0.48852,1.91843 -1.31937,1.24448 -6.39359,1.80432 -9.44953,5.10988 0,0 0.37085,0.1355 0.92712,-0.13907 0.55984,-0.27457 2.64944,-1.30867 2.64944,-1.30867 0.62402,0.26387 0.92355,1.30154 0.5848,1.85425 -0.54914,0.89503 -2.6851,2.13238 -3.75129,2.07889 0,0 -0.0178,0.54558 1.05193,0.39938 0.33876,-0.0464 1.74014,-0.35302 2.72075,-1.11255 0.731,0.52775 0.52418,1.42634 -0.025,2.07533 -0.54557,0.64542 -1.87921,1.47983 -3.25206,1.62603 0,0 -0.13551,0.52062 0.78805,0.50992 0.92356,-0.0107 1.92557,-0.48139 2.6637,-1.05549 0.11054,0.17472 0.21395,0.55627 0.0892,1.08045 -0.19256,0.80945 -1.28015,1.6296 -3.38044,2.08603 -1.93626,0.42077 -4.11857,0.71674 -8.32985,-1.46913 0,0 1.57254,2.04323 5.67685,2.40695 3.93671,0.34946 8.53311,-1.39425 6.68956,-4.89236 0,0 0.39937,-0.59193 0.44929,-1.40495 0.0357,-0.55627 -0.13907,-1.3158 -0.54914,-1.66169 0.38511,-1.13394 0.26387,-1.91843 0.0178,-2.38199 -0.16403,-0.30667 -0.57767,-0.6062 -0.57767,-0.6062 0,0 0.81658,-0.73813 3.22354,-1.35859 1.54402,-0.40294 3.0916,-0.97348 2.9454,-2.97036 z"
         id="path8" /><path
         id="mouth"
         style="fill:#000000;stroke-width:0.356586"
         d="m 131.64439,97.90779 c -0.11411,-0.0214 -0.22108,-0.06775 -0.31023,-0.142635 -1.6082,-1.290841 -3.52663,-2.132384 -5.56274,-2.44618 -2.03611,-0.35302 -4.1257,-0.160464 -6.06196,0.556274 -0.10698,0.04279 -0.22109,0.05705 -0.3352,0.03923 v 0 c -0.24961,-0.04279 -0.45286,-0.228216 -0.52061,-0.47426 -0.0678,-0.242478 0.0143,-0.49922 0.20682,-0.659684 3.77981,-3.137958 9.38534,-2.617342 12.5233,1.16247 0.25674,0.31023 0.49209,0.638289 0.70604,0.977046 0.1355,0.210386 0.1355,0.481391 0,0.691777 -0.13907,0.217518 -0.39224,0.331625 -0.64542,0.295967 z" /><path
         style="fill:#000000;stroke-width:0.356586"
         d="m 133.03508,83.57303 v 0 c 1.49409,0 2.85269,1.262314 2.85269,3.35904 0,2.096727 -1.3586,3.355475 -2.85269,3.355475 v 0 c -1.4941,0 -2.85269,-1.262314 -2.85269,-3.355475 0,-2.09316 1.35859,-3.35904 2.85269,-3.35904 z"
         id="path11-4" /><path
         style="fill:#000000;stroke-width:0.356586"
         d="m 120.6865,80.324531 v 0 c -1.49409,0 -2.85269,1.262314 -2.85269,3.355474 0,2.093161 1.3586,3.359041 2.85269,3.359041 v 0 c 1.49766,0 2.85269,-1.262314 2.85269,-3.359041 0,-2.096726 -1.35503,-3.355474 -2.85269,-3.355474 z"
         id="path12-7" /><path
         id="eyebrows"
         style="fill:#000000;stroke-width:0.356586"
         d="m 118.40078,76.270147 c -0.16046,-0.263874 -0.18185,-0.591933 -0.0571,-0.873636 0.1355,-0.281703 0.40294,-0.474259 0.71317,-0.513484 1.9434,-0.303098 3.92602,0.156898 5.53778,1.280144 0.60264,0.41364 1.13751,0.91286 1.59038,1.486964 0.0285,0.03566 0.0535,0.07488 0.0785,0.117673 0.24248,0.377982 0.16046,0.877202 -0.18899,1.158905 -0.37442,0.31023 -0.92356,0.299532 -1.28371,-0.02853 l 0.14976,-0.242478 -0.18186,0.213951 c -1.56184,-1.305105 -3.51593,-2.05037 -5.54848,-2.110989 -0.33875,0 -0.65255,-0.178293 -0.82371,-0.470694 z" /><path
         id="eyebrows-2"
         style="fill:#000000;stroke-width:0.356586"
         d="m 137.39612,82.649472 c 0.26388,-0.146201 0.44217,-0.41364 0.47783,-0.713172 0.0214,-0.31023 -0.11054,-0.609763 -0.35659,-0.798753 -1.54401,-1.230222 -3.50524,-1.818589 -5.47003,-1.633164 -0.72743,0.06062 -1.4406,0.231781 -2.11812,0.506352 l -0.12837,0.06062 c -0.39581,0.210386 -0.57054,0.684646 -0.40651,1.101851 0.17473,0.452865 0.64899,0.709607 1.12325,0.606197 v -0.285269 l 0.0499,0.278137 c 1.99688,-0.37085 4.06152,-0.06062 5.86228,0.880768 0.29596,0.167595 0.65611,0.167595 0.95208,0 z" /><path
         style="fill:#bfbfbf;fill-opacity:1;stroke-width:0.356586"
         d="m 120.62232,81.447777 v 0 c -0.36729,-0.256742 -0.92,-0.174728 -1.27658,0.338756 -0.35659,0.51705 -0.23892,1.059061 0.12837,1.315803 v 0 c 0.36728,0.256742 0.91999,0.174727 1.27658,-0.338757 0.35658,-0.51705 0.23891,-1.05906 -0.12837,-1.315802 z"
         id="path13-8" /><path
         style="fill:#bfbfbf;fill-opacity:1;stroke-width:0.356586"
         d="m 132.96376,84.500153 v 0 c -0.36728,-0.256742 -0.91999,-0.174727 -1.27658,0.338757 -0.35658,0.51705 -0.23891,1.059061 0.12837,1.315803 v 0 c 0.36729,0.256742 0.91999,0.174727 1.27658,-0.338757 0.36015,-0.51705 0.24248,-1.059061 -0.12837,-1.315803 z"
         id="path14-4" /></g><path
       id="path1"
       class="st1"
       d="m 123.8126,64.607426 c -17.78,0 -32.22646,14.44625 -32.22646,32.279167 0,17.832917 14.44646,32.279167 32.22646,32.279167 17.78,0 32.19958,-14.47271 32.19958,-32.279167 0,-17.832917 -14.41958,-32.279167 -32.19958,-32.279167 z m 0,6.455937 c 14.23458,0 25.79687,11.562188 25.79687,25.82323 0,5.861747 -1.9536,11.267307 -5.24309,15.601627 L 108.24559,76.297668 c 4.32823,-3.284957 9.72237,-5.234305 15.56701,-5.234305 z m -20.57652,10.251053 36.12699,36.173504 c -4.32548,3.27749 -9.71316,5.2219 -15.55047,5.2219 -14.23459,0 -25.796878,-11.56219 -25.796878,-25.823227 0,-5.848424 1.944399,-11.242847 5.220358,-15.572177 z"
       style="stroke-width:0.264583" /><polygon
       class="st2"
       points="630,99.7 354.9,375.4 358.4,378.8 633.5,103.1 "
       id="polygon7"
       transform="matrix(0.26458333,0,0,0.26458333,-3.2934443,37.249611)" /><polygon
       class="st2"
       points="630.1,85.8 341,375.6 344.4,379 633.6,89.2 "
       id="polygon8"
       transform="matrix(0.26458333,0,0,0.26458333,-3.2934443,37.249611)" /><polygon
       class="st2"
       points="626.1,75.9 331.1,371.6 334.5,375.1 629.5,79.4 "
       id="polygon9"
       transform="matrix(0.26458333,0,0,0.26458333,-3.2934443,37.249611)" /><polygon
       class="st2"
       points="616.1,72.2 327.2,361.8 330.6,365.2 619.6,75.6 "
       id="polygon10"
       transform="matrix(0.26458333,0,0,0.26458333,-3.2934443,37.249611)" /><polygon
       class="st2"
       points="602,72.5 328,347.1 331.4,350.6 605.5,75.9 "
       id="polygon11"
       transform="matrix(0.26458333,0,0,0.26458333,-3.2934443,37.249611)" /><path
       id="path11"
       class="st2"
       d="m 82.669889,60.162736 c 0,-2.38125 1.931252,-4.312915 4.286043,-4.312915 h 0.02635 73.448228 0.0269 c 2.36908,0.01444 4.28604,1.966851 4.28604,4.312915 l -2.16938,0.02635 v -0.02635 c 0,-1.190625 -0.95291,-2.143538 -2.14354,-2.143538 H 86.982287 c -1.190625,0 -2.143021,0.95281 -2.143021,2.169893 l -2.169375,-0.02702 6e-6,148.378689 c 5.2e-5,2.38121 1.93118,4.31292 4.312398,4.31292 h 73.448225 c 2.38125,0 4.31292,-1.93167 4.31292,-4.31292 v -68.31521 -0.007 -6.4425 -0.007 -42.20048 -31.379479 h -2.16938 v 73.580519 c 0,0.0103 1.4e-4,0.0203 0,0.0305 -0.0162,1.17625 -0.96317,2.11253 -2.14354,2.11253 H 87.088224 c -1.190625,0 -2.143022,-0.95239 -2.143022,-2.14302 v 0 l -0.10922,-73.580519 -2.166085,-0.02768 m 4.418327,77.921119 h 73.342296 c 1.18037,0 2.12731,0.93628 2.14354,2.11253 v 0.0305 68.31521 c -6e-5,1.19054 -0.95249,2.14296 -2.14302,2.14302 v -0.001 l -73.448753,0.0279 v -0.0269 c -1.190625,0 -2.143021,-0.9524 -2.143021,-2.14302 h -4.3e-5 l 0.105982,-68.31519 v 0 c 0,-1.19063 0.952397,-2.14302 2.143022,-2.14302 z"
       sodipodi:nodetypes="cscccccssscccssscccscccscssccccsscccccccccccss"
       style="stroke-width:0.264583" /><text
       xml:space="preserve"
       style="font-style:normal;font-variant:normal;font-weight:normal;font-stretch:normal;font-size:8.46667px;line-height:1.25;font-family:'DIN 1451 Std';-inkscape-font-specification:'DIN 1451 Std, Normal';font-variant-ligatures:none;font-variant-caps:normal;font-variant-numeric:normal;font-variant-east-asian:normal;text-align:center;text-anchor:middle;stroke-width:0.264583"
       x="123.56272"
       y="149.46703"
       id="text1"><tspan
         sodipodi:role="line"
         id="tspan1"
         x="123.56272"
         y="149.46703"
         style="stroke-width:0.264583">If they want you to</tspan></text><text
       xml:space="preserve"
       style="font-style:normal;font-variant:normal;font-weight:normal;font-stretch:normal;font-size:13.5721px;line-height:1.25;font-family:'DIN 1451 Std';-inkscape-font-specification:'DIN 1451 Std, Normal';font-variant-ligatures:none;font-variant-caps:normal;font-variant-numeric:normal;font-variant-east-asian:normal;text-align:center;text-anchor:middle;stroke-width:0.411834"
       x="123.19769"
       y="163.69434"
       id="text2"><tspan
         sodipodi:role="line"
         id="tspan2"
         x="123.19769"
         y="163.69434"
         style="stroke-width:0.411834">NOT THINK</tspan></text><text
       xml:space="preserve"
       style="font-style:normal;font-variant:normal;font-weight:normal;font-stretch:normal;font-size:8.46667px;line-height:1.25;font-family:'DIN 1451 Std';-inkscape-font-specification:'DIN 1451 Std, Normal';font-variant-ligatures:none;font-variant-caps:normal;font-variant-numeric:normal;font-variant-east-asian:normal;text-align:center;text-anchor:middle;stroke-width:0.264583"
       x="123.79133"
       y="172.5509"
       id="text3"><tspan
         sodipodi:role="line"
         id="tspan3"
         x="123.79133"
         y="172.5509"
         style="stroke-width:0.264583">they are</tspan></text><text
       xml:space="preserve"
       style="font-style:normal;font-variant:normal;font-weight:normal;font-stretch:normal;font-size:14.8167px;line-height:1.25;font-family:'DIN 1451 Std';-inkscape-font-specification:'DIN 1451 Std, Normal';font-variant-ligatures:none;font-variant-caps:normal;font-variant-numeric:normal;font-variant-east-asian:normal;text-align:center;text-anchor:middle;stroke-width:0.448837"
       x="123.25474"
       y="187.67184"
       id="text4"><tspan
         sodipodi:role="line"
         id="tspan4"
         x="123.25474"
         y="187.67184"
         style="font-style:normal;font-variant:normal;font-weight:normal;font-stretch:normal;font-size:14.8167px;font-family:'DIN 1451 Std';-inkscape-font-specification:'DIN 1451 Std, Normal';font-variant-ligatures:none;font-variant-caps:normal;font-variant-numeric:normal;font-variant-east-asian:normal;stroke-width:0.448837">NOT YOUR</tspan></text><text
       xml:space="preserve"
       style="font-style:normal;font-variant:normal;font-weight:normal;font-stretch:normal;font-size:20.0497px;line-height:1.25;font-family:'DIN 1451 Std';-inkscape-font-specification:'DIN 1451 Std, Normal';font-variant-ligatures:none;font-variant-caps:normal;font-variant-numeric:normal;font-variant-east-asian:normal;text-align:center;text-anchor:middle;stroke-width:0.506083"
       x="123.52531"
       y="204.783"
       id="text5"><tspan
         sodipodi:role="line"
         id="tspan5"
         x="123.52531"
         y="204.783"
         style="font-style:normal;font-variant:normal;font-weight:normal;font-stretch:normal;font-size:20.0497px;font-family:'DIN 1451 Std';-inkscape-font-specification:'DIN 1451 Std, Normal';font-variant-ligatures:none;font-variant-caps:normal;font-variant-numeric:normal;font-variant-east-asian:normal;stroke-width:0.506083">FRIEND</tspan></text><path
       style="fill:#bfbfbf;fill-opacity:1;stroke-width:0.356586"
       d="m 132.2796,84.111304 v 0 c -0.36728,-0.256742 -0.91999,-0.174727 -1.27658,0.338757 -0.35658,0.51705 -0.23891,1.059061 0.12837,1.315803 v 0 c 0.36729,0.256742 0.91999,0.174727 1.27658,-0.338757 0.36015,-0.51705 0.24248,-1.059061 -0.12837,-1.315803 z"
       id="path14-4-3" /></g><style
     type="text/css"
     id="style1">
	.st0{fill-rule:evenodd;clip-rule:evenodd;fill:#FFFFFF;}
	.st1{fill-rule:evenodd;clip-rule:evenodd;fill:#BEBEBE;}
	.st2{fill-rule:evenodd;clip-rule:evenodd;}
</style></svg>
