<?xml version="1.0" encoding="UTF-8" standalone="no"?>
<svg
   xmlns:dc="http://purl.org/dc/elements/1.1/"
   xmlns:cc="http://creativecommons.org/ns#"
   xmlns:rdf="http://www.w3.org/1999/02/22-rdf-syntax-ns#"
   xmlns:svg="http://www.w3.org/2000/svg"
   xmlns="http://www.w3.org/2000/svg"
   xmlns:sodipodi="http://sodipodi.sourceforge.net/DTD/sodipodi-0.dtd"
   xmlns:inkscape="http://www.inkscape.org/namespaces/inkscape"
   version="1.0"
   width="90mm"
   height="30mm"
   viewBox="22 40 340.15749 113.38583"
   id="svg99"
   sodipodi:docname="I-Camelia-Raku.svg"
   inkscape:version="0.92.4 (unknown)">
  <metadata
     id="metadata103">
    <rdf:RDF>
      <cc:Work
         rdf:about="">
        <dc:format>image/svg+xml</dc:format>
        <dc:type
           rdf:resource="http://purl.org/dc/dcmitype/StillImage" />
        <dc:title></dc:title>
      </cc:Work>
    </rdf:RDF>
  </metadata>
  <sodipodi:namedview
     pagecolor="#ffffff"
     bordercolor="#666666"
     borderopacity="1"
     objecttolerance="10"
     gridtolerance="10"
     guidetolerance="10"
     inkscape:pageopacity="0"
     inkscape:pageshadow="2"
     inkscape:window-width="1856"
     inkscape:window-height="1016"
     id="namedview101"
     showgrid="false"
     inkscape:zoom="3.8528646"
     inkscape:cx="174.47602"
     inkscape:cy="88.071808"
     inkscape:window-x="64"
     inkscape:window-y="27"
     inkscape:window-maximized="1"
     inkscape:current-layer="svg99"
     inkscape:pagecheckerboard="true"
     units="mm"
     showguides="true"
     inkscape:guide-bbox="true" />
  <defs
     id="defs4">
    <clipPath
       id="clipPath17">
      <path
         d="M 0,-0.1 H 792.1 V 612 H 0 Z"
         id="path19"
         inkscape:connector-curvature="0" />
    </clipPath>
  </defs>
  <g
     id="g1043"
     transform="translate(-13.748654,19.264689)">
    <g
       id="g11"
       transform="matrix(0.12382189,-0.04076959,-0.04076959,-0.12382189,97.942943,127.73514)">
      <g
         id="g13"
         transform="rotate(-0.03506876,-31881.91,95579.785)">
        <g
           id="g15"
           clip-path="url(#clipPath17)">
          <path
             inkscape:connector-curvature="0"
             style="fill:#000000;fill-opacity:1;fill-rule:evenodd;stroke:none"
             id="path21"
             d="M 304.2,75.7 C 248.8,35.1 174.7,42.1 138.6,91.4 c -36,49.2 -20.3,122 35.1,162.5 55.3,40.6 129.5,33.6 165.5,-15.6 36.1,-49.3 20.4,-122.1 -35,-162.6 z" />
          <g
             id="g23">
            <path
               inkscape:connector-curvature="0"
               style="fill:none;stroke:#000000;stroke-width:4.30158997;stroke-linecap:butt;stroke-linejoin:round;stroke-miterlimit:10;stroke-dasharray:none;stroke-opacity:1"
               id="path25"
               d="M 304.2,75.7 C 248.8,35.1 174.7,42.1 138.6,91.4 c -36,49.2 -20.3,122 35.1,162.5 55.3,40.6 129.5,33.6 165.5,-15.6 36.1,-49.3 20.4,-122.1 -35,-162.6 z" />
          </g>
          <path
             inkscape:connector-curvature="0"
             style="fill:#000000;fill-opacity:1;fill-rule:evenodd;stroke:none"
             id="path27"
             d="m 273.6,523.5 c 68.9,-50.4 88.4,-140.9 43.5,-202.1 -44.8,-61.2 -137,-69.9 -205.8,-19.5 -68.9,50.4 -88.4,141 -43.6,202.2 44.9,61.2 137,69.9 205.9,19.4 z" />
          <g
             id="g29">
            <path
               inkscape:connector-curvature="0"
               style="fill:none;stroke:#000000;stroke-width:7.1882;stroke-linecap:butt;stroke-linejoin:round;stroke-miterlimit:10;stroke-dasharray:none;stroke-opacity:1"
               id="path31"
               d="m 273.6,523.5 c 68.9,-50.4 88.4,-140.9 43.5,-202.1 -44.8,-61.2 -137,-69.9 -205.8,-19.5 -68.9,50.4 -88.4,141 -43.6,202.2 44.9,61.2 137,69.9 205.9,19.4 z" />
          </g>
          <path
             inkscape:connector-curvature="0"
             style="fill:#00ff00;fill-opacity:1;fill-rule:evenodd;stroke:none"
             id="path33"
             d="m 213.3,370.5 c -25.8,21.2 -27.3,62.2 -3.3,91.4 24.1,29.3 64.5,35.9 90.3,14.6 25.9,-21.2 27.4,-62.1 3.3,-91.4 -24,-29.3 -64.4,-35.8 -90.3,-14.6 z" />
          <g
             id="g35">
            <path
               inkscape:connector-curvature="0"
               style="fill:none;stroke:none"
               id="path37"
               d="m 213.3,370.5 c -25.8,21.2 -27.3,62.2 -3.3,91.4 24.1,29.3 64.5,35.9 90.3,14.6 25.9,-21.2 27.4,-62.1 3.3,-91.4 -24,-29.3 -64.4,-35.8 -90.3,-14.6 z" />
          </g>
          <path
             inkscape:connector-curvature="0"
             style="fill:#000000;fill-opacity:1;fill-rule:evenodd;stroke:none"
             id="path39"
             d="m 191.7,375.8 c -25.9,21.3 -27.4,62.2 -3.4,91.5 24.1,29.3 64.6,35.8 90.4,14.6 25.9,-21.2 27.4,-62.2 3.3,-91.5 -24,-29.3 -64.5,-35.8 -90.3,-14.6 z" />
          <g
             id="g41">
            <path
               inkscape:connector-curvature="0"
               style="fill:none;stroke:none"
               id="path43"
               d="m 191.7,375.8 c -25.9,21.3 -27.4,62.2 -3.4,91.5 24.1,29.3 64.6,35.8 90.4,14.6 25.9,-21.2 27.4,-62.2 3.3,-91.5 -24,-29.3 -64.5,-35.8 -90.3,-14.6 z" />
          </g>
          <g
             id="g45">
            <path
               inkscape:connector-curvature="0"
               style="fill:none;stroke:#0000ff;stroke-width:21.56459045;stroke-linecap:butt;stroke-linejoin:round;stroke-miterlimit:10;stroke-dasharray:none;stroke-opacity:1"
               id="path47"
               d="m 245.6,311.6 c -41.6,27.7 -99.1,49.2 -123.8,86.2 -18.4,27.5 -39.3,38.3 -17.3,65.5 21,25.7 32.7,53.3 61.9,57.9 32.8,-4.4 58.3,-7.3 79.3,-43.8 -2.4,-21.4 4.8,-66.6 -23,-88.1 l -48.1,-26.7" />
          </g>
          <path
             inkscape:connector-curvature="0"
             style="fill:#ff3366;fill-opacity:1;fill-rule:evenodd;stroke:none"
             id="path49"
             d="m 175,400.5 c -23.8,0 -43.1,18.9 -43.1,42.3 0,23.4 19.3,42.3 43.1,42.3 23.8,0 43.1,-18.9 43.1,-42.3 0,-23.4 -19.3,-42.3 -43.1,-42.3 z" />
          <g
             id="g51">
            <path
               inkscape:connector-curvature="0"
               style="fill:none;stroke:none"
               id="path53"
               d="m 175,400.5 c -23.8,0 -43.1,18.9 -43.1,42.3 0,23.4 19.3,42.3 43.1,42.3 23.8,0 43.1,-18.9 43.1,-42.3 0,-23.4 -19.3,-42.3 -43.1,-42.3 z" />
          </g>
          <path
             inkscape:connector-curvature="0"
             style="fill:#0000ff;fill-opacity:1;fill-rule:evenodd;stroke:none"
             id="path55"
             d="m 194.2,418.9 c -8.9,-7.3 -22.2,-5.9 -29.7,3.2 -7.5,9.1 -6.3,22.4 2.7,29.7 8.9,7.3 22.2,5.9 29.6,-3.2 7.5,-9.1 6.3,-22.4 -2.6,-29.7 z" />
          <g
             id="g57">
            <path
               inkscape:connector-curvature="0"
               style="fill:none;stroke:none"
               id="path59"
               d="m 194.2,418.9 c -8.9,-7.3 -22.2,-5.9 -29.7,3.2 -7.5,9.1 -6.3,22.4 2.7,29.7 8.9,7.3 22.2,5.9 29.6,-3.2 7.5,-9.1 6.3,-22.4 -2.6,-29.7 z" />
          </g>
          <g
             id="g61">
            <path
               inkscape:connector-curvature="0"
               style="fill:none;stroke:#0000ff;stroke-width:21.56459045;stroke-linecap:butt;stroke-linejoin:round;stroke-miterlimit:10;stroke-dasharray:none;stroke-opacity:1"
               id="path63"
               d="m 249.3,308.8 c -41.7,27.8 -104.7,27.8 -129.4,64.7 -18.4,27.6 -50.3,63.1 -28.3,90.2 20.1,31.9 45.6,53.8 77.5,53.8 32.9,-4.3 66.7,-17 74.7,-42.8 -2.3,-21.5 2.1,-55.4 -25.7,-76.9 l -45.3,-36.1" />
          </g>
          <path
             inkscape:connector-curvature="0"
             style="fill:#0000ff;fill-opacity:1;fill-rule:evenodd;stroke:none"
             id="path65"
             d="m 268,298 c -2.9,-5.1 -15.3,-3.4 -27.6,3.7 -12.4,7.1 -20,17 -17.1,22.1 3,5 15.3,3.4 27.7,-3.7 12.3,-7.2 20,-17 17,-22.1 z" />
          <g
             id="g67">
            <path
               inkscape:connector-curvature="0"
               style="fill:none;stroke:none"
               id="path69"
               d="m 268,298 c -2.9,-5.1 -15.3,-3.4 -27.6,3.7 -12.4,7.1 -20,17 -17.1,22.1 3,5 15.3,3.4 27.7,-3.7 12.3,-7.2 20,-17 17,-22.1 z" />
          </g>
          <path
             inkscape:connector-curvature="0"
             style="fill:#000000;fill-opacity:1;fill-rule:evenodd;stroke:none"
             id="path71"
             d="M 629.1,253 C 684.4,212.5 700.1,139.6 664,90.4 627.9,41.1 553.8,34.1 498.4,74.6 c -55.3,40.6 -71,113.4 -34.9,162.6 36.1,49.3 110.2,56.4 165.6,15.8 z" />
          <g
             id="g73">
            <path
               inkscape:connector-curvature="0"
               style="fill:none;stroke:#000000;stroke-width:4.30158997;stroke-linecap:butt;stroke-linejoin:round;stroke-miterlimit:10;stroke-dasharray:none;stroke-opacity:1"
               id="path75"
               d="M 629.1,253 C 684.4,212.5 700.1,139.6 664,90.4 627.9,41.1 553.8,34.1 498.4,74.6 c -55.3,40.6 -71,113.4 -34.9,162.6 36.1,49.3 110.2,56.4 165.6,15.8 z" />
          </g>
          <path
             inkscape:connector-curvature="0"
             style="fill:#ffff00;fill-opacity:1;fill-rule:evenodd;stroke:none"
             id="path77"
             d="m 399.5,162 c -64,0 -115.8,41.4 -115.8,92.6 0,51.1 51.8,92.6 115.8,92.6 64,0 115.8,-41.5 115.8,-92.6 0,-51.2 -51.8,-92.6 -115.8,-92.6 z" />
          <g
             id="g79">
            <path
               inkscape:connector-curvature="0"
               style="fill:none;stroke:#000000;stroke-width:8.63150024;stroke-linecap:butt;stroke-linejoin:round;stroke-miterlimit:10;stroke-dasharray:none;stroke-opacity:1"
               id="path81"
               d="m 399.5,162 c -64,0 -115.8,41.4 -115.8,92.6 0,51.1 51.8,92.6 115.8,92.6 64,0 115.8,-41.5 115.8,-92.6 0,-51.2 -51.8,-92.6 -115.8,-92.6 z" />
          </g>
          <path
             inkscape:connector-curvature="0"
             style="fill:#ffffff;fill-opacity:1;fill-rule:evenodd;stroke:none"
             id="path83"
             d="m 320.1,255.7 c -25.6,0 -46.3,20.8 -46.3,46.3 0,25.6 20.7,46.3 46.3,46.3 25.6,0 46.4,-20.7 46.4,-46.3 0,-25.5 -20.8,-46.3 -46.4,-46.3 z" />
          <g
             id="g85">
            <path
               inkscape:connector-curvature="0"
               style="fill:none;stroke:#000000;stroke-width:10.07479;stroke-linecap:butt;stroke-linejoin:round;stroke-miterlimit:10;stroke-dasharray:none;stroke-opacity:1"
               id="path87"
               d="m 320.1,255.7 c -25.6,0 -46.3,20.8 -46.3,46.3 0,25.6 20.7,46.3 46.3,46.3 25.6,0 46.4,-20.7 46.4,-46.3 0,-25.5 -20.8,-46.3 -46.4,-46.3 z" />
          </g>
          <path
             inkscape:connector-curvature="0"
             style="fill:#000000;fill-opacity:1;fill-rule:evenodd;stroke:none"
             id="path89"
             d="m 683.4,296.3 c -68.4,-50.1 -160,-41.4 -204.5,19.4 -44.6,60.8 -25.2,150.7 43.2,200.9 68.4,50.1 160,41.4 204.5,-19.4 44.6,-60.9 25.2,-150.8 -43.2,-200.9 z" />
          <g
             id="g91">
            <path
               inkscape:connector-curvature="0"
               style="fill:none;stroke:#000000;stroke-width:7.1882;stroke-linecap:butt;stroke-linejoin:round;stroke-miterlimit:10;stroke-dasharray:none;stroke-opacity:1"
               id="path93"
               d="m 683.4,296.3 c -68.4,-50.1 -160,-41.4 -204.5,19.4 -44.6,60.8 -25.2,150.7 43.2,200.9 68.4,50.1 160,41.4 204.5,-19.4 44.6,-60.9 25.2,-150.8 -43.2,-200.9 z" />
          </g>
          <path
             inkscape:connector-curvature="0"
             style="fill:#00ff00;fill-opacity:1;fill-rule:evenodd;stroke:none"
             id="path95"
             d="m 698.5,335.2 c -25.7,-21.1 -65.9,-14.5 -89.8,14.6 -23.9,29.1 -22.5,69.8 3.2,90.9 25.7,21.1 65.9,14.6 89.8,-14.6 23.9,-29.1 22.5,-69.8 -3.2,-90.9 z" />
          <g
             id="g97">
            <path
               inkscape:connector-curvature="0"
               style="fill:none;stroke:none"
               id="path99"
               d="m 698.5,335.2 c -25.7,-21.1 -65.9,-14.5 -89.8,14.6 -23.9,29.1 -22.5,69.8 3.2,90.9 25.7,21.1 65.9,14.6 89.8,-14.6 23.9,-29.1 22.5,-69.8 -3.2,-90.9 z" />
          </g>
          <path
             inkscape:connector-curvature="0"
             style="fill:#000000;fill-opacity:1;fill-rule:evenodd;stroke:none"
             id="path101"
             d="m 677.1,335.2 c -25.7,-21.1 -65.9,-14.5 -89.8,14.6 -23.9,29.1 -22.5,69.8 3.2,90.8 25.7,21.1 65.9,14.6 89.8,-14.5 23.9,-29.1 22.4,-69.8 -3.2,-90.9 z" />
          <g
             id="g103">
            <path
               inkscape:connector-curvature="0"
               style="fill:none;stroke:none"
               id="path105"
               d="m 677.1,335.2 c -25.7,-21.1 -65.9,-14.5 -89.8,14.6 -23.9,29.1 -22.5,69.8 3.2,90.8 25.7,21.1 65.9,14.6 89.8,-14.5 23.9,-29.1 22.4,-69.8 -3.2,-90.9 z" />
          </g>
          <g
             id="g107">
            <path
               inkscape:connector-curvature="0"
               style="fill:none;stroke:#0000ff;stroke-width:21.56459045;stroke-linecap:butt;stroke-linejoin:round;stroke-miterlimit:10;stroke-dasharray:none;stroke-opacity:1"
               id="path109"
               d="m 705.7,464.7 c -18,58.1 -98.5,38.2 -128.5,18.1 -41.4,-27.6 -36.2,-22.1 -60.7,-58.8 -18.3,-27.5 -8.4,-63.6 13.5,-90.6 20.7,-25.6 29,-13.8 61.6,-9.5 32.6,4.3 41.5,5.4 49.4,31 9.9,32.1 -22.1,65.3 -49.7,86.6 L 560.2,463" />
          </g>
          <path
             inkscape:connector-curvature="0"
             style="fill:#ff3366;fill-opacity:1;fill-rule:evenodd;stroke:none"
             id="path111"
             d="m 569.2,345.3 c -21,0 -37.9,17.2 -37.9,38.5 0,21.3 16.9,38.5 37.9,38.5 20.9,0 37.8,-17.2 37.8,-38.5 0,-21.3 -16.9,-38.5 -37.8,-38.5 z" />
          <g
             id="g113">
            <path
               inkscape:connector-curvature="0"
               style="fill:none;stroke:none"
               id="path115"
               d="m 569.2,345.3 c -21,0 -37.9,17.2 -37.9,38.5 0,21.3 16.9,38.5 37.9,38.5 20.9,0 37.8,-17.2 37.8,-38.5 0,-21.3 -16.9,-38.5 -37.8,-38.5 z" />
          </g>
          <path
             inkscape:connector-curvature="0"
             style="fill:#0000ff;fill-opacity:1;fill-rule:evenodd;stroke:none"
             id="path117"
             d="m 582.5,361.7 c -8.9,-7.2 -22.1,-5.8 -29.5,3.3 -7.4,9 -6.3,22.3 2.5,29.5 8.8,7.3 22.1,5.8 29.5,-3.2 7.4,-9.1 6.3,-22.3 -2.5,-29.6 z" />
          <g
             id="g119">
            <path
               inkscape:connector-curvature="0"
               style="fill:none;stroke:none"
               id="path121"
               d="m 582.5,361.7 c -8.9,-7.2 -22.1,-5.8 -29.5,3.3 -7.4,9 -6.3,22.3 2.5,29.5 8.8,7.3 22.1,5.8 29.5,-3.2 7.4,-9.1 6.3,-22.3 -2.5,-29.6 z" />
          </g>
          <g
             id="g123">
            <path
               inkscape:connector-curvature="0"
               style="fill:none;stroke:#0000ff;stroke-width:21.56459045;stroke-linecap:butt;stroke-linejoin:round;stroke-miterlimit:10;stroke-dasharray:none;stroke-opacity:1"
               id="path125"
               d="m 711.2,466.5 c -18,58.1 -116.7,47.3 -146.7,27.2 -41.4,-27.6 -35.3,-22.2 -59.8,-58.9 -18.3,-27.4 -2,-76.9 19.9,-103.9 20.7,-25.6 35.8,-19.8 68.3,-15.5 32.6,4.3 44,3.5 52,29.2 9.9,32 4,71.5 -23.7,92.9 l -61,25.5" />
          </g>
          <path
             inkscape:connector-curvature="0"
             style="fill:#ffffff;fill-opacity:1;fill-rule:evenodd;stroke:none"
             id="path127"
             d="m 473.4,255.7 c -25.6,0 -46.4,20.8 -46.4,46.3 0,25.6 20.8,46.3 46.4,46.3 25.6,0 46.3,-20.7 46.3,-46.3 0,-25.5 -20.7,-46.3 -46.3,-46.3 z" />
          <g
             id="g129">
            <path
               inkscape:connector-curvature="0"
               style="fill:none;stroke:#000000;stroke-width:10.07479;stroke-linecap:butt;stroke-linejoin:round;stroke-miterlimit:10;stroke-dasharray:none;stroke-opacity:1"
               id="path131"
               d="m 473.4,255.7 c -25.6,0 -46.4,20.8 -46.4,46.3 0,25.6 20.8,46.3 46.4,46.3 25.6,0 46.3,-20.7 46.3,-46.3 0,-25.5 -20.7,-46.3 -46.3,-46.3 z" />
          </g>
          <path
             inkscape:connector-curvature="0"
             style="fill:#000000;fill-opacity:1;fill-rule:evenodd;stroke:none"
             id="path133"
             d="m 321.5,279 c -12.8,0 -23.2,10.4 -23.2,23.2 0,12.8 10.4,23.2 23.2,23.2 12.8,0 23.1,-10.4 23.1,-23.2 0,-12.8 -10.3,-23.2 -23.1,-23.2 z" />
          <g
             id="g135">
            <path
               inkscape:connector-curvature="0"
               style="fill:none;stroke:none"
               id="path137"
               d="m 321.5,279 c -12.8,0 -23.2,10.4 -23.2,23.2 0,12.8 10.4,23.2 23.2,23.2 12.8,0 23.1,-10.4 23.1,-23.2 0,-12.8 -10.3,-23.2 -23.1,-23.2 z" />
          </g>
          <path
             inkscape:connector-curvature="0"
             style="fill:#000000;fill-opacity:1;fill-rule:evenodd;stroke:none"
             id="path139"
             d="m 475.1,281.6 c -12.9,0 -23.2,10.4 -23.2,23.1 0,12.8 10.3,23.1 23.2,23.1 12.8,0 23.1,-10.3 23.1,-23.1 0,-12.7 -10.3,-23.1 -23.1,-23.1 z" />
          <g
             id="g141">
            <path
               inkscape:connector-curvature="0"
               style="fill:none;stroke:none"
               id="path143"
               d="m 475.1,281.6 c -12.9,0 -23.2,10.4 -23.2,23.1 0,12.8 10.3,23.1 23.2,23.1 12.8,0 23.1,-10.3 23.1,-23.1 0,-12.7 -10.3,-23.1 -23.1,-23.1 z" />
          </g>
          <g
             id="g145">
            <path
               inkscape:connector-curvature="0"
               style="fill:none;stroke:#ff3366;stroke-width:12.93309021;stroke-linecap:butt;stroke-linejoin:round;stroke-miterlimit:10;stroke-dasharray:none;stroke-opacity:1"
               id="path147"
               d="m 360,230 c -4.6,-31.7 87.5,-54.6 76.4,-5.4 v 2.7" />
          </g>
          <g
             id="g149">
            <path
               inkscape:connector-curvature="0"
               style="fill:none;stroke:#000000;stroke-width:10.07479;stroke-linecap:butt;stroke-linejoin:round;stroke-miterlimit:10;stroke-dasharray:none;stroke-opacity:1"
               id="path151"
               d="m 385.1,348 c -1.9,25.2 7.3,53.8 -4.2,77.1 l -9.7,23.1 -12.6,-21.2 9.7,-1.9" />
          </g>
          <g
             id="g153">
            <path
               inkscape:connector-curvature="0"
               style="fill:none;stroke:#000000;stroke-width:10.07479;stroke-linecap:butt;stroke-linejoin:round;stroke-miterlimit:10;stroke-dasharray:none;stroke-opacity:1"
               id="path155"
               d="m 413.3,348 c 1.9,25.2 -7.4,53.8 4.1,77.1 l 9.7,23.1 12.6,-21.2 -9.7,-1.9" />
          </g>
          <path
             inkscape:connector-curvature="0"
             style="fill:#ff3366;fill-opacity:1;fill-rule:evenodd;stroke:none"
             id="path157"
             d="m 181.1,99.3 c -26.6,21.9 -27.5,64.8 -2,96 25.6,31.1 67.9,38.6 94.6,16.7 26.6,-21.9 27.5,-64.8 1.9,-95.9 C 250.1,84.9 207.8,77.4 181.1,99.3 Z" />
          <g
             id="g159">
            <path
               inkscape:connector-curvature="0"
               style="fill:none;stroke:none"
               id="path161"
               d="m 181.1,99.3 c -26.6,21.9 -27.5,64.8 -2,96 25.6,31.1 67.9,38.6 94.6,16.7 26.6,-21.9 27.5,-64.8 1.9,-95.9 C 250.1,84.9 207.8,77.4 181.1,99.3 Z" />
          </g>
          <g
             id="g163">
            <path
               inkscape:connector-curvature="0"
               style="fill:none;stroke:#000000;stroke-width:8.63150024;stroke-linecap:butt;stroke-linejoin:round;stroke-miterlimit:10;stroke-dasharray:none;stroke-opacity:1"
               id="path165"
               d="m 375.5,161 v -29.9 l 16.4,-27.2 v 0" />
          </g>
          <g
             id="g167">
            <path
               inkscape:connector-curvature="0"
               style="fill:none;stroke:#000000;stroke-width:8.63150024;stroke-linecap:butt;stroke-linejoin:round;stroke-miterlimit:10;stroke-dasharray:none;stroke-opacity:1"
               id="path169"
               d="m 412,161 v -30 l 16.4,-27.2 v 0" />
          </g>
          <path
             inkscape:connector-curvature="0"
             style="fill:#0000ff;fill-opacity:1;fill-rule:evenodd;stroke:none"
             id="path171"
             d="m 212.3,134.8 c -12,9.8 -10.1,32 4.3,49.5 14.4,17.6 35.7,23.8 47.8,13.9 11.9,-9.8 10,-32 -4.3,-49.6 -14.4,-17.5 -35.8,-23.7 -47.8,-13.8 z" />
          <g
             id="g173">
            <path
               inkscape:connector-curvature="0"
               style="fill:none;stroke:none"
               id="path175"
               d="m 212.3,134.8 c -12,9.8 -10.1,32 4.3,49.5 14.4,17.6 35.7,23.8 47.8,13.9 11.9,-9.8 10,-32 -4.3,-49.6 -14.4,-17.5 -35.8,-23.7 -47.8,-13.8 z" />
          </g>
          <path
             inkscape:connector-curvature="0"
             style="fill:#ff3366;fill-opacity:1;fill-rule:evenodd;stroke:none"
             id="path177"
             d="M 616.6,99.2 C 589.9,77.3 547.6,84.8 522,116 c -25.5,31.1 -24.6,74.1 2,95.9 26.7,21.9 69,14.4 94.6,-16.7 25.5,-31.2 24.6,-74.1 -2,-96 z" />
          <g
             id="g179">
            <path
               inkscape:connector-curvature="0"
               style="fill:none;stroke:none"
               id="path181"
               d="M 616.6,99.2 C 589.9,77.3 547.6,84.8 522,116 c -25.5,31.1 -24.6,74.1 2,95.9 26.7,21.9 69,14.4 94.6,-16.7 25.5,-31.2 24.6,-74.1 -2,-96 z" />
          </g>
          <path
             inkscape:connector-curvature="0"
             style="fill:#0000ff;fill-opacity:1;fill-rule:evenodd;stroke:none"
             id="path183"
             d="m 581.8,132 c -12,-9.8 -33.4,-3.6 -47.7,13.8 -14.4,17.5 -16.3,39.7 -4.2,49.5 11.9,9.9 33.3,3.7 47.7,-13.8 14.3,-17.4 16.2,-39.6 4.2,-49.5 z" />
          <g
             id="g185">
            <path
               inkscape:connector-curvature="0"
               style="fill:none;stroke:none"
               id="path187"
               d="m 581.8,132 c -12,-9.8 -33.4,-3.6 -47.7,13.8 -14.4,17.5 -16.3,39.7 -4.2,49.5 11.9,9.9 33.3,3.7 47.7,-13.8 14.3,-17.4 16.2,-39.6 4.2,-49.5 z" />
          </g>
          <g
             id="g189">
            <text
               id="text191"
               transform="matrix(1,0,0,-1,658.4,245.8)">
              <tspan
                 style="font-variant:normal;font-size:16px;font-family:NimbusSanL;-inkscape-font-specification:NimbusSanL-Regu;writing-mode:lr-tb;fill:#808080;fill-opacity:1;fill-rule:nonzero;stroke:none"
                 id="tspan193"
                 y="0"
                 x="0 9.6960001">TM</tspan>
            </text>
          </g>
          <path
             inkscape:connector-curvature="0"
             style="fill:#0000ff;fill-opacity:1;fill-rule:evenodd;stroke:none"
             id="path195"
             d="m 722.4,447.3 c -6.1,-4.2 -19.3,4.3 -29.6,19.1 -10.4,14.7 -13.8,30.1 -7.8,34.3 6,4.2 19.3,-4.3 29.6,-19.1 10.3,-14.7 13.8,-30.1 7.8,-34.3 z" />
          <g
             id="g197">
            <path
               inkscape:connector-curvature="0"
               style="fill:none;stroke:none"
               id="path199"
               d="m 722.4,447.3 c -6.1,-4.2 -19.3,4.3 -29.6,19.1 -10.4,14.7 -13.8,30.1 -7.8,34.3 6,4.2 19.3,-4.3 29.6,-19.1 10.3,-14.7 13.8,-30.1 7.8,-34.3 z" />
          </g>
        </g>
      </g>
    </g>
    <flowRoot
       transform="translate(22,21.102362)"
       style="font-style:normal;font-variant:normal;font-weight:normal;font-stretch:normal;font-size:40px;line-height:1.25;font-family:Montserrat;-inkscape-font-specification:'Montserrat, Normal';font-variant-ligatures:normal;font-variant-caps:normal;font-variant-numeric:normal;font-feature-settings:normal;text-align:center;letter-spacing:0px;word-spacing:0px;writing-mode:lr-tb;text-anchor:middle;fill:#000000;fill-opacity:1;stroke:none"
       id="flowRoot914"
       xml:space="preserve"><flowRegion
         id="flowRegion916"><rect
           y="23.582516"
           x="13.496451"
           height="77.345047"
           width="324.953"
           id="rect918" /></flowRegion><flowPara
         id="flowPara920"></flowPara></flowRoot>    <text
       id="text924"
       y="43.64669"
       x="31.343697"
       style="font-style:normal;font-variant:normal;font-weight:normal;font-stretch:normal;font-size:40px;line-height:1.25;font-family:Montserrat;-inkscape-font-specification:'Montserrat, Normal';font-variant-ligatures:normal;font-variant-caps:normal;font-variant-numeric:normal;font-feature-settings:normal;text-align:center;letter-spacing:0px;word-spacing:0px;writing-mode:lr-tb;text-anchor:middle;fill:#000000;fill-opacity:0;stroke:none"
       xml:space="preserve"><tspan
         y="80.410431"
         x="31.343697"
         id="tspan922"
         sodipodi:role="line" /></text>
    <text
       id="text928"
       y="59.219521"
       x="43.80196"
       style="font-style:normal;font-variant:normal;font-weight:normal;font-stretch:normal;font-size:40px;line-height:1.25;font-family:sans-serif;-inkscape-font-specification:'sans-serif, Normal';font-variant-ligatures:normal;font-variant-caps:normal;font-variant-numeric:normal;font-feature-settings:normal;text-align:start;letter-spacing:0px;word-spacing:0px;writing-mode:lr-tb;text-anchor:start;fill:#000000;fill-opacity:1;stroke:none"
       xml:space="preserve"><tspan
         y="94.610146"
         x="43.80196"
         id="tspan926"
         sodipodi:role="line" /></text>
    <g
       aria-label="I"
       style="font-style:normal;font-variant:normal;font-weight:bold;font-stretch:normal;font-size:96px;line-height:1.25;font-family:'Comic Sans MS';-inkscape-font-specification:'Comic Sans MS, Bold';font-variant-ligatures:normal;font-variant-caps:normal;font-variant-numeric:normal;font-feature-settings:normal;text-align:center;letter-spacing:0px;word-spacing:0px;writing-mode:lr-tb;text-anchor:middle;fill:#ff3366;fill-opacity:1;stroke:#000000;stroke-width:3.77952766;stroke-miterlimit:4;stroke-dasharray:none;stroke-opacity:1"
       id="text932"
       transform="translate(2)">
      <path
         d="m 87.500511,56.560913 q -2.4375,0 -13.359375,-1.3125 -0.65625,8.625 -0.65625,22.921875 l -0.04687,21.046875 q 6.234375,-0.140625 12.703125,-0.140625 2.8125,0 4.640625,1.875002 1.875,1.875 1.875,4.5 0,2.625 -1.875,4.5 -1.828125,1.82812 -4.640625,1.82812 -2.625,0 -7.875,0.14063 -5.25,0.0937 -7.875,0.0937 -3.09375,0 -9.28125,0.79687 -6.1875,0.84375 -9.28125,0.84375 -2.8125,0 -4.6875,-1.82812 -1.828125,-1.875 -1.828125,-4.5 0,-2.625 1.828125,-4.5 1.875,-1.875 4.6875,-1.875 3.1875,0 8.390625,-0.70313 -0.09375,-5.531247 -0.09375,-21.187497 0,-12.75 0.9375,-24.328125 l -10.171875,0.28125 q -2.8125,0 -4.734375,-1.828125 -1.875,-1.828125 -1.875,-4.546875 0,-2.765625 1.875,-4.5 1.734375,-1.59375 4.265625,-1.828125 4.125,-0.375 14.34375,-0.375 9.1875,0 23.671875,1.96875 5.765625,0.796875 5.765625,6.46875 0,3 -2.34375,4.734375 -1.921875,1.453125 -4.359375,1.453125 z"
         id="path1072"
         inkscape:connector-curvature="0" />
    </g>
    <g
       aria-label="Raku"
       style="font-style:normal;font-variant:normal;font-weight:bold;font-stretch:normal;font-size:96px;line-height:1.25;font-family:'Comic Sans MS';-inkscape-font-specification:'Comic Sans MS, Bold';font-variant-ligatures:normal;font-variant-caps:normal;font-variant-numeric:normal;font-feature-settings:normal;text-align:center;letter-spacing:0px;word-spacing:0px;writing-mode:lr-tb;text-anchor:middle;fill:#ff3366;fill-opacity:1;stroke:#000000;stroke-width:3.77952766;stroke-miterlimit:4;stroke-dasharray:none;stroke-opacity:1"
       id="text936"
       transform="translate(-9.5434322,-0.36705509)">
      <path
         d="m 228.76251,114.05309 q -2.53125,0 -4.64062,-1.96875 -14.20313,-13.312497 -31.21875,-18.468747 0.51562,13.640627 0.51562,15.140627 0,2.67187 -1.875,4.54687 -1.875,1.82813 -4.6875,1.82813 -2.8125,0 -4.6875,-1.82813 -1.875,-1.875 -1.875,-4.54687 0,-3.51563 0.0937,-10.500002 0.0937,-7.03125 0.0937,-10.546875 l 0.0937,-37.828125 q 0,-3.046875 1.82813,-5.53125 2.39062,-3.1875 6.60937,-2.859375 11.39063,0.84375 11.67188,0.890625 6.5625,0.796875 11.15625,3.140625 20.01562,10.078125 20.01562,24.984375 0,6.140625 -4.21875,10.875 -4.17187,4.6875 -12.5625,7.921875 12.42188,6.9375 18.70313,14.156247 1.64062,1.875 1.64062,4.17188 0,2.625 -1.96875,4.54687 -1.96875,1.875 -4.6875,1.875 z M 198.71564,55.084343 q -0.375,-0.04687 -5.48438,-0.375 v 24.890625 q 1.17188,0.04687 2.0625,0.04687 11.48438,0 17.01563,-2.859375 2.39062,-1.21875 4.35937,-3.234375 2.01563,-2.015625 2.01563,-3.046875 0,-5.25 -6.65625,-10.125 -6.32813,-4.59375 -13.3125,-5.296875 z"
         id="path1075"
         inkscape:connector-curvature="0" />
      <path
         d="m 277.20981,116.58434 q -2.15625,0 -6.84375,-4.6875 -4.3125,2.0625 -7.59375,3.09375 -3.28125,1.07813 -5.57813,1.07813 -11.29687,0 -16.96875,-6.04688 -5.625,-6.04687 -5.625,-18.093747 0,-11.296875 8.34375,-19.3125 8.34375,-8.0625 19.96875,-8.0625 4.45313,0 10.3125,2.53125 7.07813,3.046875 7.07813,7.078125 0,1.6875 -1.07813,2.953125 -0.46875,1.875 -0.75,4.734375 -0.23437,2.8125 -0.23437,6.609375 0,8.953125 1.26562,12.890627 0.14063,0.42187 2.15625,4.875 1.82813,4.03125 1.82813,4.59375 0,2.48437 -1.92188,4.125 -1.875,1.64062 -4.35937,1.64062 z m -11.625,-32.156247 q 0,-1.5 0.1875,-3.421875 0.23437,-1.96875 0.65625,-4.359375 -0.9375,-0.46875 -1.6875,-0.65625 -0.70313,-0.234375 -1.21875,-0.234375 -6.375,0 -11.15625,5.015625 -4.78125,4.96875 -4.78125,11.53125 0,6.28125 2.25,9.468747 2.25,3.14063 6.75,3.14063 2.90625,0 5.48437,-0.9375 2.625,-0.98438 4.92188,-2.85938 -1.40625,-11.156247 -1.40625,-16.687497 z"
         id="path1077"
         inkscape:connector-curvature="0" />
      <path
         d="m 323.74318,115.41247 q -3.70313,0 -5.625,-3.5625 -2.29688,-4.26563 -6.89063,-10.07813 -7.125,-9.046872 -7.54687,-9.609372 -3.75,2.765625 -6.1875,4.21875 -0.46875,6.515622 -0.46875,12.468752 0,2.71875 -1.82813,4.5 -1.82812,1.78125 -4.64062,1.78125 -6.60938,0 -6.60938,-7.875 0,-3.70313 0.51563,-11.062502 0.5625,-7.40625 0.5625,-11.109375 0,-6.796875 0.1875,-15.515625 0.23437,-8.765625 0.23437,-15.46875 0,-2.015625 -0.23437,-4.734375 -0.1875,-2.765625 -0.1875,-4.78125 0,-2.71875 1.82812,-4.453125 1.82813,-1.78125 4.64063,-1.78125 2.8125,0 4.64062,1.78125 1.82813,1.734375 1.82813,4.453125 0,2.0625 0.23437,4.875 0.23438,2.8125 0.23438,4.875 0,5.578125 -0.28125,13.21875 -0.28125,7.3125 -0.23438,13.03125 6.375,-4.921875 19.40625,-17.90625 2.0625,-2.0625 4.6875,-2.0625 2.625,0 4.64063,1.921875 2.01562,1.921875 2.01562,4.453125 0,2.15625 -1.82812,4.171875 -5.53125,6.1875 -13.17188,12.9375 l 9.75,12.5625 q 7.07813,9.421872 7.07813,12.562502 0,2.57812 -2.0625,4.35937 -2.0625,1.82813 -4.6875,1.82813 z"
         id="path1079"
         inkscape:connector-curvature="0" />
      <path
         d="m 374.01781,86.396843 c 0,2.09375 0.0156,5.25 0.0469,9.46875 0.0313,4.218747 0.0469,7.374997 0.0469,9.468747 0,0.65625 0.0469,1.64063 0.14063,2.95313 0.125,1.28125 0.1875,2.25 0.1875,2.90625 0,1.75 -0.64063,3.1875 -1.92188,4.3125 -1.25,1.15625 -2.79687,1.73437 -4.64062,1.73437 -2.59375,0 -4.48438,-1.17187 -5.67188,-3.51562 -4,1.46875 -8.14062,2.20312 -12.42187,2.20312 -4.4375,0 -8.17188,-0.9375 -11.20313,-2.8125 -3.40625,-2.15625 -5.4375,-5.29687 -6.09375,-9.42187 -1.21875,-7.812501 -1.82812,-14.796877 -1.82812,-20.953127 0,-4.0625 0.46875,-8.703125 1.40625,-13.921875 0.625,-3.53125 2.73437,-5.296875 6.32812,-5.296875 1.8125,0 3.35938,0.578125 4.64063,1.734375 1.28125,1.125 1.92187,2.5625 1.92187,4.3125 0,1.375 -0.23437,3.53125 -0.70312,6.46875 -0.4375,2.9375 -0.65625,5.171875 -0.65625,6.703125 0,4.40625 0.14062,8.265625 0.42187,11.578125 0.3125,3.28125 0.76563,6.000002 1.35938,8.156252 0.78125,0.34375 1.53125,0.60937 2.25,0.79687 0.75,0.1875 1.46875,0.28125 2.15625,0.28125 3.46875,0 7.28125,-0.5 11.4375,-1.5 0,-2.406248 -0.0156,-5.140622 -0.0469,-8.203122 -0.0625,-3.65625 -0.0937,-6.28125 -0.0937,-7.875 0,-6.40625 0.29688,-11.9375 0.89063,-16.59375 0.46875,-3.71875 2.59375,-5.578125 6.375,-5.578125 1.84375,0 3.42187,0.578125 4.73437,1.734375 1.3125,1.15625 1.92188,2.609375 1.82813,4.359375 -0.26046,4.703409 -0.65535,13.558264 -0.89071,16.5 z"
         id="path1081"
         inkscape:connector-curvature="0"
         sodipodi:nodetypes="csscscscsccscscscscccsccscsscc" />
    </g>
  </g>
</svg>
