<?xml version="1.0" encoding="UTF-8" standalone="no"?>
<!-- Generator: Adobe Illustrator 26.0.2, SVG Export Plug-In . SVG Version: 6.00 Build 0)  -->

<svg
   version="1.1"
   id="Layer_1"
   x="0px"
   y="0px"
   viewBox="0 0 960 640"
   style="enable-background:new 0 0 960 640;"
   xml:space="preserve"
   sodipodi:docname="end-of-restricted-parking-zone.svg"
   inkscape:version="1.4.2 (2aeb623e1d, 2025-05-12)"
   xmlns:inkscape="http://www.inkscape.org/namespaces/inkscape"
   xmlns:sodipodi="http://sodipodi.sourceforge.net/DTD/sodipodi-0.dtd"
   xmlns="http://www.w3.org/2000/svg"
   xmlns:svg="http://www.w3.org/2000/svg"><defs
   id="defs15"><rect
   x="672.50794"
   y="247.87302"
   width="390.60203"
   height="344.57007"
   id="rect16" />
	
	
	
	
	
	
	
	
	
	
	
	
	
	
	
	
	
	
	
	
	
	
	
</defs><sodipodi:namedview
   id="namedview15"
   pagecolor="#ffffff"
   bordercolor="#111111"
   borderopacity="1"
   inkscape:showpageshadow="0"
   inkscape:pageopacity="0"
   inkscape:pagecheckerboard="1"
   inkscape:deskcolor="#d1d1d1"
   inkscape:zoom="1"
   inkscape:cx="686.5"
   inkscape:cy="182.5"
   inkscape:window-width="2494"
   inkscape:window-height="1369"
   inkscape:window-x="66"
   inkscape:window-y="32"
   inkscape:window-maximized="1"
   inkscape:current-layer="Layer_1" />
<style
   type="text/css"
   id="style1">
	.st0{fill-rule:evenodd;clip-rule:evenodd;fill:#FFFFFF;}
	.st1{fill-rule:evenodd;clip-rule:evenodd;fill:#BEBEBE;}
	.st2{fill-rule:evenodd;clip-rule:evenodd;}
</style>
<polygon
   class="st0"
   points="337.9,565.6 329.2,555.2 329.2,82.8 343.8,73.3 622.2,73.3 631.6,87 631.6,557.8 622.2,565.6 "
   id="polygon1"
   transform="matrix(1,0,0,1.1843389,0,-63.512036)" /><path
   class="st1"
   d="m 480.4,53.4 c 67.2,0 121.7,54.6 121.7,122 0,67.3 -54.5,122 -121.7,122 -67.2,0 -121.8,-54.6 -121.8,-122 0,-67.4 54.6,-122 121.8,-122"
   id="path1" /><path
   class="st0"
   d="m 480.4,77.8 c 53.8,0 97.5,43.7 97.5,97.6 0,53.9 -43.7,97.6 -97.5,97.6 -53.8,0 -97.5,-43.7 -97.5,-97.6 0,-53.9 43.7,-97.6 97.5,-97.6"
   id="path2" /><g
   id="g16"
   transform="matrix(1.3477269,0,0,1.3477269,412.31534,89.94553)"><g
     id="gold">
	
		<radialGradient
   id="face_1_"
   cx="63.599998"
   cy="1104.9"
   r="56.959702"
   gradientTransform="translate(0,-1042)"
   gradientUnits="userSpaceOnUse">
		<stop
   offset="0.5"
   style="stop-color:#FDE030"
   id="stop1" />
		<stop
   offset="0.92"
   style="stop-color:#F7C02B"
   id="stop2" />
		<stop
   offset="1"
   style="stop-color:#F4A223"
   id="stop3" />
	</radialGradient>
	<path
   id="face"
   style="fill:url(#face_1_)"
   d="M 63.6,118.8 C 35.7,118.8 5.6,101.3 5.6,62.9 5.6,24.5 35.7,7 63.6,7 c 15.5,0 29.8,5.1 40.4,14.4 11.5,10.2 17.6,24.6 17.6,41.5 0,16.9 -6.1,31.2 -17.6,41.4 -10.6,9.3 -25,14.5 -40.4,14.5 z" />
	
		<linearGradient
   id="face-2_1_"
   gradientUnits="userSpaceOnUse"
   x1="63.599998"
   y1="1160.8"
   x2="63.599998"
   y2="1049"
   gradientTransform="translate(0,-1042)">
		<stop
   offset="0"
   style="stop-color:#F4A223"
   id="stop4" />
		<stop
   offset="0.08"
   style="stop-color:#F7C02B"
   id="stop5" />
		<stop
   offset="0.54"
   style="stop-color:#FDE030;stop-opacity:0"
   id="stop6" />
	</linearGradient>
	<path
   id="face-2"
   style="fill:url(#face-2_1_)"
   d="M 63.6,118.8 C 35.7,118.8 5.6,101.3 5.6,62.9 5.6,24.5 35.7,7 63.6,7 c 15.5,0 29.8,5.1 40.4,14.4 11.5,10.2 17.6,24.6 17.6,41.5 0,16.9 -6.1,31.2 -17.6,41.4 -10.6,9.3 -25,14.5 -40.4,14.5 z" />
	<path
   style="fill:#eb8f00"
   d="m 111.49,29.67 c 5.33,8.6 8.11,18.84 8.11,30.23 0,16.9 -6.1,31.2 -17.6,41.4 -10.6,9.3 -25,14.5 -40.4,14.5 -18.06,0 -37,-7.35 -48.18,-22.94 10.76,17.66 31,25.94 50.18,25.94 15.4,0 29.8,-5.2 40.4,-14.5 11.5,-10.2 17.6,-24.5 17.6,-41.4 0,-12.74 -3.47,-24.06 -10.11,-33.23 z"
   id="path6-9" />
</g><g
     id="faces">
	<g
   id="palm">
		
			<radialGradient
   id="prop_1_"
   cx="41.450001"
   cy="25.006201"
   r="59.4319"
   gradientTransform="matrix(1,0,0,-0.94,0,107.02)"
   gradientUnits="userSpaceOnUse">
			<stop
   offset="0.27"
   style="stop-color:#FFF176"
   id="stop7" />
			<stop
   offset="1"
   style="stop-color:#FFC400"
   id="stop8" />
		</radialGradient>
		<path
   id="prop"
   style="fill:url(#prop_1_)"
   d="m 6.36,75.1 c -1.82,2.21 2.05,8.08 2.74,11.07 1.66,7.22 0,9 -0.13,15.42 -0.11,7.06 2,13 7.38,16.79 5.06,3.59 11.16,5.43 18.96,3.13 7.8,-2.3 12.54,-4.84 12.94,-8.68 0.22,-1.59 -0.62,-3.15 -2.08,-3.83 0.78,-0.37 1.4,-1 1.75,-1.79 1.86,-4.44 -1.85,-5.38 -1.85,-5.38 0.51,-0.61 0.94,-1.28 1.28,-2 1.11,-2.21 0.93,-5.21 -2.27,-6.19 -1.47,-0.45 -1.87,-0.21 -1.87,-0.21 1.52,-1.56 3.34,-2.81 5.35,-3.65 5.38,-2.31 11.76,-3.71 13.35,-5.06 2.31,-2 2.45,-5.85 -1.63,-7 C 54.42,76 43.64,80 37.08,84.17 30.52,88.34 24.5,90.59 22.5,89.83 c -2,-0.76 -3.24,-2 -4,-5 C 17.09,79.25 16,77.09 13.61,75 11.63,73.3 7.76,73.4 6.36,75.1 Z" />
		<path
   style="fill:#eb8f00"
   d="M 64.19,80.38 C 63.52,71.22 45.48,76.88 36.27,82.91 24.82,90.41 23.14,89.08 22.02,88.38 20.67,87.54 19.82,86.84 19.16,84.24 17.67,78.36 17.26,76.2 14.58,73.86 12.34,71.79 5.59,71.84 5.14,75.12 4.65,78.65 6.65,79.31 8,86.1 c 1.67,6.88 1,14.48 1,14.48 0,0 3.12,-7.25 0.12,-18.55 -0.61,-3.05 -3.51,-7.72 1.39,-7.19 4.74,0.51 5.05,4.64 6.53,10.35 0.82,3.23 1.66,5.13 4.92,6.03 3.24,0.89 10.73,-3.27 16.11,-6.69 6.59,-4.19 16.36,-7.85 21.49,-6.35 2.22,0.48 3.7,3.35 1.37,5.38 -3.7,3.49 -17.93,5.06 -26.5,14.33 0,0 1.04,0.38 2.6,-0.39 1.57,-0.77 7.43,-3.67 7.43,-3.67 1.75,0.74 2.59,3.65 1.64,5.2 -1.54,2.51 -7.53,5.98 -10.52,5.83 0,0 -0.05,1.53 2.95,1.12 0.95,-0.13 4.88,-0.99 7.63,-3.12 2.05,1.48 1.47,4 -0.07,5.82 -1.53,1.81 -5.27,4.15 -9.12,4.56 0,0 -0.38,1.46 2.21,1.43 2.59,-0.03 5.4,-1.35 7.47,-2.96 0.31,0.49 0.6,1.56 0.25,3.03 -0.54,2.27 -3.59,4.57 -9.48,5.85 -5.43,1.18 -11.55,2.01 -23.36,-4.12 0,0 4.41,5.73 15.92,6.75 11.04,0.98 23.93,-3.91 18.76,-13.72 0,0 1.12,-1.66 1.26,-3.94 0.1,-1.56 -0.39,-3.69 -1.54,-4.66 1.08,-3.18 0.74,-5.38 0.05,-6.68 -0.46,-0.86 -1.62,-1.7 -1.62,-1.7 0,0 2.29,-2.07 9.04,-3.81 4.33,-1.13 8.67,-2.73 8.26,-8.33 z"
   id="path8" />
	</g>
	<path
   style="fill:#eb8f00"
   d="m 18.64,82.13 c 0,0 4.83,7.86 15.47,2.16 0,0 -6.53,6.85 -11.61,5.54 -5.08,-1.31 -3.86,-7.7 -3.86,-7.7 z"
   id="path9" />
	<path
   style="fill:#eb8f00"
   d="m 49,95.54 c 0,0 2.46,-5.28 6.94,-6.85 0,0 -7.28,0.62 -10.05,3.61 z"
   id="path10" />
</g><g
     id="facial_expressions">
	<g
   id="thinking-face">
		<path
   id="mouth"
   style="fill:#422b0d"
   d="M 76.87,71.31 C 76.55,71.25 76.25,71.12 76,70.91 71.49,67.29 66.11,64.93 60.4,64.05 c -5.71,-0.99 -11.57,-0.45 -17,1.56 -0.3,0.12 -0.62,0.16 -0.94,0.11 v 0 C 41.76,65.6 41.19,65.08 41,64.39 c -0.19,-0.68 0.04,-1.4 0.58,-1.85 10.6,-8.8 26.32,-7.34 35.12,3.26 0.72,0.87 1.38,1.79 1.98,2.74 0.38,0.59 0.38,1.35 0,1.94 -0.39,0.61 -1.1,0.93 -1.81,0.83 z" />
		<g
   id="eyes">
			<path
   style="fill:#422b0d"
   d="m 80.77,31.11 v 0 c 4.19,0 8,3.54 8,9.42 0,5.88 -3.81,9.41 -8,9.41 v 0 c -4.19,0 -8,-3.54 -8,-9.41 0,-5.87 3.81,-9.42 8,-9.42 z"
   id="path11-4" />
			<path
   style="fill:#422b0d"
   d="m 46.14,22 v 0 c -4.19,0 -8,3.54 -8,9.41 0,5.87 3.81,9.42 8,9.42 v 0 c 4.2,0 8,-3.54 8,-9.42 0,-5.88 -3.8,-9.41 -8,-9.41 z"
   id="path12-7" />
		</g>
	</g>
	<path
   id="eyebrows"
   style="fill:#422b0d"
   d="M 39.73,10.63 C 39.28,9.89 39.22,8.97 39.57,8.18 c 0.38,-0.79 1.13,-1.33 2,-1.44 5.45,-0.85 11.01,0.44 15.53,3.59 1.69,1.16 3.19,2.56 4.46,4.17 0.08,0.1 0.15,0.21 0.22,0.33 0.68,1.06 0.45,2.46 -0.53,3.25 -1.05,0.87 -2.59,0.84 -3.6,-0.08 l 0.42,-0.68 -0.51,0.6 C 53.18,14.26 47.7,12.17 42,12 41.05,12 40.17,11.5 39.69,10.68 Z" />
	<path
   id="eyebrows-2"
   style="fill:#422b0d"
   d="m 93,28.52 c 0.74,-0.41 1.24,-1.16 1.34,-2 0.06,-0.87 -0.31,-1.71 -1,-2.24 -4.33,-3.45 -9.83,-5.1 -15.34,-4.58 -2.04,0.17 -4.04,0.65 -5.94,1.42 l -0.36,0.17 c -1.11,0.59 -1.6,1.92 -1.14,3.09 0.49,1.27 1.82,1.99 3.15,1.7 v -0.8 l 0.14,0.78 c 5.6,-1.04 11.39,-0.17 16.44,2.47 0.83,0.47 1.84,0.47 2.67,0 z" />
	<g
   id="g13">
		<g
   id="peepers_146_">
			<path
   style="fill:#896024"
   d="m 45.96,25.15 v 0 c -1.03,-0.72 -2.58,-0.49 -3.58,0.95 -1,1.45 -0.67,2.97 0.36,3.69 v 0 c 1.03,0.72 2.58,0.49 3.58,-0.95 1,-1.45 0.67,-2.97 -0.36,-3.69 z"
   id="path13-8" />
		</g>
	</g>
	<g
   id="g14">
		<g
   id="peepers_145_">
			<path
   style="fill:#896024"
   d="m 80.57,33.71 v 0 c -1.03,-0.72 -2.58,-0.49 -3.58,0.95 -1,1.45 -0.67,2.97 0.36,3.69 v 0 c 1.03,0.72 2.58,0.49 3.58,-0.95 1.01,-1.45 0.68,-2.97 -0.36,-3.69 z"
   id="path14-4" />
		</g>
	</g>
</g></g><polygon
   class="st1"
   points="567.3,293.6 412.3,138.3 393.4,157.3 548.5,312.6 "
   id="polygon2"
   transform="translate(0,-50)" /><polygon
   class="st2"
   points="633.5,103.1 630,99.7 354.9,375.4 358.4,378.8 "
   id="polygon7"
   transform="translate(0,-50)" /><polygon
   class="st2"
   points="633.6,89.2 630.1,85.8 341,375.6 344.4,379 "
   id="polygon8"
   transform="translate(0,-50)" /><polygon
   class="st2"
   points="629.5,79.4 626.1,75.9 331.1,371.6 334.5,375.1 "
   id="polygon9"
   transform="translate(0,-50)" /><polygon
   class="st2"
   points="619.6,75.6 616.1,72.2 327.2,361.8 330.6,365.2 "
   id="polygon10"
   transform="translate(0,-50)" /><polygon
   class="st2"
   points="605.5,75.9 602,72.5 328,347.1 331.4,350.6 "
   id="polygon11"
   transform="translate(0,-50)" /><path
   class="st2"
   d="m 618.8,322.9 v 0 c 9,0 16.3,7.4 16.3,16.3 v 0 h -8.2 v 0 c 0,-4.5 -3.6,-8.1 -8.1,-8.1 v 0 z"
   id="path11" /><path
   class="st2"
   d="m 618.8,331.1 v 0 c 9,0 16.3,-7.3 16.3,-16.3 v 0 h -8.2 v 0 c 0,4.5 -3.6,8.1 -8.1,8.1 v 0 z"
   id="path12" /><path
   class="st2"
   d="m 341.6,322.9 v 0 c -8.9,0 -16.3,7.4 -16.3,16.3 v 0 h 8.2 v 0 c 0,-4.5 3.6,-8.1 8.1,-8.1 v 0 z"
   id="path13" /><path
   class="st2"
   d="m 341.6,331.1 v 0 c -8.9,0 -16.3,-7.3 -16.3,-16.3 v 0 h 8.2 v 0 c 0,4.5 3.6,8.1 8.1,8.1 v 0 z"
   id="path14" /><polygon
   class="st2"
   points="341.6,381.1 341.6,372.9 618.8,372.9 618.8,381.1 "
   id="polygon14"
   transform="translate(0,-50)" /><path
   d="m 333.1,36.7 v 0 c 0,-4.6 3.6,-8.2 8.1,-8.2 v -8.2 h -0.1 c -8.9,0 -16.2,7.3 -16.2,16.3 v 0 z m 8.1,-16.4 v 8.2 h 277.7 v -8.2 z m 277.6,8.2 v 0 c 4.5,0 8.1,3.6 8.1,8.1 v 0.1 l 8.2,-0.1 v 0 c 0,-8.9 -7.3,-16.3 -16.3,-16.3 v 0 z"
   id="path3" /><path
   d="M 324.9,36.7 V 597.4 H 333 V 36.7 Z"
   id="path7"
   sodipodi:nodetypes="ccccc" /><path
   d="m 341.2,605.5 v 0 c -4.5,0 -8.1,-3.6 -8.1,-8.1 v 0 h -8.2 v 0 c 0,9 7.3,16.3 16.3,16.3 v 0 z"
   id="path6"
   sodipodi:nodetypes="cssccsscc" /><path
   d="m 341.2,605.6 v 8.1 h 277.59844 l 0.002,-8.20536 z"
   id="path5" /><path
   d="m 626.9,36.7 v 560.7 h 8.2 V 36.7 Z"
   id="path4"
   sodipodi:nodetypes="ccccc" /><path
   d="m 635.1,597.4 v 0 c 0,9 -7.3,16.3 -16.3,16.3 v 0 -8.2 0 c 4.5,0 8.1,-3.6 8.1,-8.1 v 0 z"
   id="path15" />
<text
   xml:space="preserve"
   id="text16"
   style="font-style:normal;font-variant:normal;font-weight:bold;font-stretch:normal;font-size:42.6667px;line-height:1.25;font-family:Arial;-inkscape-font-specification:'Arial, Bold';font-variant-ligatures:none;font-variant-caps:normal;font-variant-numeric:normal;font-variant-east-asian:normal;text-align:center;white-space:pre;shape-inside:url(#rect16)"
   transform="matrix(0.77238237,0,0,0.77238237,-193.04699,147.14028)"><tspan
     x="704.69051"
     y="286.30526"
     id="tspan5"><tspan
   style="font-weight:normal;font-size:34.5252px;font-family:Sans;-inkscape-font-specification:'Sans, Normal'"
   id="tspan4">If they want you to</tspan>
</tspan><tspan
     x="685.26736"
     y="353.13588"
     id="tspan10"><tspan
   style="font-size:58.6929px;font-family:Sans;-inkscape-font-specification:'Sans, Bold'"
   id="tspan8">NOT THINK</tspan>
</tspan><tspan
     x="795.85862"
     y="413.00476"
     id="tspan12"><tspan
   style="font-weight:normal;font-size:34.5252px;font-family:Sans;-inkscape-font-specification:'Sans, Normal'"
   id="tspan11">they are</tspan>
</tspan><tspan
     x="701.52621"
     y="487.47206"
     id="tspan14"><tspan
       style="font-size:56.9666px;font-family:Sans;-inkscape-font-specification:'Sans, Bold'"
       id="tspan13">NOT YOUR </tspan></tspan><tspan
     x="703.01551"
     y="571.6273"
     id="tspan16"><tspan
       style="font-size:67.3242px;font-family:Sans;-inkscape-font-specification:'Sans, Bold'"
       id="tspan15">FRIENDS</tspan></tspan></text></svg>
