<?xml version="1.0" encoding="UTF-8" standalone="no"?>
<!-- Created with Inkscape (http://www.inkscape.org/) -->

<svg
   width="25mm"
   height="50mm"
   viewBox="0 0 25 50"
   version="1.1"
   id="svg5"
   inkscape:version="1.4.2 (2aeb623e1d, 2025-05-12)"
   sodipodi:docname="the_underbar_sticker-5-nofont.svg"
   inkscape:export-filename="../ef0a012c/the_underbar_sticker-5.png"
   inkscape:export-xdpi="1200"
   inkscape:export-ydpi="1200"
   xmlns:inkscape="http://www.inkscape.org/namespaces/inkscape"
   xmlns:sodipodi="http://sodipodi.sourceforge.net/DTD/sodipodi-0.dtd"
   xmlns="http://www.w3.org/2000/svg"
   xmlns:svg="http://www.w3.org/2000/svg"
   xmlns:rdf="http://www.w3.org/1999/02/22-rdf-syntax-ns#"
   xmlns:cc="http://creativecommons.org/ns#"
   xmlns:dc="http://purl.org/dc/elements/1.1/">
  <title
     id="title1463">The Underbar</title>
  <sodipodi:namedview
     id="namedview7"
     pagecolor="#dfdfdf"
     bordercolor="#000000"
     borderopacity="0.25"
     inkscape:showpageshadow="2"
     inkscape:pageopacity="0.0"
     inkscape:pagecheckerboard="0"
     inkscape:deskcolor="#d1d1d1"
     inkscape:document-units="mm"
     showgrid="false"
     inkscape:zoom="3.6744215"
     inkscape:cx="47.218317"
     inkscape:cy="101.24043"
     inkscape:window-width="1107"
     inkscape:window-height="1196"
     inkscape:window-x="26"
     inkscape:window-y="23"
     inkscape:window-maximized="0"
     inkscape:current-layer="text1"
     showguides="true">
    <sodipodi:guide
       position="26.793409,25.64458"
       orientation="1,0"
       id="guide2"
       inkscape:locked="false" />
  </sodipodi:namedview>
  <defs
     id="defs2">
    <rect
       x="270.17303"
       y="71.871269"
       width="1.0492156"
       height="37.771763"
       id="rect19" />
    <rect
       x="101.26202"
       y="1.2090988"
       width="107.15018"
       height="54.687717"
       id="rect1" />
    <rect
       x="101.26202"
       y="1.2090988"
       width="133.80026"
       height="111.31913"
       id="rect1-3" />
  </defs>
  <g
     inkscape:label="Layer 1"
     inkscape:groupmode="layer"
     id="layer1"
     transform="translate(-50.144562,-144.06438)">
    <path
       id="rect3"
       style="vector-effect:non-scaling-stroke;fill:#fcfcfc;stroke-width:0.243296;stroke-opacity:0.75;-inkscape-stroke:hairline"
       d="M 59.083551 144.06438 C 56.852091 144.06238 54.989578 145.56366 54.542226 147.56546 C 54.278752 147.50616 54.007251 147.46706 53.725222 147.46676 C 51.753676 147.46476 50.153463 148.98932 50.151797 150.87017 L 50.151797 150.88825 L 50.151797 150.88877 C 50.143918 157.54946 50.143873 163.74378 50.145079 170.02559 C 50.14459 170.03849 50.144562 170.05131 50.144562 170.06434 L 50.144562 171.56451 L 50.144562 191.56432 L 50.144562 193.06449 C 50.144562 193.61849 50.590501 194.06443 51.144501 194.06443 L 52.628131 194.06443 L 72.661017 194.06443 L 74.144647 194.06443 C 74.698647 194.06443 75.144586 193.61849 75.144586 193.06449 L 75.144586 191.57569 C 75.144603 191.57197 75.144586 191.56805 75.144586 191.56432 L 75.144586 183.2222 L 75.144586 171.56451 L 75.144586 171.56141 L 75.144586 170.06434 L 75.144586 150.88722 C 75.146686 148.62969 73.230127 146.7982 70.863711 146.79651 L 70.863711 146.79858 C 69.876158 146.7979 68.968764 147.11885 68.244232 147.65382 C 67.534163 146.3365 66.098472 145.43291 64.438263 145.43174 C 63.832022 145.43132 63.256392 145.55193 62.733458 145.76815 C 61.88533 144.73414 60.567377 144.06642 59.083551 144.06541 L 59.083551 144.06438 z " />
    <g
       id="text1"
       style="font-size:24px;line-height:0;font-family:'Courier New';-inkscape-font-specification:'Courier New, Normal';text-align:end;white-space:pre;shape-padding:2.6218;stroke-width:0.585827"
       transform="matrix(0.25,0,0,0.25,21.497508,179.97125)"
       aria-label="Perl**CPAN&#10;Human&#10;(Podcast)">
      <path
         style="font-size:14.1111px;line-height:1;letter-spacing:-0.0740833px"
         d="m 124.75394,11.314642 v 2.728514 h 1.98438 q 0.2067,0 0.29628,0.08268 0.0896,0.07579 0.0896,0.206705 0,0.124024 -0.0896,0.206706 -0.0896,0.08268 -0.29628,0.08268 h -3.34174 q -0.20671,0 -0.29628,-0.08268 -0.0896,-0.08268 -0.0896,-0.206706 0,-0.130913 0.0896,-0.206705 0.0896,-0.08268 0.29628,-0.08268 h 0.77859 V 7.1391895 h -0.77859 q -0.20671,0 -0.29628,-0.075792 -0.0896,-0.082682 -0.0896,-0.2135958 0,-0.1309135 0.0896,-0.2067056 0.0896,-0.082682 0.29628,-0.082682 h 3.36241 q 1.192,0 1.94303,0.7027989 0.75792,0.702799 0.75792,1.6467544 0,0.558105 -0.24805,1.0059671 -0.24115,0.4478617 -0.58566,0.7027987 -0.51677,0.385851 -1.06798,0.564995 -0.39963,0.130914 -0.99219,0.130914 z m 0,-0.578776 h 1.84657 q 0.64079,0 1.1989,-0.282497 0.56499,-0.289388 0.81993,-0.7027991 0.26183,-0.4134112 0.26183,-0.8406027 0,-0.6821284 -0.58567,-1.226453 -0.58567,-0.5443247 -1.48139,-0.5443247 h -2.06017 z m 12.78301,1.040418 h -5.898 q 0.15158,1.123101 0.93706,1.812119 0.79238,0.682129 1.95682,0.682129 0.64767,0 1.35736,-0.213596 0.70969,-0.213596 1.15755,-0.564995 0.13092,-0.103353 0.22738,-0.103353 0.11024,0 0.19293,0.08957 0.0827,0.08268 0.0827,0.199816 0,0.117133 -0.11025,0.227376 -0.33072,0.344509 -1.17822,0.647677 -0.8406,0.296278 -1.72943,0.296278 -1.48828,0 -2.48736,-0.971516 -0.99219,-0.978406 -0.99219,-2.363334 0,-1.260904 0.93018,-2.1635179 0.93706,-0.9026143 2.3151,-0.9026143 1.41938,0 2.33577,0.930175 0.9164,0.9232852 0.90262,2.3977842 z m -0.58567,-0.585665 q -0.17225,-0.957736 -0.9095,-1.5571823 -0.73036,-0.5994461 -1.74322,-0.5994461 -1.01286,0 -1.74322,0.5925559 -0.73036,0.5925555 -0.9095,1.5640725 z m 5.15557,-2.5355887 V 10.11575 q 1.12999,-1.0197478 1.6881,-1.3091356 0.56499,-0.296278 1.04041,-0.296278 0.51677,0 0.95774,0.3513995 0.44786,0.3445093 0.44786,0.5236541 0,0.1309135 -0.0896,0.220486 -0.0827,0.082682 -0.2136,0.082682 -0.0689,0 -0.11713,-0.020671 -0.0482,-0.027561 -0.17915,-0.1584742 -0.24115,-0.2411565 -0.4203,-0.3307289 -0.17914,-0.089572 -0.3514,-0.089572 -0.37896,0 -0.91639,0.3031682 -0.53054,0.3031682 -1.84657,1.4813898 v 3.169486 H 144.67 q 0.21359,0 0.30317,0.08268 0.0896,0.07579 0.0896,0.206705 0,0.124024 -0.0896,0.206706 -0.0896,0.08268 -0.30317,0.08268 h -4.54063 q -0.20671,0 -0.29628,-0.07579 -0.0896,-0.08268 -0.0896,-0.206706 0,-0.117133 0.0827,-0.192925 0.0896,-0.08268 0.30317,-0.08268 h 1.3987 V 9.2406961 h -1.06797 q -0.20671,0 -0.29628,-0.082682 -0.0896,-0.082682 -0.0896,-0.2135958 0,-0.1240233 0.0827,-0.2067055 0.0896,-0.082682 0.30317,-0.082682 z m 9.37925,-2.6802822 v 8.0684079 h 2.27376 q 0.2136,0 0.30317,0.08268 0.0896,0.07579 0.0896,0.206705 0,0.124024 -0.0896,0.206706 -0.0896,0.08268 -0.30317,0.08268 h -5.1263 q -0.2067,0 -0.29627,-0.08268 -0.0896,-0.08268 -0.0896,-0.206706 0,-0.130913 0.0896,-0.206705 0.0896,-0.08268 0.29627,-0.08268 h 2.27377 V 6.5604139 h -1.66743 q -0.2067,0 -0.30317,-0.082682 -0.0896,-0.082682 -0.0896,-0.2135958 0,-0.1240233 0.0896,-0.2067055 0.0896,-0.082682 0.30317,-0.082682 z m 7.78073,2.3702239 V 6.3674887 q 0,-0.2135957 0.0827,-0.3031682 0.0827,-0.089572 0.2136,-0.089572 0.12402,0 0.2067,0.089572 0.0827,0.089573 0.0827,0.3031682 V 8.344972 l 1.88102,-0.6132265 q 0.13091,-0.041341 0.19981,-0.041341 0.11024,0 0.19293,0.089572 0.0827,0.082682 0.0827,0.1998153 0,0.1033528 -0.062,0.1791449 -0.0551,0.075792 -0.23427,0.1309135 l -1.88102,0.6132265 1.16444,1.598523 q 0.11025,0.158474 0.11025,0.248047 0,0.124023 -0.0896,0.213596 -0.0827,0.08268 -0.19981,0.08268 -0.15159,0 -0.29628,-0.199816 l -1.16444,-1.6054129 -1.16444,1.6054129 q -0.1447,0.199816 -0.28939,0.199816 -0.12402,0 -0.2136,-0.08268 -0.0827,-0.08957 -0.0827,-0.213596 0,-0.08957 0.11713,-0.248047 l 1.16445,-1.598523 -1.88792,-0.6201167 q -0.17225,-0.055121 -0.23426,-0.1240233 -0.0551,-0.075792 -0.0551,-0.1791449 0,-0.1171331 0.0827,-0.1998153 0.0827,-0.089572 0.18603,-0.089572 0.0758,0 0.20671,0.041341 z m 8.39396,0 V 6.3674887 q 0,-0.2135957 0.0827,-0.3031682 0.0827,-0.089572 0.21359,-0.089572 0.12403,0 0.20671,0.089572 0.0827,0.089573 0.0827,0.3031682 V 8.344972 l 1.88102,-0.6132265 q 0.13092,-0.041341 0.19982,-0.041341 0.11024,0 0.19292,0.089572 0.0827,0.082682 0.0827,0.1998153 0,0.1033528 -0.062,0.1791449 -0.0551,0.075792 -0.23426,0.1309135 l -1.88102,0.6132265 1.16444,1.598523 q 0.11024,0.158474 0.11024,0.248047 0,0.124023 -0.0896,0.213596 -0.0827,0.08268 -0.19982,0.08268 -0.15158,0 -0.29628,-0.199816 l -1.16444,-1.6054129 -1.16444,1.6054129 q -0.14469,0.199816 -0.28939,0.199816 -0.12402,0 -0.21359,-0.08268 -0.0827,-0.08957 -0.0827,-0.213596 0,-0.08957 0.11713,-0.248047 l 1.16444,-1.598523 -1.88791,-0.6201167 q -0.17225,-0.055121 -0.23427,-0.1240233 -0.0551,-0.075792 -0.0551,-0.1791449 0,-0.1171331 0.0827,-0.1998153 0.0827,-0.089572 0.18604,-0.089572 0.0758,0 0.2067,0.041341 z m 11.26027,-0.9921867 v -0.406521 q 0,-0.2067056 0.0758,-0.296278 0.0827,-0.089572 0.2136,-0.089572 0.13091,0 0.2067,0.089572 0.0827,0.089572 0.0827,0.296278 v 1.6054133 q 0,0.2135957 -0.0827,0.3031681 -0.0758,0.089572 -0.2067,0.089572 -0.11714,0 -0.19982,-0.082682 -0.0758,-0.082682 -0.0896,-0.2687172 -0.0345,-0.5787756 -0.62701,-1.0266377 -0.79926,-0.6132265 -1.81901,-0.6132265 -0.66835,0 -1.2609,0.296278 -0.44097,0.2135957 -0.7028,0.5236541 -0.45475,0.5374345 -0.72347,1.1920021 -0.19293,0.482313 -0.19293,1.0886493 v 1.012857 q 0,1.295355 0.93707,2.253091 0.93706,0.950846 2.1773,0.950846 0.74414,0 1.3298,-0.323839 0.59256,-0.323839 1.14377,-0.978406 0.11714,-0.144694 0.26183,-0.144694 0.12403,0 0.19982,0.07579 0.0758,0.07579 0.0758,0.192925 0,0.158474 -0.29628,0.482313 -0.56499,0.633897 -1.27468,0.957736 -0.7028,0.316948 -1.42627,0.316948 -0.62701,0 -1.27469,-0.241156 -0.49609,-0.186035 -0.81993,-0.434082 -0.32384,-0.248047 -0.79926,-0.833712 -0.46853,-0.592556 -0.64079,-1.08865 -0.17225,-0.502983 -0.17225,-1.102429 V 9.9710558 q 0,-0.854383 0.45475,-1.743217 0.46164,-0.8957241 1.25401,-1.3711469 0.79927,-0.482313 1.72944,-0.482313 1.43316,0 2.46669,0.9784064 z m 4.59057,3.9618567 v 2.728514 h 1.98437 q 0.20671,0 0.29628,0.08268 0.0896,0.07579 0.0896,0.206705 0,0.124024 -0.0896,0.206706 -0.0896,0.08268 -0.29628,0.08268 h -3.34174 q -0.2067,0 -0.29627,-0.08268 -0.0896,-0.08268 -0.0896,-0.206706 0,-0.130913 0.0896,-0.206705 0.0896,-0.08268 0.29627,-0.08268 h 0.77859 V 7.1391895 h -0.77859 q -0.2067,0 -0.29627,-0.075792 -0.0896,-0.082682 -0.0896,-0.2135958 0,-0.1309135 0.0896,-0.2067056 0.0896,-0.082682 0.29627,-0.082682 h 3.36241 q 1.19201,0 1.94304,0.7027989 0.75792,0.702799 0.75792,1.6467544 0,0.558105 -0.24805,1.0059671 -0.24116,0.4478617 -0.58567,0.7027987 -0.51676,0.385851 -1.06797,0.564995 -0.39963,0.130914 -0.99219,0.130914 z m 0,-0.578776 h 1.84657 q 0.64079,0 1.19889,-0.282497 0.565,-0.289388 0.81993,-0.7027991 0.26183,-0.4134112 0.26183,-0.8406027 0,-0.6821284 -0.58566,-1.226453 -0.58567,-0.5443247 -1.48139,-0.5443247 h -2.06017 z m 11.55655,1.192003 h -3.80338 l -0.77859,2.115287 h 1.10932 q 0.2067,0 0.29628,0.08268 0.0896,0.07579 0.0896,0.206705 0,0.124024 -0.0896,0.206706 -0.0896,0.08268 -0.29628,0.08268 h -2.16352 q -0.20671,0 -0.29628,-0.08268 -0.0896,-0.08268 -0.0896,-0.206706 0,-0.130913 0.0896,-0.206705 0.0896,-0.08268 0.29628,-0.08268 h 0.44786 l 2.55626,-6.9039665 h -1.70877 q -0.2067,0 -0.29627,-0.075792 -0.0896,-0.082682 -0.0896,-0.2135958 0,-0.1309135 0.0896,-0.2067056 0.0896,-0.082682 0.29627,-0.082682 h 2.91455 l 2.82498,7.4827421 h 0.44786 q 0.20671,0 0.29628,0.08268 0.0896,0.07579 0.0896,0.206705 0,0.124024 -0.0896,0.206706 -0.0896,0.08268 -0.29628,0.08268 h -2.15663 q -0.21359,0 -0.30317,-0.08268 -0.0896,-0.08268 -0.0896,-0.206706 0,-0.130913 0.0896,-0.206705 0.0896,-0.08268 0.30317,-0.08268 h 1.10243 z m -0.22048,-0.578776 -1.59853,-4.2099035 h -0.21359 l -1.5503,4.2099035 z m 9.54462,3.272838 h -0.74414 l -4.26503,-7.2140243 v 6.6352493 h 1.06798 q 0.21359,0 0.30317,0.08268 0.0896,0.07579 0.0896,0.206705 0,0.124024 -0.0896,0.206706 -0.0896,0.08268 -0.30317,0.08268 h -2.12907 q -0.21359,0 -0.30317,-0.08268 -0.0896,-0.08268 -0.0896,-0.206706 0,-0.130913 0.0896,-0.206705 0.0896,-0.08268 0.30317,-0.08268 h 0.48231 V 7.1391895 h -0.77859 q -0.2067,0 -0.29627,-0.075792 -0.0896,-0.082682 -0.0896,-0.2135958 0,-0.1309135 0.0896,-0.2067056 0.0896,-0.082682 0.29627,-0.082682 h 1.51584 l 4.27192,7.2278051 V 7.1391895 h -1.06798 q -0.2067,0 -0.29628,-0.075792 -0.0896,-0.082682 -0.0896,-0.2135958 0,-0.1309135 0.0827,-0.2067056 0.0896,-0.082682 0.30317,-0.082682 h 2.13596 q 0.2067,0 0.29628,0.082682 0.0896,0.075792 0.0896,0.2067056 0,0.1309135 -0.0896,0.2135958 -0.0896,0.075792 -0.29628,0.075792 h -0.4892 z"
         id="path4" />
      <path
         style="font-size:14.1111px;line-height:1;letter-spacing:-0.0740833px"
         d="m 169.94143,24.833185 h -3.83783 v 3.32107 h 0.77859 q 0.20671,0 0.29628,0.08268 0.0896,0.07579 0.0896,0.206706 0,0.124023 -0.0896,0.206705 -0.0896,0.08268 -0.29628,0.08268 h -2.01193 q -0.20671,0 -0.29628,-0.08268 -0.0896,-0.08268 -0.0896,-0.206705 0,-0.130914 0.0896,-0.206706 0.0896,-0.08268 0.29628,-0.08268 h 0.65457 v -6.903966 h -0.35829 q -0.2136,0 -0.30317,-0.07579 -0.0896,-0.08268 -0.0896,-0.213596 0,-0.130914 0.0896,-0.206706 0.0896,-0.08268 0.30317,-0.08268 h 1.71565 q 0.20671,0 0.29628,0.08268 0.0896,0.07579 0.0896,0.206706 0,0.130913 -0.0896,0.213596 -0.0896,0.07579 -0.29628,0.07579 h -0.77859 v 3.004121 h 3.83783 v -3.004121 h -0.7717 q -0.2067,0 -0.29627,-0.07579 -0.0896,-0.08268 -0.0896,-0.213596 0,-0.130914 0.0827,-0.206706 0.0896,-0.08268 0.30316,-0.08268 h 1.71566 q 0.2136,0 0.30317,0.08268 0.0896,0.07579 0.0896,0.206706 0,0.130913 -0.0896,0.213596 -0.0896,0.07579 -0.30317,0.07579 h -0.35829 v 6.903966 h 0.65457 q 0.2067,0 0.29628,0.08268 0.0896,0.07579 0.0896,0.206706 0,0.124023 -0.0896,0.206705 -0.0896,0.08268 -0.29628,0.08268 h -2.01194 q -0.2067,0 -0.29627,-0.08268 -0.0896,-0.08268 -0.0896,-0.206705 0,-0.130914 0.0827,-0.206706 0.0896,-0.08268 0.30316,-0.08268 h 0.7717 z m 8.41463,3.899845 v -0.847492 q -1.18511,1.074868 -2.56315,1.074868 -0.84749,0 -1.28846,-0.461642 -0.57189,-0.606336 -0.57189,-1.412488 v -3.734481 h -0.77859 q -0.20671,0 -0.29628,-0.08268 -0.0896,-0.08268 -0.0896,-0.213596 0,-0.124023 0.0896,-0.206705 0.0896,-0.08268 0.29628,-0.08268 h 1.35737 v 4.320146 q 0,0.564995 0.35829,0.930175 0.35829,0.36518 0.89572,0.36518 1.41249,0 2.59071,-1.295355 v -3.734481 h -1.06798 q -0.2067,0 -0.29628,-0.08268 -0.0896,-0.08268 -0.0896,-0.213596 0,-0.124023 0.0896,-0.206705 0.0896,-0.08268 0.29628,-0.08268 h 1.64676 v 5.388125 h 0.4892 q 0.20671,0 0.29628,0.08268 0.0896,0.07579 0.0896,0.206706 0,0.124023 -0.0896,0.206705 -0.0896,0.08268 -0.29628,0.08268 z m 3.77753,-5.9669 v 0.585665 q 0.73725,-0.792371 1.48139,-0.792371 0.44786,0 0.78548,0.241157 0.33762,0.234266 0.565,0.716579 0.38585,-0.482313 0.77859,-0.716579 0.39963,-0.241157 0.79926,-0.241157 0.62701,0 0.99908,0.406521 0.4892,0.523654 0.4892,1.143771 v 4.044539 h 0.4892 q 0.20671,0 0.29628,0.08268 0.0896,0.07579 0.0896,0.206706 0,0.124023 -0.0896,0.206705 -0.0896,0.08268 -0.29628,0.08268 h -1.06798 v -4.568193 q 0,-0.440972 -0.26871,-0.730359 -0.26872,-0.289388 -0.62012,-0.289388 -0.31695,0 -0.66835,0.241156 -0.3514,0.234267 -0.79926,0.930175 v 3.837834 h 0.48231 q 0.20671,0 0.29628,0.08268 0.0896,0.07579 0.0896,0.206706 0,0.124023 -0.0896,0.206705 -0.0896,0.08268 -0.29628,0.08268 h -1.06797 v -4.526852 q 0,-0.461642 -0.27561,-0.75792 -0.26872,-0.303168 -0.60634,-0.303168 -0.31006,0 -0.61322,0.199815 -0.42031,0.282498 -0.88195,0.971516 v 3.837834 h 0.4892 q 0.20671,0 0.29628,0.08268 0.0896,0.07579 0.0896,0.206706 0,0.124023 -0.0896,0.206705 -0.0896,0.08268 -0.29628,0.08268 h -1.55718 q -0.2067,0 -0.29628,-0.08268 -0.0896,-0.08268 -0.0896,-0.206705 0,-0.130914 0.0896,-0.206706 0.0896,-0.08268 0.29628,-0.08268 h 0.48921 v -4.80246 h -0.48921 q -0.2067,0 -0.29628,-0.08268 -0.0896,-0.08268 -0.0896,-0.213596 0,-0.124023 0.0896,-0.206705 0.0896,-0.08268 0.29628,-0.08268 z m 12.69343,5.9669 v -0.833712 q -1.2609,1.061088 -2.69406,1.061088 -1.04042,0 -1.62608,-0.523654 -0.58567,-0.530544 -0.58567,-1.295355 0,-0.840602 0.7717,-1.467609 0.7717,-0.627007 2.25309,-0.627007 0.39963,0 0.86817,0.05512 0.46853,0.04823 1.01285,0.158474 v -0.937065 q 0,-0.475423 -0.44097,-0.826823 -0.44097,-0.351399 -1.32291,-0.351399 -0.67524,0 -1.89481,0.39274 -0.22048,0.0689 -0.28249,0.0689 -0.11025,0 -0.19293,-0.08268 -0.0758,-0.08268 -0.0758,-0.206706 0,-0.117133 0.0689,-0.186035 0.0965,-0.103352 0.77859,-0.282497 1.07487,-0.289388 1.62609,-0.289388 1.09554,0 1.70876,0.544325 0.61323,0.537434 0.61323,1.219563 v 3.830943 h 0.7717 q 0.21359,0 0.30317,0.08268 0.0896,0.07579 0.0896,0.206706 0,0.124023 -0.0896,0.206705 -0.0896,0.08268 -0.30317,0.08268 z m 0,-2.880097 q -0.40652,-0.117133 -0.86127,-0.172255 -0.45475,-0.05512 -0.95774,-0.05512 -1.2609,0 -1.97059,0.544324 -0.53743,0.406521 -0.53743,0.971516 0,0.523655 0.40652,0.881944 0.41341,0.35829 1.19889,0.35829 0.75103,0 1.39182,-0.296278 0.64767,-0.303168 1.3298,-0.957736 z m 4.85929,-3.086803 v 0.875053 q 0.60634,-0.613226 1.09554,-0.847493 0.48921,-0.234266 1.10243,-0.234266 0.66146,0 1.20578,0.282498 0.38585,0.206705 0.69591,0.689018 0.31695,0.475423 0.31695,0.978407 v 3.644908 h 0.4892 q 0.20671,0 0.29628,0.08268 0.0896,0.07579 0.0896,0.206706 0,0.124023 -0.0896,0.206705 -0.0896,0.08268 -0.29628,0.08268 h -1.55029 q -0.21359,0 -0.30317,-0.08268 -0.0896,-0.08268 -0.0896,-0.206705 0,-0.130914 0.0896,-0.206706 0.0896,-0.08268 0.30317,-0.08268 h 0.48232 v -3.548446 q 0,-0.613226 -0.44787,-1.033528 -0.44786,-0.427191 -1.19889,-0.427191 -0.57188,0 -0.99219,0.234266 -0.4203,0.227376 -1.19889,1.143771 v 3.631128 h 0.65457 q 0.20671,0 0.29628,0.08268 0.0896,0.07579 0.0896,0.206706 0,0.124023 -0.0896,0.206705 -0.0896,0.08268 -0.29628,0.08268 h -1.88791 q -0.20671,0 -0.29628,-0.08268 -0.0896,-0.08268 -0.0896,-0.206705 0,-0.130914 0.0896,-0.206706 0.0896,-0.08268 0.29628,-0.08268 h 0.65457 v -4.80246 h -0.48921 q -0.2067,0 -0.29627,-0.08268 -0.0896,-0.08268 -0.0896,-0.213596 0,-0.124023 0.0896,-0.206705 0.0896,-0.08268 0.29627,-0.08268 z"
         id="path5" />
      <path
         style="font-size:14.1111px;line-height:1;letter-spacing:-0.0740833px"
         d="m 134.3399,39.412817 q 0,-0.792371 0.20671,-1.681205 0.2067,-0.888834 0.79237,-2.053275 0.58566,-1.164442 0.85438,-1.405598 0.0827,-0.07579 0.17915,-0.07579 0.12402,0 0.2067,0.08268 0.0896,0.08268 0.0896,0.199815 0,0.0689 -0.0482,0.151584 -0.75792,1.391818 -1.08176,2.521808 -0.32384,1.129991 -0.32384,2.259981 0,1.136881 0.32384,2.266871 0.32384,1.129991 1.08176,2.514918 0.0482,0.08268 0.0482,0.151584 0,0.117133 -0.0896,0.199815 -0.0827,0.08957 -0.2067,0.08957 -0.0965,0 -0.17915,-0.07579 -0.25494,-0.234266 -0.83371,-1.371147 -0.57878,-1.136881 -0.79926,-2.011934 -0.22049,-0.875054 -0.22049,-1.763888 z m 7.20195,0.124023 v 2.728514 h 1.98438 q 0.2067,0 0.29628,0.08268 0.0896,0.07579 0.0896,0.206706 0,0.124023 -0.0896,0.206705 -0.0896,0.08268 -0.29628,0.08268 h -3.34174 q -0.20671,0 -0.29628,-0.08268 -0.0896,-0.08268 -0.0896,-0.206705 0,-0.130914 0.0896,-0.206706 0.0896,-0.08268 0.29628,-0.08268 h 0.77859 v -6.903966 h -0.77859 q -0.20671,0 -0.29628,-0.07579 -0.0896,-0.08268 -0.0896,-0.213596 0,-0.130913 0.0896,-0.206705 0.0896,-0.08268 0.29628,-0.08268 h 3.36241 q 1.192,0 1.94303,0.702799 0.75792,0.702799 0.75792,1.646755 0,0.558105 -0.24805,1.005967 -0.24115,0.447862 -0.58566,0.702799 -0.51677,0.38585 -1.06798,0.564995 -0.39963,0.130913 -0.99219,0.130913 z m 0,-0.578775 h 1.84657 q 0.64079,0 1.1989,-0.282498 0.56499,-0.289388 0.81993,-0.702799 0.26183,-0.413411 0.26183,-0.840602 0,-0.682129 -0.58567,-1.226453 -0.58567,-0.544325 -1.48139,-0.544325 h -2.06017 z m 12.88636,0.916395 q 0,1.322915 -0.95085,2.25998 -0.94395,0.937066 -2.28065,0.937066 -1.35047,0 -2.29443,-0.937066 -0.94395,-0.943955 -0.94395,-2.25998 0,-1.322916 0.94395,-2.259981 0.94396,-0.943956 2.29443,-0.943956 1.3367,0 2.28065,0.937066 0.95085,0.937065 0.95085,2.266871 z m -0.58567,0 q 0,-1.08865 -0.77859,-1.85346 -0.7717,-0.764811 -1.87413,-0.764811 -1.10243,0 -1.88102,0.771701 -0.7717,0.76481 -0.7717,1.84657 0,1.074869 0.7717,1.846569 0.77859,0.771701 1.88102,0.771701 1.10243,0 1.87413,-0.76481 0.77859,-0.771701 0.77859,-1.85346 z m 8.57999,-5.677513 v 8.068407 h 0.77171 q 0.21359,0 0.30316,0.08268 0.0896,0.07579 0.0896,0.206706 0,0.124023 -0.0896,0.206705 -0.0896,0.08268 -0.30316,0.08268 h -1.35737 v -1.150661 q -1.00597,1.378037 -2.55626,1.378037 -0.78548,0 -1.50895,-0.413411 -0.71658,-0.420302 -1.13688,-1.192003 -0.41341,-0.7717 -0.41341,-1.591632 0,-0.826823 0.41341,-1.591633 0.4203,-0.771701 1.13688,-1.192002 0.72347,-0.420302 1.51584,-0.420302 1.51584,0 2.54937,1.378037 v -3.265948 h -0.7717 q -0.2136,0 -0.30317,-0.08268 -0.0896,-0.08268 -0.0896,-0.213596 0,-0.124023 0.0896,-0.206705 0.0896,-0.08268 0.30317,-0.08268 z m -0.58566,5.677513 q 0,-1.10243 -0.74414,-1.860351 -0.74414,-0.75792 -1.77078,-0.75792 -1.03353,0 -1.77767,0.75792 -0.74414,0.757921 -0.74414,1.860351 0,1.095539 0.74414,1.86035 0.74414,0.75792 1.77767,0.75792 1.02664,0 1.77078,-0.75792 0.74414,-0.764811 0.74414,-1.86035 z m 8.55932,-2.411565 v -0.192926 q 0,-0.213595 0.0827,-0.303168 0.0827,-0.08957 0.20671,-0.08957 0.13091,0 0.21359,0.08957 0.0827,0.08957 0.0827,0.303168 v 1.309136 q -0.007,0.213595 -0.0896,0.303168 -0.0758,0.08957 -0.2067,0.08957 -0.11714,0 -0.19982,-0.07579 -0.0758,-0.08268 -0.0896,-0.268717 -0.0413,-0.489203 -0.64768,-0.930175 -0.59944,-0.440972 -1.61919,-0.440972 -1.28847,0 -1.95682,0.806152 -0.66834,0.806151 -0.66834,1.84657 0,1.1231 0.73725,1.853459 0.73725,0.73036 1.90858,0.73036 0.67524,0 1.37115,-0.248047 0.70279,-0.248046 1.26779,-0.799261 0.14469,-0.137804 0.25494,-0.137804 0.11713,0 0.19292,0.08268 0.0827,0.07579 0.0827,0.192926 0,0.296278 -0.69591,0.75103 -1.1231,0.73725 -2.50113,0.73725 -1.39871,0 -2.30132,-0.888834 -0.89573,-0.895724 -0.89573,-2.266871 0,-1.398708 0.9164,-2.321993 0.92328,-0.923285 2.32199,-0.923285 1.3298,0 2.23242,0.792372 z m 7.64292,5.381235 v -0.833713 q -1.2609,1.061089 -2.69406,1.061089 -1.04042,0 -1.62608,-0.523654 -0.58567,-0.530545 -0.58567,-1.295355 0,-0.840603 0.7717,-1.46761 0.7717,-0.627007 2.25309,-0.627007 0.39963,0 0.86817,0.05512 0.46853,0.04823 1.01285,0.158474 v -0.937065 q 0,-0.475423 -0.44097,-0.826822 -0.44097,-0.3514 -1.32291,-0.3514 -0.67524,0 -1.8948,0.392741 -0.22049,0.0689 -0.2825,0.0689 -0.11025,0 -0.19293,-0.08268 -0.0758,-0.08268 -0.0758,-0.206705 0,-0.117133 0.0689,-0.186035 0.0965,-0.103353 0.77859,-0.282498 1.07487,-0.289388 1.62609,-0.289388 1.09554,0 1.70876,0.544325 0.61323,0.537434 0.61323,1.219563 v 3.830943 h 0.7717 q 0.2136,0 0.30317,0.08268 0.0896,0.07579 0.0896,0.206706 0,0.124023 -0.0896,0.206705 -0.0896,0.08268 -0.30317,0.08268 z m 0,-2.880098 q -0.40652,-0.117133 -0.86127,-0.172255 -0.45475,-0.05512 -0.95774,-0.05512 -1.2609,0 -1.97059,0.544325 -0.53743,0.40652 -0.53743,0.971516 0,0.523654 0.40652,0.881943 0.41341,0.35829 1.19889,0.35829 0.75103,0 1.39182,-0.296278 0.64768,-0.303168 1.3298,-0.957736 z m 8.64201,-2.707843 q 0,-0.199815 0.0827,-0.289388 0.0827,-0.08957 0.2067,-0.08957 0.13092,0 0.2136,0.08957 0.0827,0.08957 0.0827,0.303168 v 0.992187 q 0,0.206706 -0.0827,0.296278 -0.0827,0.08957 -0.2136,0.08957 -0.11713,0 -0.19981,-0.07579 -0.0758,-0.07579 -0.0896,-0.248046 -0.0413,-0.413411 -0.4272,-0.682129 -0.56499,-0.38585 -1.49517,-0.38585 -0.97151,0 -1.50895,0.392741 -0.40652,0.296278 -0.40652,0.661457 0,0.413412 0.48232,0.689019 0.33072,0.192925 1.25401,0.296278 1.20578,0.130914 1.67431,0.296278 0.66835,0.241156 0.99219,0.668348 0.33073,0.427191 0.33073,0.923285 0,0.73725 -0.70969,1.316025 -0.70969,0.571886 -2.08084,0.571886 -1.37114,0 -2.2462,-0.695909 0,0.234266 -0.0276,0.303168 -0.0276,0.0689 -0.10335,0.117133 -0.0689,0.04823 -0.15847,0.04823 -0.12403,0 -0.20671,-0.08957 -0.0827,-0.08957 -0.0827,-0.296278 v -1.192002 q 0,-0.206705 0.0758,-0.296278 0.0827,-0.08957 0.2136,-0.08957 0.12402,0 0.2067,0.08957 0.0896,0.08268 0.0896,0.227376 0,0.316949 0.15848,0.530545 0.24115,0.330728 0.76481,0.551214 0.53054,0.213596 1.29535,0.213596 1.12999,0 1.68121,-0.420301 0.55121,-0.420302 0.55121,-0.888834 0,-0.537435 -0.5581,-0.861273 -0.565,-0.323839 -1.64676,-0.434082 -1.07486,-0.110243 -1.5434,-0.289388 -0.46853,-0.179145 -0.73036,-0.537434 -0.26182,-0.35829 -0.26182,-0.771701 0,-0.74414 0.73036,-1.178222 0.73036,-0.440972 1.74321,-0.440972 1.1989,0 1.94993,0.585666 z m 5.29337,-0.37896 h 3.14192 q 0.20671,0 0.29628,0.08268 0.0896,0.08268 0.0896,0.213596 0,0.124023 -0.0896,0.206705 -0.0896,0.08268 -0.29628,0.08268 h -3.14192 v 3.851613 q 0,0.502984 0.39963,0.840603 0.40652,0.337619 1.18511,0.337619 0.58567,0 1.26779,-0.172255 0.68213,-0.179144 1.06109,-0.39963 0.13781,-0.08957 0.22738,-0.08957 0.11024,0 0.19292,0.08957 0.0827,0.08268 0.0827,0.199815 0,0.103353 -0.0896,0.192925 -0.22048,0.227376 -1.07487,0.496094 -0.84749,0.261827 -1.62608,0.261827 -1.01286,0 -1.6123,-0.475423 -0.59945,-0.475423 -0.59945,-1.281575 v -3.851613 h -1.06798 q -0.2067,0 -0.29628,-0.08268 -0.0896,-0.08268 -0.0896,-0.213595 0,-0.124024 0.0896,-0.206706 0.0896,-0.08268 0.29628,-0.08268 h 1.06798 v -1.708766 q 0,-0.206706 0.0827,-0.296278 0.0827,-0.08957 0.20671,-0.08957 0.13091,0 0.2136,0.08957 0.0827,0.08957 0.0827,0.296278 z m 9.75132,2.542478 q 0,0.792372 -0.20671,1.681206 -0.2067,0.881943 -0.79237,2.046385 -0.58566,1.171331 -0.85438,1.405598 -0.0827,0.08268 -0.17915,0.08268 -0.12402,0 -0.21359,-0.08957 -0.0827,-0.08268 -0.0827,-0.199815 0,-0.0689 0.0482,-0.151584 0.75792,-1.384927 1.08176,-2.514918 0.32384,-1.12999 0.32384,-2.259981 0,-1.13688 -0.32384,-2.266871 -0.32384,-1.12999 -1.08176,-2.521808 -0.0482,-0.08268 -0.0482,-0.151584 0,-0.117133 0.0827,-0.199815 0.0896,-0.08268 0.21359,-0.08268 0.0965,0 0.17915,0.07579 0.25494,0.234266 0.83371,1.371147 0.57878,1.13688 0.79926,2.011934 0.22049,0.875053 0.22049,1.763887 z"
         id="path6" />
    </g>
    <path
       d="M 70.401807,168.15196 H 58.523874 q -0.78061,0 -1.107622,-0.28064 -0.337562,-0.28064 -0.337562,-0.74168 0,-0.46105 0.337562,-0.75171 0.327012,-0.28064 1.107622,-0.28064 h 11.877933 q 0.770061,0 1.097074,0.28064 0.337561,0.29066 0.337561,0.75171 0,0.45102 -0.327012,0.73166 -0.327013,0.29066 -1.107623,0.29066 z"
       id="underscore"
       style="font-weight:bold;font-size:29.0237px;font-family:'Courier New';-inkscape-font-specification:'Courier New, Bold';stroke-width:0.376042"
       inkscape:label="#underscore"
       aria-label="_" />
    <path
       d="m 59.265063,149.64993 q 0.748964,0.0902 1.466281,0.40091 0.168781,-0.0902 0.316464,-0.13029 0.158232,-0.0501 0.305915,-0.0501 0.485244,0 0.78061,0.32072 0.305914,0.31071 0.305914,1.0524 v 0.6615 q 0,0.74168 -0.305914,1.06241 -0.295366,0.31071 -0.770061,0.31071 -0.432501,0 -0.738415,-0.27062 -0.295366,-0.27062 -0.34811,-0.7918 -0.759513,-0.5713 -1.898782,-0.5713 -1.192013,0 -1.751098,0.41094 -0.548537,0.4009 -0.548537,0.89202 0,0.38087 0.337561,0.68155 0.337562,0.30069 1.413537,0.51116 l 1.434635,0.29066 q 1.814391,0.3508 2.60555,1.0524 1.033781,0.89202 1.033781,2.35534 0,1.28292 -0.94939,2.2852 -0.938842,0.99225 -2.689941,1.31298 v 1.74396 q 0,0.74168 -0.305914,1.05239 -0.295367,0.32073 -0.780611,0.32073 -0.474695,0 -0.78061,-0.32073 -0.295366,-0.31071 -0.295366,-1.05239 v -1.74396 q -0.843903,-0.17039 -1.687806,-0.53121 -0.453597,0.36082 -0.843902,0.36082 -0.516891,0 -0.822806,-0.31071 -0.295366,-0.3107 -0.295366,-1.05239 v -1.29293 q 0,-0.74169 0.295366,-1.0524 0.305915,-0.32072 0.791159,-0.32072 0.390305,0 0.654025,0.20045 0.26372,0.20046 0.379756,0.62141 0.116037,0.41094 0.327012,0.62142 0.316464,0.32072 0.95994,0.54122 0.654025,0.21049 1.339696,0.21049 1.202561,0 2.004269,-0.59135 0.537988,-0.39089 0.537988,-1.0123 0,-0.51116 -0.358659,-0.84191 -0.358659,-0.32073 -1.508476,-0.54123 l -1.624513,-0.31071 q -1.719452,-0.32073 -2.521159,-1.17266 -0.801709,-0.85194 -0.801709,-2.04465 0,-1.18268 0.865001,-2.10478 0.865001,-0.92209 2.310184,-1.16264 v -0.56127 q 0,-0.73166 0.295366,-1.04237 0.305915,-0.32073 0.791159,-0.32073 0.474695,0 0.770062,0.32073 0.305914,0.31071 0.305914,1.04237 z"
       id="dollar"
       style="font-weight:bold;font-size:29.0237px;font-family:'Courier New';-inkscape-font-specification:'Courier New, Bold';stroke-width:0.376042"
       inkscape:label="#dollar"
       aria-label="$" />
    <g
       id="color"
       transform="matrix(0.23884845,0,0,0.21443339,56.065861,151.47137)">
      <rect
         x="19"
         y="23.230101"
         width="29.999701"
         height="36.385601"
         fill="#fcea2b"
         id="rect380" />
      <polygon
         fill="#f1b31c"
         points="33,59.6157 48.9998,59.6157 48.9998,23.2301 40.5264,23.2301 "
         id="polygon382" />
      <path
         fill="#ffffff"
         d="m 44.1933,15.3999 c -1.304,-0.001 -2.5018,0.4709 -3.4585,1.2577 -0.9376,-1.9375 -2.8336,-3.2665 -5.0258,-3.2682 -0.8005,-6e-4 -1.5606,0.1771 -2.2511,0.4952 -1.1199,-1.5208 -2.8597,-2.5031 -4.819,-2.5046 -2.9465,-0.0023 -5.4063,2.205 -5.997,5.1492 C 22.294,16.4418 21.9358,16.3844 21.5634,16.3841 18.9601,16.382 16.8472,18.6237 16.845,21.39 l -0.0063,8.0154 c -9e-4,1.1021 0.847,2.0045 1.8842,2.0053 l 0.9429,7e-4 c 1.0372,8e-4 1.8865,-0.9002 1.8873,-2.0024 l 0.0013,-1.5991 c 0.5711,0.3722 1.2338,0.5981 1.9494,0.5987 l 1.8546,0.0015 c 1.2022,9e-4 2.2653,-0.6144 2.9581,-1.5517 1.0256,1.5428 2.7125,2.5581 4.6153,2.5596 3.1115,0.0025 5.6594,-2.7007 5.662,-6.0071 l 10.9214,0.0086 c 0.2098,-0.627 0.3301,-1.3002 0.3306,-2.0036 0.0027,-3.3203 -2.5278,-6.0135 -5.6525,-6.016 z"
         id="path384" />
      <path
         fill="#ffffff"
         d="m 19.8066,24.8075 c 0.0022,-2.6882 2.115,-4.8665 4.7184,-4.8646 0.3724,3e-4 0.7307,0.0561 1.0785,0.141 0.5907,-2.861 3.0506,-5.006 5.9971,-5.0037 1.9593,0.0015 3.699,0.956 4.8189,2.4339 0.6904,-0.3091 1.4505,-0.4818 2.2511,-0.4812 2.1922,0.0017 4.0882,1.2932 5.0258,3.1759 0.9567,-0.7645 2.1545,-1.2232 3.4585,-1.2222 0.5297,4e-4 1.0401,0.0815 1.5261,0.2223 -0.7688,-2.2807 -2.8627,-3.9207 -5.3338,-3.9226 -1.304,-0.001 -2.5018,0.4577 -3.4585,1.2222 -0.9376,-1.8828 -2.8336,-3.1742 -5.0258,-3.1759 -0.8005,-6e-4 -1.5607,0.1721 -2.2511,0.4812 -1.1199,-1.4778 -2.8597,-2.4324 -4.8189,-2.4339 -2.9465,-0.0023 -5.4064,2.1427 -5.9971,5.0037 -0.3478,-0.085 -0.7061,-0.1407 -1.0785,-0.141 -2.6034,-0.002 -4.7163,2.1764 -4.7184,4.8646 l -0.0063,7.7891 c -9e-4,1.071 0.847,1.9479 1.8842,1.9487 l 0.9429,7e-4 c 0.3605,3e-4 0.6951,-0.1105 0.9824,-0.2934 z"
         id="path386" />
    </g>
    <g
       id="hair"
       transform="matrix(0.23884845,0,0,0.21443339,56.065861,151.47137)" />
    <g
       id="skin"
       transform="matrix(0.23884845,0,0,0.21443339,56.065861,151.47137)" />
    <g
       id="skin-shadow"
       transform="matrix(0.23884845,0,0,0.21443339,56.065861,151.47137)" />
    <g
       id="line-1"
       transform="matrix(0.23884845,0,0,0.21443339,56.065861,151.47137)">
      <path
         style="baseline-shift:baseline;display:inline;overflow:visible;opacity:1;vector-effect:none;stroke-linecap:round;stroke-linejoin:round;stroke-miterlimit:10;enable-background:accumulate;stop-color:#000000;stop-opacity:1"
         d="m 49.5,27.5 a 1,1 0 0 0 -1,1 1,1 0 0 0 1,1 h 6 c 1.654545,0 3,1.345455 3,3 v 14 c 0,1.654545 -1.345455,3 -3,3 h -6 a 1,1 0 0 0 -1,1 1,1 0 0 0 1,1 h 6 c 2.745455,0 5,-2.254545 5,-5 v -14 c 0,-2.745455 -2.254545,-5 -5,-5 z"
         id="path392-7" />
      <path
         style="baseline-shift:baseline;display:inline;overflow:visible;opacity:1;vector-effect:none;stroke-linecap:round;stroke-linejoin:round;stroke-miterlimit:10;enable-background:accumulate;stop-color:#000000;stop-opacity:1"
         d="m 38.59375,22.220703 a 1.00925,1.00925 0 0 0 -1.009766,1.009766 1.00925,1.00925 0 0 0 1.009766,1.009765 h 9.396484 v 34.75 H 21.009766 V 39.634766 A 1.00925,1.00925 0 0 0 20,38.625 1.00925,1.00925 0 0 0 18.990234,39.634766 V 60 A 1.009351,1.009351 0 0 0 20,61.009766 H 49 A 1.009351,1.009351 0 0 0 50.009766,60 V 23.230469 A 1.009351,1.009351 0 0 0 49,22.220703 Z"
         id="polyline394-7" />
      <path
         style="baseline-shift:baseline;display:inline;overflow:visible;opacity:1;vector-effect:none;stroke-linecap:round;stroke-linejoin:round;stroke-miterlimit:10;enable-background:accumulate;stop-color:#000000;stop-opacity:1"
         d="m 28.640625,10.380859 c -3.120439,-0.0024 -5.669448,2.155505 -6.642578,5.060547 -0.148631,-0.01425 -0.277742,-0.05652 -0.433594,-0.05664 -3.177802,-0.0026 -5.716145,2.728836 -5.71875,6.003906 l -0.0078,8.015625 c -0.0013,1.615445 1.267963,3.004612 2.884765,3.005859 l 0.94336,0.002 c 0.318128,1.56e-4 0.626437,-0.05591 0.914062,-0.15625 1.173394,-0.409519 1.97163,-1.548369 1.972656,-2.845703 v -0.291015 c 0.328456,0.07896 0.598531,0.288766 0.951172,0.289062 l 1.853516,0.002 c 1.151434,8.62e-4 2.122108,-0.53101 2.9375,-1.238281 1.20279,1.297564 2.772639,2.244624 4.636719,2.246094 3.350881,0.0027 5.986983,-2.665429 6.46875,-6.007813 l 10.113281,0.0098 a 1.0001,1.0001 0 0 0 0.949219,-0.683594 c 0.241646,-0.722175 0.382231,-1.503348 0.382812,-2.320312 0.003,-3.828875 -2.953454,-7.012784 -6.652344,-7.015625 -1.206928,-9.26e-4 -2.292324,0.418005 -3.265625,1.007812 -1.203442,-1.733732 -3.005702,-3.017815 -5.21875,-3.019531 -0.704682,-5.28e-4 -1.344675,0.223537 -1.982422,0.4375 -1.290279,-1.437283 -3.045407,-2.44375 -5.085937,-2.445313 z m -0.002,2 c 1.625518,0.0012 3.065084,0.809495 4.013672,2.097657 a 1.0001,1.0001 0 0 0 1.224609,0.314453 c 0.565743,-0.260627 1.179997,-0.404786 1.832031,-0.404297 1.788488,0.0014 3.339553,1.081993 4.125,2.705078 a 1.0001,1.0001 0 0 0 1.535157,0.335937 c 0.791938,-0.651298 1.761945,-1.030111 2.824218,-1.029296 2.550511,0.002 4.654546,2.203699 4.652344,5.015625 -2.5e-4,0.351285 -0.09954,0.671905 -0.166016,1.003906 l -10.085937,-0.0098 a 1.0001,1.0001 0 0 0 -1,1 c -0.0022,2.793098 -2.130232,5.009847 -4.662109,5.007813 -1.547545,-0.0012 -2.925493,-0.823036 -3.783204,-2.113282 a 1.0001,1.0001 0 0 0 -1.636718,-0.04102 c -0.526488,0.712293 -1.291793,1.147128 -2.152344,1.146484 l -1.855469,-0.002 c -0.505665,-4.24e-4 -0.974598,-0.155502 -1.404297,-0.435547 a 1.0001,1.0001 0 0 0 -1.544922,0.835938 l -0.002,1.599609 c -3.74e-4,0.472866 -0.298253,0.844857 -0.630859,0.960938 -0.08158,0.02846 -0.165588,0.04301 -0.255859,0.04297 l -0.941407,-0.002 c -0.457503,-2.22e-4 -0.887105,-0.41502 -0.886624,-1.003775 l 0.0078,-8.015625 c 0.0018,-2.25753 1.687999,-4.007496 3.716797,-4.005859 0.27016,2.17e-4 0.545006,0.04215 0.835937,0.115234 a 1.0001,1.0001 0 0 0 1.22461,-0.773438 c 0.504337,-2.513745 2.568976,-4.347612 5.015625,-4.345703 z"
         id="path396-1" />
    </g>
    <text
       xml:space="preserve"
       transform="matrix(0.26458333,0,0,0.26458333,50.146086,144.0641)"
       id="text18"
       style="font-style:normal;font-variant:normal;font-weight:normal;font-stretch:normal;font-size:21.3333px;line-height:1;font-family:'Courier New';-inkscape-font-specification:'Courier New, Normal';font-variant-ligatures:normal;font-variant-caps:normal;font-variant-numeric:normal;font-variant-east-asian:normal;text-align:end;letter-spacing:-0.07px;word-spacing:0px;writing-mode:lr-tb;direction:ltr;white-space:pre;shape-inside:url(#rect19);display:inline;fill:#ffffff;stroke:none;stroke-width:0.585827" />
    <g
       id="text2"
       style="font-weight:bold;font-size:4.25504px;line-height:0.8;font-family:'Courier New';-inkscape-font-specification:'Courier New, Bold';text-align:end;letter-spacing:-0.0159564px;word-spacing:0px;text-anchor:end;fill:#1a1a1a;stroke-width:0.133538"
       aria-label="the&#10;Underbar">
      <path
         d="m 66.25209,172.75092 v 0.85392 q 0,0.13713 0.0561,0.18076 0.08726,0.0686 0.311648,0.0686 0.326192,0 0.60252,-0.1392 0.105961,-0.054 0.166213,-0.054 0.08311,0 0.143358,0.0623 0.06233,0.0623 0.06233,0.15167 0,0.0831 -0.06649,0.14336 -0.101805,0.0976 -0.403065,0.18075 -0.299183,0.081 -0.504871,0.081 -0.396832,0 -0.596287,-0.17037 -0.197378,-0.17244 -0.197378,-0.42176 v -0.93703 h -0.153746 q -0.153747,0 -0.220232,-0.0582 -0.06441,-0.0602 -0.06441,-0.15582 0,-0.0935 0.06441,-0.15167 0.06649,-0.0602 0.220232,-0.0602 h 0.153746 v -0.38437 q 0,-0.15375 0.05817,-0.21815 0.06025,-0.0665 0.155824,-0.0665 0.09349,0 0.151669,0.0665 0.06025,0.0644 0.06025,0.21815 v 0.38437 h 0.787432 q 0.153746,0 0.218154,0.0602 0.06649,0.0582 0.06649,0.15374 0,0.0935 -0.06649,0.15375 -0.06441,0.0582 -0.218154,0.0582 z m 2.20298,-1.23412 v 0.90793 q 0.13297,-0.079 0.268018,-0.11635 0.137125,-0.0395 0.276328,-0.0395 0.220232,0 0.392677,0.0748 0.172446,0.0748 0.284639,0.23686 0.114271,0.15998 0.114271,0.40514 v 0.7999 q 0.162058,0 0.211921,0.0312 0.09973,0.0644 0.09973,0.18284 0,0.0935 -0.06441,0.15374 -0.06441,0.0582 -0.218154,0.0582 h -0.486172 q -0.151669,0 -0.218154,-0.0582 -0.06441,-0.0602 -0.06441,-0.15582 0,-0.11635 0.09973,-0.18076 0.05194,-0.0332 0.211921,-0.0312 v -0.77081 q 0,-0.16414 -0.07479,-0.23062 -0.09765,-0.0893 -0.288795,-0.0893 -0.14128,0 -0.251396,0.0561 -0.108038,0.054 -0.29295,0.23686 v 0.79782 q 0.164135,0 0.211921,0.0312 0.101806,0.0644 0.101806,0.18284 0,0.0935 -0.06649,0.15374 -0.06441,0.0582 -0.218154,0.0582 h -0.484094 q -0.153747,0 -0.220232,-0.0582 -0.06441,-0.0602 -0.06441,-0.15582 0,-0.11635 0.101805,-0.18076 0.04986,-0.0332 0.211921,-0.0312 v -1.84288 h -0.07272 q -0.153747,0 -0.220232,-0.0582 -0.06441,-0.0602 -0.06441,-0.15582 0,-0.0935 0.06441,-0.15167 0.06649,-0.0603 0.220232,-0.0603 z m 4.045862,1.96754 h -1.747309 q 0.06649,0.16621 0.234775,0.26802 0.170368,0.1018 0.459162,0.1018 0.236853,0 0.62953,-0.1018 0.162057,-0.0416 0.224387,-0.0416 0.08518,0 0.143358,0.0602 0.05818,0.0603 0.05818,0.15167 0,0.0831 -0.06233,0.14128 -0.08311,0.0769 -0.405143,0.14752 -0.322037,0.0686 -0.619141,0.0686 -0.511104,0 -0.818597,-0.28879 -0.305416,-0.2888 -0.305416,-0.71056 0,-0.44878 0.330348,-0.72926 0.332425,-0.28256 0.764577,-0.28256 0.259707,0 0.475784,0.0914 0.218154,0.0914 0.324114,0.19737 0.149591,0.15375 0.247241,0.38021 0.06649,0.15791 0.06649,0.36567 z m -0.471628,-0.42592 q -0.09765,-0.18284 -0.255552,-0.27217 -0.157901,-0.0914 -0.376055,-0.0914 -0.216077,0 -0.373979,0.0914 -0.157901,0.0893 -0.257629,0.27217 z"
         id="path7" />
      <path
         d="m 54.627021,175.52335 v 1.20712 q 0,0.39475 -0.284639,0.67108 -0.282561,0.27633 -0.681471,0.27633 -0.197378,0 -0.371901,-0.0686 -0.172445,-0.0706 -0.311648,-0.20569 -0.137126,-0.13505 -0.213999,-0.28049 -0.07687,-0.14751 -0.07687,-0.39267 v -1.20712 q -0.135048,0 -0.199455,-0.0602 -0.06441,-0.0602 -0.06441,-0.15375 0,-0.0956 0.06441,-0.15375 0.06441,-0.0582 0.220231,-0.0582 l 0.55889,-0.002 q 0.153747,0 0.218154,0.0602 0.06649,0.0582 0.06649,0.15375 0,0.0956 -0.06649,0.15583 -0.06441,0.0582 -0.218154,0.0582 h -0.153747 v 1.24452 q 0,0.19114 0.157902,0.33865 0.15998,0.14544 0.384367,0.14544 0.149591,0 0.280483,-0.0706 0.130893,-0.0706 0.213999,-0.20569 0.05194,-0.0852 0.05194,-0.20776 v -1.24452 h -0.153746 q -0.153747,0 -0.220232,-0.0582 -0.06441,-0.0603 -0.06441,-0.15583 0,-0.0956 0.06441,-0.15375 0.06649,-0.0602 0.220232,-0.0602 l 0.558889,0.002 q 0.153747,0 0.218154,0.0582 0.06649,0.0582 0.06649,0.15375 0,0.0935 -0.06441,0.15375 -0.06441,0.0602 -0.199455,0.0602 z m 1.132987,0.20569 v 0.14336 q 0.116349,-0.0997 0.255552,-0.1496 0.141281,-0.0499 0.305416,-0.0499 0.378133,0 0.598365,0.23478 0.174523,0.18699 0.174523,0.49032 v 0.79159 q 0.135048,0 0.199455,0.0602 0.06441,0.0582 0.06441,0.15375 0,0.0935 -0.06649,0.15375 -0.06441,0.0582 -0.218154,0.0582 h -0.384366 q -0.153747,0 -0.220232,-0.0582 -0.06441,-0.0603 -0.06441,-0.15583 0,-0.0935 0.06441,-0.15167 0.06441,-0.0602 0.199455,-0.0602 v -0.80405 q 0,-0.13921 -0.0748,-0.20361 -0.09765,-0.0831 -0.29295,-0.0831 -0.147513,0 -0.259707,0.0582 -0.110116,0.0561 -0.280484,0.24101 v 0.79159 q 0.164135,0 0.211921,0.0312 0.101806,0.0623 0.101806,0.18284 0,0.0935 -0.06649,0.15375 -0.06441,0.0582 -0.218154,0.0582 h -0.484094 q -0.153747,0 -0.220232,-0.0582 -0.06441,-0.0603 -0.06441,-0.15583 0,-0.11635 0.09973,-0.18076 0.04986,-0.0312 0.213999,-0.0312 v -1.03467 q -0.135048,0 -0.199455,-0.0602 -0.06441,-0.0603 -0.06441,-0.15375 0,-0.0935 0.06441,-0.15167 0.06649,-0.0602 0.220231,-0.0602 z m 3.946135,-0.80821 v 2.2688 h 0.07272 q 0.151669,0 0.218154,0.0602 0.06649,0.0582 0.06649,0.15375 0,0.0935 -0.06649,0.15375 -0.06441,0.0582 -0.218154,0.0582 h -0.498638 v -0.10388 q -0.145436,0.0852 -0.305415,0.12881 -0.157902,0.0436 -0.32827,0.0436 -0.479939,0 -0.772888,-0.27633 -0.29295,-0.2784 -0.29295,-0.69186 0,-0.43215 0.307493,-0.73756 0.307494,-0.30542 0.750034,-0.30542 0.166213,0 0.326192,0.0519 0.15998,0.0499 0.315804,0.15167 v -0.5298 h -0.07272 q -0.153746,0 -0.220231,-0.0582 -0.06441,-0.0602 -0.06441,-0.15374 0,-0.0956 0.06441,-0.15375 0.06649,-0.0602 0.220231,-0.0602 z m -0.42592,1.80756 q 0,-0.26386 -0.184911,-0.4467 -0.184912,-0.18283 -0.452929,-0.18283 -0.26594,0 -0.450852,0.18283 -0.184911,0.18284 -0.184911,0.44047 0,0.23477 0.166212,0.38644 0.166213,0.14959 0.469551,0.14959 0.30126,0 0.46955,-0.14959 0.16829,-0.15167 0.16829,-0.38021 z m 3.05482,0.15998 h -1.747309 q 0.06649,0.16621 0.234775,0.26802 0.170368,0.1018 0.459162,0.1018 0.236853,0 0.62953,-0.1018 0.162057,-0.0416 0.224387,-0.0416 0.08518,0 0.143358,0.0603 0.05817,0.0602 0.05817,0.15167 0,0.0831 -0.06233,0.14128 -0.08311,0.0769 -0.405143,0.14751 -0.322037,0.0686 -0.619142,0.0686 -0.511103,0 -0.818596,-0.28879 -0.305416,-0.2888 -0.305416,-0.71056 0,-0.44877 0.330347,-0.72926 0.332425,-0.28256 0.764578,-0.28256 0.259707,0 0.475783,0.0914 0.218154,0.0914 0.324115,0.19738 0.149591,0.15374 0.247241,0.38021 0.06649,0.1579 0.06649,0.36566 z m -0.471628,-0.42592 q -0.09765,-0.18283 -0.255552,-0.27217 -0.157902,-0.0914 -0.376056,-0.0914 -0.216076,0 -0.373978,0.0914 -0.157902,0.0893 -0.257629,0.27217 z m 1.851856,-0.73341 v 0.26594 q 0.268018,-0.19322 0.421765,-0.25763 0.155824,-0.0644 0.290872,-0.0644 0.207765,0 0.403065,0.15375 0.13297,0.10388 0.13297,0.21192 0,0.0914 -0.06441,0.15582 -0.06233,0.0623 -0.151669,0.0623 -0.07895,0 -0.166213,-0.079 -0.08726,-0.0789 -0.155824,-0.0789 -0.08934,0 -0.268018,0.11219 -0.176601,0.1122 -0.442541,0.33658 v 0.642 h 0.606676 q 0.153747,0 0.218154,0.0602 0.06648,0.0582 0.06648,0.15375 0,0.0935 -0.06648,0.15375 -0.06441,0.0582 -0.218154,0.0582 h -1.286069 q -0.153747,0 -0.220232,-0.0582 -0.06441,-0.0603 -0.06441,-0.15583 0,-0.0935 0.06441,-0.15167 0.06649,-0.0602 0.220232,-0.0602 h 0.253474 v -1.03467 h -0.153747 q -0.153746,0 -0.220231,-0.0582 -0.06441,-0.0602 -0.06441,-0.15582 0,-0.0935 0.06441,-0.15167 0.06649,-0.0602 0.220231,-0.0602 z m 2.08871,-0.80821 v 0.95572 q 0.155824,-0.1018 0.315804,-0.15167 0.162057,-0.0519 0.326192,-0.0519 0.44254,0 0.750034,0.30542 0.307493,0.30541 0.307493,0.73756 0,0.41346 -0.29295,0.69186 -0.292949,0.27633 -0.772888,0.27633 -0.170368,0 -0.32827,-0.0436 -0.157902,-0.0436 -0.305415,-0.12881 v 0.10388 h -0.498638 q -0.153746,0 -0.220231,-0.0582 -0.06441,-0.0603 -0.06441,-0.15583 0,-0.0935 0.06649,-0.15167 0.06649,-0.0602 0.218154,-0.0602 h 0.07272 v -1.84288 h -0.07272 q -0.153746,0 -0.220231,-0.0582 -0.06441,-0.0602 -0.06441,-0.15582 0,-0.0935 0.06441,-0.15167 0.06649,-0.0602 0.220231,-0.0602 z m 1.273603,1.80756 q 0,-0.26386 -0.184911,-0.4467 -0.184912,-0.18283 -0.452929,-0.18283 -0.26594,0 -0.450852,0.18283 -0.184911,0.18284 -0.184911,0.44047 0,0.23477 0.166212,0.38644 0.166213,0.14959 0.469551,0.14959 0.303338,0 0.46955,-0.14959 0.16829,-0.15167 0.16829,-0.38021 z m 2.184282,0.88716 v -0.0997 q -0.15998,0.0852 -0.353202,0.12674 -0.193222,0.0436 -0.351124,0.0436 -0.342813,0 -0.556812,-0.18076 -0.213998,-0.18283 -0.213998,-0.40306 0,-0.26802 0.272173,-0.49656 0.27425,-0.23062 0.756267,-0.23062 0.193222,0 0.446696,0.0416 v -0.1018 q 0,-0.0956 -0.08311,-0.15583 -0.08103,-0.0602 -0.311649,-0.0602 -0.189067,0 -0.490327,0.0748 -0.112193,0.027 -0.174523,0.027 -0.08518,0 -0.145436,-0.0603 -0.05817,-0.0623 -0.05817,-0.1579 0,-0.054 0.02078,-0.0935 0.02078,-0.0395 0.05818,-0.0623 0.0374,-0.0249 0.155824,-0.0582 0.157902,-0.0436 0.322037,-0.0686 0.164135,-0.027 0.297105,-0.027 0.396832,0 0.614986,0.17245 0.220231,0.17036 0.220231,0.46747 v 0.87677 h 0.07272 q 0.153747,0 0.218154,0.0602 0.06649,0.0582 0.06649,0.15375 0,0.0935 -0.06649,0.15375 -0.06441,0.0582 -0.218154,0.0582 z m 0,-0.7625 q -0.255552,-0.0499 -0.471628,-0.0499 -0.259707,0 -0.446696,0.12673 -0.116349,0.081 -0.116349,0.16414 0,0.0602 0.0561,0.0976 0.103883,0.0686 0.284639,0.0686 0.153746,0 0.346968,-0.0602 0.1953,-0.0602 0.346969,-0.16414 z m 2.065855,-1.12401 v 0.26594 q 0.268018,-0.19322 0.421764,-0.25763 0.155825,-0.0644 0.290872,-0.0644 0.207766,0 0.403066,0.15375 0.13297,0.10388 0.13297,0.21192 0,0.0914 -0.06441,0.15582 -0.06233,0.0623 -0.151669,0.0623 -0.07895,0 -0.166212,-0.079 -0.08726,-0.0789 -0.155824,-0.0789 -0.08934,0 -0.268018,0.11219 -0.176601,0.1122 -0.442541,0.33658 v 0.642 h 0.606676 q 0.153746,0 0.218154,0.0602 0.06649,0.0582 0.06649,0.15375 0,0.0935 -0.06649,0.15375 -0.06441,0.0582 -0.218154,0.0582 h -1.28607 q -0.153746,0 -0.220231,-0.0582 -0.06441,-0.0603 -0.06441,-0.15583 0,-0.0935 0.06441,-0.15167 0.06649,-0.0602 0.220231,-0.0602 h 0.253475 v -1.03467 h -0.153747 q -0.153747,0 -0.220232,-0.0582 -0.06441,-0.0602 -0.06441,-0.15582 0,-0.0935 0.06441,-0.15167 0.06649,-0.0602 0.220232,-0.0602 z"
         id="path8" />
    </g>
  </g>
  <metadata
     id="metadata1461">
    <rdf:RDF>
      <cc:Work
         rdf:about="">
        <dc:title>The Underbar</dc:title>
      </cc:Work>
    </rdf:RDF>
  </metadata>
</svg>
