<?xml version="1.0" encoding="UTF-8" standalone="no"?>
<!-- Created with Inkscape (http://www.inkscape.org/) -->

<svg
   width="25mm"
   height="50mm"
   viewBox="0 0 25 50"
   version="1.1"
   id="svg5"
   inkscape:version="1.4.2 (2aeb623e1d, 2025-05-12)"
   sodipodi:docname="the_underbar_sticker-5.svg"
   inkscape:export-filename="../3029f399/the_underbar_sticker-5.png"
   inkscape:export-xdpi="98.32"
   inkscape:export-ydpi="98.32"
   xmlns:inkscape="http://www.inkscape.org/namespaces/inkscape"
   xmlns:sodipodi="http://sodipodi.sourceforge.net/DTD/sodipodi-0.dtd"
   xmlns="http://www.w3.org/2000/svg"
   xmlns:svg="http://www.w3.org/2000/svg"
   xmlns:rdf="http://www.w3.org/1999/02/22-rdf-syntax-ns#"
   xmlns:cc="http://creativecommons.org/ns#"
   xmlns:dc="http://purl.org/dc/elements/1.1/">
  <title
     id="title1463">The Underbar</title>
  <sodipodi:namedview
     id="namedview7"
     pagecolor="#dfdfdf"
     bordercolor="#000000"
     borderopacity="0.25"
     inkscape:showpageshadow="2"
     inkscape:pageopacity="0.0"
     inkscape:pagecheckerboard="0"
     inkscape:deskcolor="#d1d1d1"
     inkscape:document-units="px"
     showgrid="false"
     inkscape:zoom="2.7725321"
     inkscape:cx="36.789475"
     inkscape:cy="84.579724"
     inkscape:window-width="1582"
     inkscape:window-height="1269"
     inkscape:window-x="26"
     inkscape:window-y="23"
     inkscape:window-maximized="0"
     inkscape:current-layer="color"
     showguides="true">
    <sodipodi:guide
       position="26.793409,25.64458"
       orientation="1,0"
       id="guide2"
       inkscape:locked="false" />
  </sodipodi:namedview>
  <defs
     id="defs2">
    <rect
       x="270.17303"
       y="71.871269"
       width="1.0492156"
       height="37.771763"
       id="rect19" />
    <rect
       x="101.26202"
       y="1.2090988"
       width="107.15018"
       height="54.687717"
       id="rect1" />
    <rect
       x="101.26202"
       y="1.2090988"
       width="133.80026"
       height="111.31913"
       id="rect1-3" />
  </defs>
  <g
     inkscape:label="Layer 1"
     inkscape:groupmode="layer"
     id="layer1"
     transform="translate(-50.144562,-144.06438)">
    <path
       id="rect2"
       style="opacity:1;vector-effect:non-scaling-stroke;fill:#fcfcfc;fill-opacity:1;stroke:none;stroke-width:0.264583;stroke-opacity:0.75;-inkscape-stroke:hairline"
       d="M 59.083551 144.06438 C 56.852091 144.06238 54.989578 145.56366 54.542226 147.56546 C 54.278752 147.50616 54.007251 147.46706 53.725222 147.46676 C 51.753676 147.46476 50.153463 148.98932 50.151797 150.87017 L 50.151797 150.88825 L 50.151797 150.88877 C 50.143303 158.06975 50.144168 164.7085 50.145596 171.4994 C 50.145054 171.52092 50.144562 171.54285 50.144562 171.56451 L 50.144562 191.56432 C 50.144562 192.94932 51.259668 194.06443 52.644668 194.06443 L 72.64448 194.06443 C 74.02948 194.06443 75.144586 192.94932 75.144586 191.56432 L 75.144586 183.2222 L 75.144586 171.56451 C 75.144586 171.5635 75.144587 171.56242 75.144586 171.56141 L 75.144586 150.88722 C 75.146686 148.62969 73.230127 146.7982 70.863711 146.79651 L 70.863711 146.79858 C 69.876158 146.7979 68.968764 147.11885 68.244232 147.65382 C 67.534163 146.3365 66.098472 145.43291 64.438263 145.43174 C 63.832022 145.43132 63.256392 145.55193 62.733458 145.76815 C 61.88533 144.73414 60.567377 144.06642 59.083551 144.06541 L 59.083551 144.06438 z " />
    <text
       xml:space="preserve"
       transform="matrix(0.25,0,0,0.25,21.497508,179.97125)"
       id="text1"
       style="font-style:normal;font-variant:normal;font-weight:normal;font-stretch:normal;font-size:24px;line-height:0;font-family:'Courier New';-inkscape-font-specification:'Courier New, Normal';font-variant-ligatures:normal;font-variant-caps:normal;font-variant-numeric:normal;font-variant-east-asian:normal;text-align:end;writing-mode:lr-tb;direction:ltr;white-space:pre;shape-inside:url(#rect1);shape-padding:2.6218;display:inline;fill:#000000;stroke:none;stroke-width:0.585827"
       x="268.86005"
       y="0"><tspan
         x="121.77738"
         y="14.621931"
         id="tspan4"><tspan
           style="font-size:14.1111px;line-height:1;letter-spacing:-0.0740833px"
           id="tspan3">Perl**CPAN
</tspan></tspan><tspan
         x="163.74716"
         y="28.73303"
         id="tspan6"><tspan
           style="font-size:14.1111px;line-height:1;letter-spacing:-0.0740833px"
           id="tspan5">Human
</tspan></tspan><tspan
         x="130.17134"
         y="42.84413"
         id="tspan9"><tspan
           style="font-size:14.1111px;line-height:1;letter-spacing:-0.0740833px"
           id="tspan7">(Podcast)</tspan></tspan></text>
    <g
       id="g9"
       transform="matrix(0.72520154,0,0,0.72591493,20.818614,45.56987)">
      <text
         xml:space="preserve"
         style="font-style:normal;font-variant:normal;font-weight:bold;font-stretch:normal;font-size:29.0237px;font-family:'Courier New';-inkscape-font-specification:'Courier New, Bold';font-variant-ligatures:normal;font-variant-caps:normal;font-variant-numeric:normal;font-variant-east-asian:normal;fill:#000000;stroke-width:0.518279"
         x="49.861382"
         y="164.40616"
         id="underscore"
         transform="scale(1.0264101,0.97426944)"
         inkscape:label="#underscore"><tspan
           sodipodi:role="line"
           id="tspan111-7-9"
           style="font-style:normal;font-variant:normal;font-weight:bold;font-stretch:normal;font-size:29.0237px;font-family:'Courier New';-inkscape-font-specification:'Courier New, Bold';font-variant-ligatures:normal;font-variant-caps:normal;font-variant-numeric:normal;font-variant-east-asian:normal;fill:#000000;stroke-width:0.518279"
           x="49.861382"
           y="164.40616">_</tspan></text>
      <text
         xml:space="preserve"
         style="font-style:normal;font-variant:normal;font-weight:bold;font-stretch:normal;font-size:29.0237px;font-family:'Courier New';-inkscape-font-specification:'Courier New, Bold';font-variant-ligatures:normal;font-variant-caps:normal;font-variant-numeric:normal;font-variant-east-asian:normal;fill:#000000;stroke-width:0.518279;image-rendering:auto"
         x="41.489616"
         y="164.40616"
         id="dollar"
         transform="scale(1.0264101,0.97426944)"
         inkscape:label="#dollar"><tspan
           sodipodi:role="line"
           id="tspan111-7-9-1"
           style="font-style:normal;font-variant:normal;font-weight:bold;font-stretch:normal;font-size:29.0237px;font-family:'Courier New';-inkscape-font-specification:'Courier New, Bold';font-variant-ligatures:normal;font-variant-caps:normal;font-variant-numeric:normal;font-variant-east-asian:normal;fill:#000000;stroke-width:0.518279"
           x="41.489616"
           y="164.40616">$</tspan></text>
      <g
         id="beer"
         transform="matrix(0.32935458,0,0,0.29539741,48.603381,146.62701)"
         inkscape:label="#beer">
        <g
           id="g497"
           transform="translate(-9.3089803e-8,-3.176991)">
          <g
             id="color">
            <rect
               x="19"
               y="23.230101"
               width="29.999701"
               height="36.385601"
               fill="#fcea2b"
               id="rect380" />
            <polygon
               fill="#f1b31c"
               points="33,59.6157 48.9998,59.6157 48.9998,23.2301 40.5264,23.2301 "
               id="polygon382" />
            <path
               fill="#ffffff"
               d="m 44.1933,15.3999 c -1.304,-0.001 -2.5018,0.4709 -3.4585,1.2577 -0.9376,-1.9375 -2.8336,-3.2665 -5.0258,-3.2682 -0.8005,-6e-4 -1.5606,0.1771 -2.2511,0.4952 -1.1199,-1.5208 -2.8597,-2.5031 -4.819,-2.5046 -2.9465,-0.0023 -5.4063,2.205 -5.997,5.1492 C 22.294,16.4418 21.9358,16.3844 21.5634,16.3841 18.9601,16.382 16.8472,18.6237 16.845,21.39 l -0.0063,8.0154 c -9e-4,1.1021 0.847,2.0045 1.8842,2.0053 l 0.9429,7e-4 c 1.0372,8e-4 1.8865,-0.9002 1.8873,-2.0024 l 0.0013,-1.5991 c 0.5711,0.3722 1.2338,0.5981 1.9494,0.5987 l 1.8546,0.0015 c 1.2022,9e-4 2.2653,-0.6144 2.9581,-1.5517 1.0256,1.5428 2.7125,2.5581 4.6153,2.5596 3.1115,0.0025 5.6594,-2.7007 5.662,-6.0071 l 10.9214,0.0086 c 0.2098,-0.627 0.3301,-1.3002 0.3306,-2.0036 0.0027,-3.3203 -2.5278,-6.0135 -5.6525,-6.016 z"
               id="path384" />
            <path
               fill="#ffffff"
               d="m 19.8066,24.8075 c 0.0022,-2.6882 2.115,-4.8665 4.7184,-4.8646 0.3724,3e-4 0.7307,0.0561 1.0785,0.141 0.5907,-2.861 3.0506,-5.006 5.9971,-5.0037 1.9593,0.0015 3.699,0.956 4.8189,2.4339 0.6904,-0.3091 1.4505,-0.4818 2.2511,-0.4812 2.1922,0.0017 4.0882,1.2932 5.0258,3.1759 0.9567,-0.7645 2.1545,-1.2232 3.4585,-1.2222 0.5297,4e-4 1.0401,0.0815 1.5261,0.2223 -0.7688,-2.2807 -2.8627,-3.9207 -5.3338,-3.9226 -1.304,-0.001 -2.5018,0.4577 -3.4585,1.2222 -0.9376,-1.8828 -2.8336,-3.1742 -5.0258,-3.1759 -0.8005,-6e-4 -1.5607,0.1721 -2.2511,0.4812 -1.1199,-1.4778 -2.8597,-2.4324 -4.8189,-2.4339 -2.9465,-0.0023 -5.4064,2.1427 -5.9971,5.0037 -0.3478,-0.085 -0.7061,-0.1407 -1.0785,-0.141 -2.6034,-0.002 -4.7163,2.1764 -4.7184,4.8646 l -0.0063,7.7891 c -9e-4,1.071 0.847,1.9479 1.8842,1.9487 l 0.9429,7e-4 c 0.3605,3e-4 0.6951,-0.1105 0.9824,-0.2934 z"
               id="path386" />
          </g>
          <g
             id="hair" />
          <g
             id="skin" />
          <g
             id="skin-shadow" />
          <g
             id="line-1">
            <path
               fill="none"
               stroke="#000000"
               stroke-linecap="round"
               stroke-linejoin="round"
               stroke-miterlimit="10"
               stroke-width="2"
               d="m 49.5,50.5 h 6 c 2.2,0 4,-1.8 4,-4 v -14 c 0,-2.2 -1.8,-4 -4,-4 h -6"
               id="path392-7" />
            <polyline
               fill="none"
               stroke="#000000"
               stroke-linecap="round"
               stroke-linejoin="round"
               stroke-miterlimit="10"
               stroke-width="2.0185"
               points="38.5938,23.2301 48.9997,23.2301 48.9997,60 20,60 20,39.6348"
               id="polyline394-7" />
            <path
               fill="none"
               stroke="#000000"
               stroke-linecap="round"
               stroke-linejoin="round"
               stroke-miterlimit="10"
               stroke-width="2"
               d="m 20.2515,31.3124 c 0.753,-0.2628 1.3009,-1.0182 1.3016,-1.9033 L 21.5544,27.81 c 0.5711,0.3722 1.2338,0.5981 1.9494,0.5987 l 1.8546,0.0015 c 1.2022,9e-4 2.2653,-0.6144 2.9581,-1.5517 1.0256,1.5428 2.7125,2.5581 4.6153,2.5596 3.1115,0.0025 5.6594,-2.7007 5.662,-6.0071 l 10.9214,0.0086 c 0.2098,-0.627 0.3301,-1.3002 0.3306,-2.0036 0.0026,-3.3204 -2.5278,-6.0136 -5.6525,-6.016 -1.304,-0.001 -2.5018,0.4709 -3.4585,1.2577 -0.9376,-1.9375 -2.8336,-3.2665 -5.0258,-3.2682 -0.8005,-6e-4 -1.5606,0.1771 -2.2511,0.4952 -1.1199,-1.5208 -2.8597,-2.5031 -4.819,-2.5046 -2.9465,-0.0023 -5.4063,2.205 -5.997,5.1492 -0.3479,-0.0874 -0.7061,-0.1448 -1.0785,-0.1451 -2.6033,-0.0021 -4.7162,2.2396 -4.7184,5.0059 l -0.0063,8.0154 c -9e-4,1.1021 0.847,2.0045 1.8842,2.0053 l 0.9429,7e-4 c 0.2042,10e-5 0.4011,-0.0347 0.5857,-0.0991"
               id="path396-1" />
          </g>
        </g>
      </g>
    </g>
    <text
       xml:space="preserve"
       transform="matrix(0.26458333,0,0,0.26458333,50.146086,144.0641)"
       id="text18"
       style="font-style:normal;font-variant:normal;font-weight:normal;font-stretch:normal;font-size:21.3333px;line-height:1;font-family:'Courier New';-inkscape-font-specification:'Courier New, Normal';font-variant-ligatures:normal;font-variant-caps:normal;font-variant-numeric:normal;font-variant-east-asian:normal;text-align:end;letter-spacing:-0.07px;word-spacing:0px;writing-mode:lr-tb;direction:ltr;white-space:pre;shape-inside:url(#rect19);display:inline;fill:#ffffff;stroke:none;stroke-width:0.585827" />
    <text
       xml:space="preserve"
       style="font-style:normal;font-variant:normal;font-weight:bold;font-stretch:normal;font-size:4.25504px;line-height:0.8;font-family:'Courier New';-inkscape-font-specification:'Courier New, Bold';font-variant-ligatures:normal;font-variant-caps:normal;font-variant-numeric:normal;font-variant-east-asian:normal;text-align:end;letter-spacing:-0.0159564px;word-spacing:0px;writing-mode:lr-tb;direction:ltr;text-anchor:end;fill:#1a1a1a;stroke-width:0.133538"
       x="72.692741"
       y="174.21152"
       id="text2"><tspan
         sodipodi:role="line"
         id="tspan1"
         style="font-style:normal;font-variant:normal;font-weight:bold;font-stretch:normal;font-size:4.25504px;font-family:'Courier New';-inkscape-font-specification:'Courier New, Bold';font-variant-ligatures:normal;font-variant-caps:normal;font-variant-numeric:normal;font-variant-east-asian:normal;fill:#1a1a1a;stroke-width:0.133538"
         x="72.692741"
         y="174.21152">the</tspan><tspan
         sodipodi:role="line"
         style="font-style:normal;font-variant:normal;font-weight:bold;font-stretch:normal;font-size:4.25504px;font-family:'Courier New';-inkscape-font-specification:'Courier New, Bold';font-variant-ligatures:normal;font-variant-caps:normal;font-variant-numeric:normal;font-variant-east-asian:normal;fill:#1a1a1a;stroke-width:0.133538"
         x="72.676788"
         y="177.61555"
         id="tspan2">Underbar</tspan></text>
  </g>
  <metadata
     id="metadata1461">
    <rdf:RDF>
      <cc:Work
         rdf:about="">
        <dc:title>The Underbar</dc:title>
      </cc:Work>
    </rdf:RDF>
  </metadata>
</svg>
